<svg width="25" height="25" viewBox="0 0 25 25" fill="none" xmlns="http://www.w3.org/2000/svg">
<path d="M21.0046 7.35102V12.961C21.0046 18.921 15.8246 21.751 13.4946 22.691L12.9546 22.911L12.4346 22.651C10.6146 21.741 4.93457 18.351 4.93457 12.871V7.35102C4.93457 6.42102 5.53457 5.60102 6.41457 5.30102L12.9746 3.04102L19.5246 5.30102C20.4146 5.59102 21.0046 6.42102 21.0046 7.35102ZM20.1746 7.35102C20.1746 6.78102 19.8046 6.27102 19.2546 6.09102L12.9746 3.91102L6.68457 6.08102C6.13457 6.26102 5.76457 6.77102 5.76457 7.34102V12.861C5.76457 17.861 11.2746 21.131 12.9946 21.991C15.1746 21.111 20.1846 18.411 20.1846 12.951V7.34102L20.1746 7.35102ZM16.5546 10.551L17.0546 11.061L13.1746 14.871C12.9346 15.111 12.6046 15.251 12.2546 15.251C11.9046 15.251 11.5746 15.111 11.3246 14.871L9.24457 12.861L9.73457 12.051L12.1046 14.361C12.2146 14.471 12.2846 14.461 12.3746 14.361L16.3946 10.381L16.5446 10.551H16.5546Z" fill="#191919"/>
</svg>
