<svg width="25" height="25" viewBox="0 0 25 25" fill="none" xmlns="http://www.w3.org/2000/svg">
<path d="M12.8875 23.0452L12.9483 23.0756L13.0112 23.0499L13.5507 22.8301C13.5508 22.8301 13.5508 22.8301 13.5509 22.83C15.8876 21.8873 21.1546 19.0223 21.1546 12.961V7.35102C21.1546 6.35768 20.5244 5.46965 19.5723 5.1588L13.0235 2.89922L12.9746 2.88235L12.9257 2.8992L6.36617 5.15904C6.3661 5.15906 6.36603 5.15909 6.36596 5.15911C5.42672 5.4794 4.78457 6.35543 4.78457 7.35102V12.871C4.78457 15.666 6.23339 17.9195 7.89604 19.5809C9.55898 21.2425 11.4493 22.3261 12.3675 22.7852L12.8875 23.0452ZM20.0246 7.35102V7.71314L20.0346 7.70314V12.951C20.0346 15.6299 18.8071 17.6331 17.3031 19.0804C15.8257 20.5021 14.0864 21.3818 13.0012 21.8264C12.1269 21.3833 10.3803 20.371 8.83919 18.871C7.26046 17.3344 5.91457 15.3033 5.91457 12.861V7.34102C5.91457 6.83651 6.24228 6.3836 6.73123 6.22358L6.73123 6.22359L6.73349 6.22281L12.9744 4.06974L19.2054 6.23272L19.2054 6.23274L19.2079 6.23358C19.6969 6.3936 20.0246 6.84651 20.0246 7.35102ZM16.6617 10.446L16.6176 10.401H16.6123L16.507 10.2818L16.4019 10.1626L16.289 10.2744L12.269 14.2544L12.2689 14.2542L12.2631 14.2607C12.2542 14.2705 12.2471 14.2775 12.2416 14.2825C12.234 14.2768 12.2238 14.2681 12.2106 14.2549L12.2093 14.2536L9.83927 11.9436L9.704 11.8118L9.60623 11.9734L9.11623 12.7834L9.0543 12.8857L9.14033 12.9689L11.2203 14.9789L11.2207 14.9792C11.4972 15.2447 11.8639 15.401 12.2546 15.401C12.6444 15.401 13.0123 15.2452 13.2801 14.9776C13.2803 14.9774 13.2805 14.9773 13.2806 14.9771L17.1597 11.168L17.2666 11.063L17.1617 10.956L16.6617 10.446Z" fill="#191919" stroke="#191919" stroke-width="0.3"/>
</svg>
