<svg width="25" height="25" viewBox="0 0 25 25" fill="none" xmlns="http://www.w3.org/2000/svg">
<mask id="path-1-outside-1_16475_262863" maskUnits="userSpaceOnUse" x="3.00488" y="3.02539" width="20" height="20" fill="black">
<rect fill="white" x="3.00488" y="3.02539" width="20" height="20"/>
<path d="M18.8049 15.8179C18.9249 15.4079 18.9649 14.9379 18.8749 14.5379C18.7849 14.1479 18.9649 13.7279 19.3249 13.4979C19.6549 13.2779 19.9349 12.9879 20.1349 12.6279C20.3249 12.2879 20.4249 11.8879 20.4249 11.4879C20.4249 11.0879 20.3249 10.6879 20.1349 10.3479C19.9349 9.98789 19.6649 9.68789 19.3249 9.47789C18.9649 9.24789 18.7849 8.82789 18.8749 8.43789C18.9649 8.03789 18.9549 7.62789 18.8349 7.21789C18.6149 6.44789 17.9949 5.83789 17.2349 5.61789C16.8249 5.49789 16.4149 5.48789 16.0149 5.57789C15.6249 5.66789 15.2049 5.48789 14.9749 5.12789C14.7549 4.79789 14.4649 4.51789 14.1049 4.31789C13.4049 3.92789 12.5349 3.92789 11.8349 4.31789C11.4749 4.51789 11.1749 4.78789 10.9549 5.12789C10.7249 5.48789 10.3049 5.66789 9.91488 5.57789C9.51488 5.48789 9.10488 5.49789 8.69488 5.61789C7.92488 5.83789 7.31488 6.44789 7.09488 7.21789C6.97488 7.62789 6.96488 8.03789 7.05488 8.43789C7.14488 8.82789 6.96488 9.24789 6.60488 9.47789C6.26488 9.69789 5.99488 9.98789 5.79488 10.3479C5.60488 10.6879 5.50488 11.0879 5.50488 11.4879C5.50488 11.8879 5.60488 12.2879 5.79488 12.6279C5.99488 12.9879 6.26488 13.2879 6.60488 13.4979C6.96488 13.7279 7.14488 14.1479 7.05488 14.5379C6.96488 14.9379 7.00488 15.4079 7.12488 15.8179L4.00488 18.9379H6.99488V21.9279L11.0249 17.9079C11.2349 18.2079 11.5049 18.4579 11.8349 18.6479C12.1849 18.8379 12.5749 18.9379 12.9649 18.9379C13.3549 18.9379 13.7449 18.8379 14.0949 18.6479C14.4349 18.4579 14.7049 18.2079 14.9149 17.9079L18.9449 21.9279V18.9379H21.9349L18.8049 15.8179ZM7.73488 20.1279V18.1879H5.80488L7.49488 16.4979C7.79488 16.8979 8.20488 17.2079 8.69488 17.3479C9.10488 17.4679 9.51488 17.4779 9.91488 17.3879C10.0949 17.3479 10.2749 17.3679 10.4349 17.4279L7.73488 20.1279ZM14.3449 17.4379C14.1949 17.6679 13.9949 17.8579 13.7349 17.9979C13.2649 18.2579 12.6649 18.2579 12.1949 17.9979C11.9349 17.8579 11.7349 17.6679 11.5849 17.4379C11.2549 16.9279 10.6949 16.6279 10.1149 16.6279C9.99488 16.6279 9.87488 16.6379 9.74488 16.6679C9.47488 16.7279 9.18488 16.7179 8.89488 16.6379C8.37488 16.4879 7.95488 16.0679 7.80488 15.5479C7.72488 15.2579 7.71488 14.9779 7.77488 14.7079C7.93488 14.0079 7.62488 13.2779 7.00488 12.8779C6.77488 12.7279 6.58488 12.5279 6.44488 12.2679C6.31488 12.0379 6.24488 11.7679 6.25488 11.4879C6.25488 11.2079 6.32488 10.9379 6.44488 10.7079C6.58488 10.4579 6.77488 10.2479 7.00488 10.0979C7.62488 9.69789 7.93488 8.96789 7.77488 8.26789C7.71488 7.99789 7.72488 7.70789 7.80488 7.42789C7.95488 6.91789 8.38488 6.48789 8.89488 6.33789C9.18488 6.25789 9.46488 6.24789 9.73488 6.30789C10.4349 6.46789 11.1749 6.15789 11.5749 5.53789C11.7249 5.30789 11.9249 5.11789 12.1849 4.97789C12.6549 4.71789 13.2549 4.71789 13.7249 4.97789C13.9849 5.11789 14.1849 5.30789 14.3349 5.53789C14.7349 6.15789 15.4749 6.46789 16.1749 6.30789C16.4449 6.24789 16.7349 6.25789 17.0149 6.33789C17.5349 6.48789 17.9549 6.90789 18.1049 7.42789C18.1849 7.71789 18.1949 7.99789 18.1349 8.26789C17.9749 8.96789 18.2849 9.69789 18.9049 10.0979C19.1349 10.2479 19.3249 10.4479 19.4649 10.7079C19.5949 10.9379 19.6649 11.2079 19.6549 11.4879C19.6549 11.7679 19.5849 12.0379 19.4649 12.2679C19.3249 12.5179 19.1349 12.7279 18.9049 12.8779C18.2849 13.2779 17.9749 14.0079 18.1349 14.7079C18.1949 14.9779 18.1849 15.2679 18.1049 15.5479C17.9549 16.0579 17.5249 16.4879 17.0149 16.6379C16.7249 16.7179 16.4449 16.7279 16.1749 16.6679C15.4749 16.5079 14.7349 16.8179 14.3349 17.4379H14.3449ZM18.1949 18.1979V20.1379L15.4949 17.4379C15.6649 17.3779 15.8349 17.3579 16.0149 17.3979C16.4149 17.4879 16.8249 17.4779 17.2349 17.3579C17.7249 17.2179 18.1449 16.9079 18.4449 16.5079L20.1349 18.1979H18.2049H18.1949ZM15.2149 15.2079V13.7179C15.2149 13.3079 14.8749 12.9679 14.4649 12.9679H11.4749C11.0649 12.9679 10.7249 13.2979 10.7249 13.7179V15.2079H9.97488V13.7179C9.97488 12.8979 10.6449 12.2279 11.4649 12.2279H14.4549C15.2749 12.2279 15.9449 12.8979 15.9449 13.7179V15.2079H15.1949H15.2149ZM12.9649 11.4879C13.9949 11.4879 14.8349 10.6479 14.8349 9.62789C14.8349 8.60789 13.9949 7.76789 12.9649 7.76789C11.9349 7.76789 11.0949 8.60789 11.0949 9.62789C11.0949 10.6479 11.9349 11.4879 12.9649 11.4879ZM12.9649 8.50789C13.5849 8.50789 14.0849 9.00789 14.0849 9.62789C14.0849 10.2479 13.5849 10.7479 12.9649 10.7479C12.3449 10.7479 11.8449 10.2479 11.8449 9.62789C11.8449 9.00789 12.3449 8.50789 12.9649 8.50789Z"/>
</mask>
<path d="M18.8049 15.8179C18.9249 15.4079 18.9649 14.9379 18.8749 14.5379C18.7849 14.1479 18.9649 13.7279 19.3249 13.4979C19.6549 13.2779 19.9349 12.9879 20.1349 12.6279C20.3249 12.2879 20.4249 11.8879 20.4249 11.4879C20.4249 11.0879 20.3249 10.6879 20.1349 10.3479C19.9349 9.98789 19.6649 9.68789 19.3249 9.47789C18.9649 9.24789 18.7849 8.82789 18.8749 8.43789C18.9649 8.03789 18.9549 7.62789 18.8349 7.21789C18.6149 6.44789 17.9949 5.83789 17.2349 5.61789C16.8249 5.49789 16.4149 5.48789 16.0149 5.57789C15.6249 5.66789 15.2049 5.48789 14.9749 5.12789C14.7549 4.79789 14.4649 4.51789 14.1049 4.31789C13.4049 3.92789 12.5349 3.92789 11.8349 4.31789C11.4749 4.51789 11.1749 4.78789 10.9549 5.12789C10.7249 5.48789 10.3049 5.66789 9.91488 5.57789C9.51488 5.48789 9.10488 5.49789 8.69488 5.61789C7.92488 5.83789 7.31488 6.44789 7.09488 7.21789C6.97488 7.62789 6.96488 8.03789 7.05488 8.43789C7.14488 8.82789 6.96488 9.24789 6.60488 9.47789C6.26488 9.69789 5.99488 9.98789 5.79488 10.3479C5.60488 10.6879 5.50488 11.0879 5.50488 11.4879C5.50488 11.8879 5.60488 12.2879 5.79488 12.6279C5.99488 12.9879 6.26488 13.2879 6.60488 13.4979C6.96488 13.7279 7.14488 14.1479 7.05488 14.5379C6.96488 14.9379 7.00488 15.4079 7.12488 15.8179L4.00488 18.9379H6.99488V21.9279L11.0249 17.9079C11.2349 18.2079 11.5049 18.4579 11.8349 18.6479C12.1849 18.8379 12.5749 18.9379 12.9649 18.9379C13.3549 18.9379 13.7449 18.8379 14.0949 18.6479C14.4349 18.4579 14.7049 18.2079 14.9149 17.9079L18.9449 21.9279V18.9379H21.9349L18.8049 15.8179ZM7.73488 20.1279V18.1879H5.80488L7.49488 16.4979C7.79488 16.8979 8.20488 17.2079 8.69488 17.3479C9.10488 17.4679 9.51488 17.4779 9.91488 17.3879C10.0949 17.3479 10.2749 17.3679 10.4349 17.4279L7.73488 20.1279ZM14.3449 17.4379C14.1949 17.6679 13.9949 17.8579 13.7349 17.9979C13.2649 18.2579 12.6649 18.2579 12.1949 17.9979C11.9349 17.8579 11.7349 17.6679 11.5849 17.4379C11.2549 16.9279 10.6949 16.6279 10.1149 16.6279C9.99488 16.6279 9.87488 16.6379 9.74488 16.6679C9.47488 16.7279 9.18488 16.7179 8.89488 16.6379C8.37488 16.4879 7.95488 16.0679 7.80488 15.5479C7.72488 15.2579 7.71488 14.9779 7.77488 14.7079C7.93488 14.0079 7.62488 13.2779 7.00488 12.8779C6.77488 12.7279 6.58488 12.5279 6.44488 12.2679C6.31488 12.0379 6.24488 11.7679 6.25488 11.4879C6.25488 11.2079 6.32488 10.9379 6.44488 10.7079C6.58488 10.4579 6.77488 10.2479 7.00488 10.0979C7.62488 9.69789 7.93488 8.96789 7.77488 8.26789C7.71488 7.99789 7.72488 7.70789 7.80488 7.42789C7.95488 6.91789 8.38488 6.48789 8.89488 6.33789C9.18488 6.25789 9.46488 6.24789 9.73488 6.30789C10.4349 6.46789 11.1749 6.15789 11.5749 5.53789C11.7249 5.30789 11.9249 5.11789 12.1849 4.97789C12.6549 4.71789 13.2549 4.71789 13.7249 4.97789C13.9849 5.11789 14.1849 5.30789 14.3349 5.53789C14.7349 6.15789 15.4749 6.46789 16.1749 6.30789C16.4449 6.24789 16.7349 6.25789 17.0149 6.33789C17.5349 6.48789 17.9549 6.90789 18.1049 7.42789C18.1849 7.71789 18.1949 7.99789 18.1349 8.26789C17.9749 8.96789 18.2849 9.69789 18.9049 10.0979C19.1349 10.2479 19.3249 10.4479 19.4649 10.7079C19.5949 10.9379 19.6649 11.2079 19.6549 11.4879C19.6549 11.7679 19.5849 12.0379 19.4649 12.2679C19.3249 12.5179 19.1349 12.7279 18.9049 12.8779C18.2849 13.2779 17.9749 14.0079 18.1349 14.7079C18.1949 14.9779 18.1849 15.2679 18.1049 15.5479C17.9549 16.0579 17.5249 16.4879 17.0149 16.6379C16.7249 16.7179 16.4449 16.7279 16.1749 16.6679C15.4749 16.5079 14.7349 16.8179 14.3349 17.4379H14.3449ZM18.1949 18.1979V20.1379L15.4949 17.4379C15.6649 17.3779 15.8349 17.3579 16.0149 17.3979C16.4149 17.4879 16.8249 17.4779 17.2349 17.3579C17.7249 17.2179 18.1449 16.9079 18.4449 16.5079L20.1349 18.1979H18.2049H18.1949ZM15.2149 15.2079V13.7179C15.2149 13.3079 14.8749 12.9679 14.4649 12.9679H11.4749C11.0649 12.9679 10.7249 13.2979 10.7249 13.7179V15.2079H9.97488V13.7179C9.97488 12.8979 10.6449 12.2279 11.4649 12.2279H14.4549C15.2749 12.2279 15.9449 12.8979 15.9449 13.7179V15.2079H15.1949H15.2149ZM12.9649 11.4879C13.9949 11.4879 14.8349 10.6479 14.8349 9.62789C14.8349 8.60789 13.9949 7.76789 12.9649 7.76789C11.9349 7.76789 11.0949 8.60789 11.0949 9.62789C11.0949 10.6479 11.9349 11.4879 12.9649 11.4879ZM12.9649 8.50789C13.5849 8.50789 14.0849 9.00789 14.0849 9.62789C14.0849 10.2479 13.5849 10.7479 12.9649 10.7479C12.3449 10.7479 11.8449 10.2479 11.8449 9.62789C11.8449 9.00789 12.3449 8.50789 12.9649 8.50789Z" fill="#191919"/>
<path d="M18.8049 15.8179C18.9249 15.4079 18.9649 14.9379 18.8749 14.5379C18.7849 14.1479 18.9649 13.7279 19.3249 13.4979C19.6549 13.2779 19.9349 12.9879 20.1349 12.6279C20.3249 12.2879 20.4249 11.8879 20.4249 11.4879C20.4249 11.0879 20.3249 10.6879 20.1349 10.3479C19.9349 9.98789 19.6649 9.68789 19.3249 9.47789C18.9649 9.24789 18.7849 8.82789 18.8749 8.43789C18.9649 8.03789 18.9549 7.62789 18.8349 7.21789C18.6149 6.44789 17.9949 5.83789 17.2349 5.61789C16.8249 5.49789 16.4149 5.48789 16.0149 5.57789C15.6249 5.66789 15.2049 5.48789 14.9749 5.12789C14.7549 4.79789 14.4649 4.51789 14.1049 4.31789C13.4049 3.92789 12.5349 3.92789 11.8349 4.31789C11.4749 4.51789 11.1749 4.78789 10.9549 5.12789C10.7249 5.48789 10.3049 5.66789 9.91488 5.57789C9.51488 5.48789 9.10488 5.49789 8.69488 5.61789C7.92488 5.83789 7.31488 6.44789 7.09488 7.21789C6.97488 7.62789 6.96488 8.03789 7.05488 8.43789C7.14488 8.82789 6.96488 9.24789 6.60488 9.47789C6.26488 9.69789 5.99488 9.98789 5.79488 10.3479C5.60488 10.6879 5.50488 11.0879 5.50488 11.4879C5.50488 11.8879 5.60488 12.2879 5.79488 12.6279C5.99488 12.9879 6.26488 13.2879 6.60488 13.4979C6.96488 13.7279 7.14488 14.1479 7.05488 14.5379C6.96488 14.9379 7.00488 15.4079 7.12488 15.8179L4.00488 18.9379H6.99488V21.9279L11.0249 17.9079C11.2349 18.2079 11.5049 18.4579 11.8349 18.6479C12.1849 18.8379 12.5749 18.9379 12.9649 18.9379C13.3549 18.9379 13.7449 18.8379 14.0949 18.6479C14.4349 18.4579 14.7049 18.2079 14.9149 17.9079L18.9449 21.9279V18.9379H21.9349L18.8049 15.8179ZM7.73488 20.1279V18.1879H5.80488L7.49488 16.4979C7.79488 16.8979 8.20488 17.2079 8.69488 17.3479C9.10488 17.4679 9.51488 17.4779 9.91488 17.3879C10.0949 17.3479 10.2749 17.3679 10.4349 17.4279L7.73488 20.1279ZM14.3449 17.4379C14.1949 17.6679 13.9949 17.8579 13.7349 17.9979C13.2649 18.2579 12.6649 18.2579 12.1949 17.9979C11.9349 17.8579 11.7349 17.6679 11.5849 17.4379C11.2549 16.9279 10.6949 16.6279 10.1149 16.6279C9.99488 16.6279 9.87488 16.6379 9.74488 16.6679C9.47488 16.7279 9.18488 16.7179 8.89488 16.6379C8.37488 16.4879 7.95488 16.0679 7.80488 15.5479C7.72488 15.2579 7.71488 14.9779 7.77488 14.7079C7.93488 14.0079 7.62488 13.2779 7.00488 12.8779C6.77488 12.7279 6.58488 12.5279 6.44488 12.2679C6.31488 12.0379 6.24488 11.7679 6.25488 11.4879C6.25488 11.2079 6.32488 10.9379 6.44488 10.7079C6.58488 10.4579 6.77488 10.2479 7.00488 10.0979C7.62488 9.69789 7.93488 8.96789 7.77488 8.26789C7.71488 7.99789 7.72488 7.70789 7.80488 7.42789C7.95488 6.91789 8.38488 6.48789 8.89488 6.33789C9.18488 6.25789 9.46488 6.24789 9.73488 6.30789C10.4349 6.46789 11.1749 6.15789 11.5749 5.53789C11.7249 5.30789 11.9249 5.11789 12.1849 4.97789C12.6549 4.71789 13.2549 4.71789 13.7249 4.97789C13.9849 5.11789 14.1849 5.30789 14.3349 5.53789C14.7349 6.15789 15.4749 6.46789 16.1749 6.30789C16.4449 6.24789 16.7349 6.25789 17.0149 6.33789C17.5349 6.48789 17.9549 6.90789 18.1049 7.42789C18.1849 7.71789 18.1949 7.99789 18.1349 8.26789C17.9749 8.96789 18.2849 9.69789 18.9049 10.0979C19.1349 10.2479 19.3249 10.4479 19.4649 10.7079C19.5949 10.9379 19.6649 11.2079 19.6549 11.4879C19.6549 11.7679 19.5849 12.0379 19.4649 12.2679C19.3249 12.5179 19.1349 12.7279 18.9049 12.8779C18.2849 13.2779 17.9749 14.0079 18.1349 14.7079C18.1949 14.9779 18.1849 15.2679 18.1049 15.5479C17.9549 16.0579 17.5249 16.4879 17.0149 16.6379C16.7249 16.7179 16.4449 16.7279 16.1749 16.6679C15.4749 16.5079 14.7349 16.8179 14.3349 17.4379H14.3449ZM18.1949 18.1979V20.1379L15.4949 17.4379C15.6649 17.3779 15.8349 17.3579 16.0149 17.3979C16.4149 17.4879 16.8249 17.4779 17.2349 17.3579C17.7249 17.2179 18.1449 16.9079 18.4449 16.5079L20.1349 18.1979H18.2049H18.1949ZM15.2149 15.2079V13.7179C15.2149 13.3079 14.8749 12.9679 14.4649 12.9679H11.4749C11.0649 12.9679 10.7249 13.2979 10.7249 13.7179V15.2079H9.97488V13.7179C9.97488 12.8979 10.6449 12.2279 11.4649 12.2279H14.4549C15.2749 12.2279 15.9449 12.8979 15.9449 13.7179V15.2079H15.1949H15.2149ZM12.9649 11.4879C13.9949 11.4879 14.8349 10.6479 14.8349 9.62789C14.8349 8.60789 13.9949 7.76789 12.9649 7.76789C11.9349 7.76789 11.0949 8.60789 11.0949 9.62789C11.0949 10.6479 11.9349 11.4879 12.9649 11.4879ZM12.9649 8.50789C13.5849 8.50789 14.0849 9.00789 14.0849 9.62789C14.0849 10.2479 13.5849 10.7479 12.9649 10.7479C12.3449 10.7479 11.8449 10.2479 11.8449 9.62789C11.8449 9.00789 12.3449 8.50789 12.9649 8.50789Z" stroke="#191919" stroke-width="0.6" mask="url(#path-1-outside-1_16475_262863)"/>
</svg>
