<svg width="25" height="25" viewBox="0 0 25 25" fill="none" xmlns="http://www.w3.org/2000/svg">
<path d="M16.8446 12.6071V12.4571H16.6946H13.4846V9.25711V9.10711H13.3346H12.5846H12.4346V9.25711V12.4571H9.22465H9.07465V12.6071V13.3571V13.5071H9.22465H12.4346V16.7071V16.8571H12.5846H13.3346H13.4846V16.7071V13.5071H16.6946H16.8446V13.3571V12.6071ZM22.0646 21.9171V6.04711H22.0746V5.89711C22.0746 4.79374 21.167 3.88711 20.0546 3.88711H5.88465C4.77233 3.88711 3.86465 4.79374 3.86465 5.89711V21.9171V22.0671H4.01465H21.9146H22.0646V21.9171ZM20.0546 4.92711C20.5918 4.92711 21.0246 5.35995 21.0246 5.89711V21.0171H4.91465V5.89711C4.91465 5.35995 5.34749 4.92711 5.88465 4.92711H20.0546Z" fill="#191919" stroke="#191919" stroke-width="0.3"/>
</svg>
