<svg width="25" height="25" viewBox="0 0 25 25" fill="none" xmlns="http://www.w3.org/2000/svg">
<path d="M12.9698 10.0008C10.4998 10.0008 8.49978 12.0008 8.49978 14.4608C8.49978 16.9208 10.4998 18.9208 12.9698 18.9208C15.4398 18.9208 17.4398 16.9208 17.4398 14.4608C17.4398 12.0008 15.4398 10.0008 12.9698 10.0008ZM12.9698 18.1808C10.9198 18.1808 9.23979 16.5108 9.23979 14.4608C9.23979 12.4108 10.9098 10.7408 12.9698 10.7408C15.0298 10.7408 16.6998 12.4108 16.6998 14.4608C16.6998 16.5108 15.0298 18.1808 12.9698 18.1808ZM18.5598 7.02078H17.6298L15.9498 4.79078C15.5998 4.32078 15.0398 4.05078 14.4598 4.05078H11.4798C10.8998 4.05078 10.3398 4.33078 9.98979 4.79078L8.30979 7.02078H7.37979C5.52979 7.02078 4.02979 8.52078 4.02979 10.3708V18.5508C4.02979 20.3908 5.52979 21.9008 7.37979 21.9008H18.5598C20.4098 21.9008 21.9098 20.4008 21.9098 18.5508V10.3708C21.9098 8.53078 20.4098 7.02078 18.5598 7.02078ZM10.5898 5.24078C10.7998 4.96078 11.1298 4.79078 11.4798 4.79078H14.4598C14.8098 4.79078 15.1398 4.96078 15.3498 5.24078L16.6898 7.02078H9.23979L10.5798 5.24078H10.5898ZM21.1698 18.5508C21.1698 19.9908 19.9998 21.1508 18.5598 21.1508H7.37979C5.93979 21.1508 4.76979 19.9808 4.76979 18.5508V10.3708C4.76979 8.93078 5.93979 7.77078 7.37979 7.77078H18.5598C19.9998 7.77078 21.1698 8.94078 21.1698 10.3708V18.5508Z" fill="#191919"/>
</svg>
