<svg width="25" height="25" viewBox="0 0 25 25" fill="none" xmlns="http://www.w3.org/2000/svg">
<path d="M10.4495 13.4215C13.0395 13.4215 15.1495 11.3115 15.1495 8.72148C15.1495 6.13148 13.0395 4.02148 10.4495 4.02148C7.85951 4.02148 5.74951 6.13148 5.74951 8.72148C5.74951 11.3115 7.85951 13.4215 10.4495 13.4215ZM10.4495 4.80148C12.6095 4.80148 14.3695 6.56148 14.3695 8.72148C14.3695 10.8815 12.6095 12.6415 10.4495 12.6415C8.28951 12.6415 6.52951 10.8815 6.52951 8.72148C6.52951 6.56148 8.28951 4.80148 10.4495 4.80148Z" fill="#191919"/>
<path d="M19.3596 12.7206V10.1406H18.4596V12.7206H15.8696V13.6206H18.4596V16.2106H19.3596V13.6206H21.9396V12.7206H19.3596Z" fill="#191919"/>
<path d="M13.5495 15.0703H7.62951C5.60951 15.0703 3.99951 16.7603 3.99951 18.8803V21.9303H4.79951V18.8803C4.82951 17.1903 5.95951 15.8303 7.62951 15.8103H13.5495C14.9295 15.7303 16.3495 17.0103 16.3795 18.8803V21.9303H17.1795V18.8803C17.1795 16.7603 15.5695 15.0703 13.5495 15.0703Z" fill="#191919"/>
</svg>
