<svg width="25" height="25" viewBox="0 0 25 25" fill="none" xmlns="http://www.w3.org/2000/svg">
<path d="M7.40469 17.5522C7.40469 20.615 9.90184 23.1122 12.9647 23.1122H12.9747C16.0375 23.1122 18.5347 20.615 18.5347 17.5522V5.90219C18.5347 5.57934 18.2875 5.33219 17.9647 5.33219C17.6395 5.33219 17.3947 5.59169 17.3947 5.90219V17.5522C17.3947 19.9993 15.4118 21.9822 12.9647 21.9822C10.5177 21.9822 8.53469 19.9896 8.53469 17.5522V6.73219C8.53469 5.2157 9.78686 3.97219 11.3047 3.97219C12.8222 3.97219 14.0647 5.20537 14.0647 6.73219V17.5522C14.0647 18.1593 13.5718 18.6522 12.9647 18.6522C12.3575 18.6522 11.8647 18.1593 11.8647 17.5522V7.57219C11.8647 7.24935 11.6175 7.00219 11.2947 7.00219C10.9695 7.00219 10.7247 7.26169 10.7247 7.57219V17.5522C10.7247 18.785 11.7218 19.7822 12.9547 19.7822C14.1875 19.7822 15.1847 18.785 15.1847 17.5522V6.73219C15.1847 4.58934 13.4375 2.84219 11.2947 2.84219C9.15184 2.84219 7.40469 4.58934 7.40469 6.73219V17.5522Z" fill="#191919" stroke="#191919" stroke-width="0.3"/>
</svg>
