<svg width="25" height="25" viewBox="0 0 25 25" fill="none" xmlns="http://www.w3.org/2000/svg">
<path d="M12.9647 22.9622C9.98469 22.9622 7.55469 20.5322 7.55469 17.5522V6.73219C7.55469 4.67219 9.23469 2.99219 11.2947 2.99219C13.3547 2.99219 15.0347 4.67219 15.0347 6.73219V17.5522C15.0347 18.7022 14.1047 19.6322 12.9547 19.6322C11.8047 19.6322 10.8747 18.7022 10.8747 17.5522V7.57219C10.8747 7.34219 11.0547 7.15219 11.2947 7.15219C11.5347 7.15219 11.7147 7.33219 11.7147 7.57219V17.5522C11.7147 18.2422 12.2747 18.8022 12.9647 18.8022C13.6547 18.8022 14.2147 18.2422 14.2147 17.5522V6.73219C14.2147 5.12219 12.9047 3.82219 11.3047 3.82219C9.70469 3.82219 8.38469 5.13219 8.38469 6.73219V17.5522C8.38469 20.0722 10.4347 22.1322 12.9647 22.1322C15.4947 22.1322 17.5447 20.0822 17.5447 17.5522V5.90219C17.5447 5.67219 17.7247 5.48219 17.9647 5.48219C18.2047 5.48219 18.3847 5.66219 18.3847 5.90219V17.5522C18.3847 20.5322 15.9547 22.9622 12.9747 22.9622H12.9647Z" fill="#191919"/>
</svg>
