<svg width="25" height="25" viewBox="0 0 25 25" fill="none" xmlns="http://www.w3.org/2000/svg">
<path d="M16.7345 14.0316V13.8816H16.5845H13.3745V10.6816V10.5316H13.2245H12.4845H12.3345V10.6816V13.8816H9.12451H8.97451V14.0316V14.7716V14.9216H9.12451H12.3345V18.1316V18.2816H12.4845H13.2245H13.3745V18.1316V14.9216H16.5845H16.7345V14.7716V14.0316Z" fill="#191919" stroke="#191919" stroke-width="0.3"/>
<path d="M15.2305 3.94453L15.1866 3.90078H15.1246H6.98463C5.80179 3.90078 4.84463 4.85794 4.84463 6.04078V21.9008V22.0508H4.99463H20.9446H21.0946V21.9008V9.85078V9.7885L21.0505 9.74453L15.2305 3.94453ZM14.5746 10.5708H20.0046V20.9508H5.94463V6.04078C5.94463 5.46525 6.41583 5.00078 6.99463 5.00078H14.4246V10.4208V10.5708H14.5746ZM15.5146 9.47078V5.77231L19.2219 9.47078H15.5146Z" fill="#191919" stroke="#191919" stroke-width="0.3"/>
</svg>
