<svg width="25" height="25" viewBox="0 0 25 25" fill="none" xmlns="http://www.w3.org/2000/svg">
<path d="M21.0849 18.7712V18.6213H20.9349H19.2449V5.10125C19.2449 3.87841 18.2477 2.88125 17.0249 2.88125H7.07488C5.85204 2.88125 4.85488 3.87841 4.85488 5.10125V20.4312C4.85488 21.8841 6.04204 23.0712 7.49488 23.0712H18.4449C19.8977 23.0712 21.0849 21.8841 21.0849 20.4312V18.7712ZM18.1549 18.6313H9.19488H9.04488V18.7812V20.4412C9.04488 21.269 8.32148 22.0013 7.48488 22.0013C6.64773 22.0013 5.92488 21.2784 5.92488 20.4412V5.10125C5.92488 4.49484 6.46698 3.96125 7.06488 3.96125H17.0149C17.6213 3.96125 18.1549 4.50335 18.1549 5.10125V18.6313ZM12.0149 5.54125H11.6288L11.8032 5.70083L9.62988 7.87412L8.31095 6.55518L8.20947 6.45371L8.10361 6.5506L7.51361 7.0906L7.39795 7.19645L7.50882 7.30732L8.87882 8.67732L8.87877 8.67736L8.88189 8.6803C9.08909 8.876 9.35571 8.98125 9.62488 8.98125C9.8902 8.98125 10.1598 8.88845 10.3709 8.67732L12.7109 6.33732L12.8218 6.22645L12.7062 6.1206L12.237 5.69123L12.387 5.54125H12.0249H12.0149ZM12.0149 10.5113H11.6288L11.8032 10.6708L9.62988 12.8441L8.31095 11.5252L8.20947 11.4237L8.10361 11.5206L7.51361 12.0606L7.39795 12.1665L7.50882 12.2773L8.87882 13.6473L8.87877 13.6474L8.88189 13.6503C9.08909 13.846 9.35571 13.9513 9.62488 13.9513C9.8902 13.9513 10.1598 13.8585 10.3709 13.6473L12.7109 11.3073L12.8218 11.1965L12.7062 11.0906L12.237 10.6612L12.387 10.5113H12.0249H12.0149ZM20.0049 19.7113V20.3913C20.0049 21.2305 19.3204 22.0013 18.4949 22.0013H9.60057C9.89946 21.5603 10.0749 21.0041 10.0749 20.4412V19.7113H20.0049Z" fill="#191919" stroke="#191919" stroke-width="0.3"/>
</svg>
