<svg width="25" height="25" viewBox="0 0 25 25" fill="none" xmlns="http://www.w3.org/2000/svg">
<path d="M19.0949 5.10125C19.0949 3.96125 18.1649 3.03125 17.0249 3.03125H7.07488C5.93488 3.03125 5.00488 3.96125 5.00488 5.10125V20.4312C5.00488 21.8013 6.12488 22.9212 7.49488 22.9212H18.4449C19.8149 22.9212 20.9349 21.8013 20.9349 20.4312V18.7712H19.0949V5.10125ZM9.19488 20.4412C9.19488 21.3512 8.40488 22.1513 7.48488 22.1513C6.56488 22.1513 5.77488 21.3612 5.77488 20.4412V5.10125C5.77488 4.41125 6.38488 3.81125 7.06488 3.81125H17.0149C17.7049 3.81125 18.3049 4.42125 18.3049 5.10125V18.7812H9.19488V20.4412ZM20.1549 19.5613V20.3913C20.1549 21.3013 19.4149 22.1513 18.4949 22.1513H9.29488C9.68488 21.7113 9.92488 21.0812 9.92488 20.4412V19.5613H20.1449H20.1549ZM12.0149 5.69125L12.6049 6.23125L10.2649 8.57125C10.0849 8.75125 9.85488 8.83125 9.62488 8.83125C9.39488 8.83125 9.16488 8.74125 8.98488 8.57125L7.61488 7.20125L8.20488 6.66125L9.57488 8.03125C9.57488 8.03125 9.65488 8.06125 9.68488 8.03125L12.0249 5.69125H12.0149ZM12.0149 10.6613L12.6049 11.2013L10.2649 13.5413C10.0849 13.7213 9.85488 13.8013 9.62488 13.8013C9.39488 13.8013 9.16488 13.7113 8.98488 13.5413L7.61488 12.1713L8.20488 11.6313L9.57488 13.0013C9.57488 13.0013 9.65488 13.0312 9.68488 13.0013L12.0249 10.6613H12.0149Z" fill="#191919"/>
</svg>
