<svg width="25" height="25" viewBox="0 0 25 25" fill="none" xmlns="http://www.w3.org/2000/svg">
<path d="M17.0795 12.2259C14.3995 12.2259 12.2195 14.4059 12.2195 17.0859C12.2195 19.7659 14.3995 21.9459 17.0795 21.9459C19.7595 21.9459 21.9395 19.7659 21.9395 17.0859C21.9395 14.4059 19.7595 12.2259 17.0795 12.2259ZM17.0795 21.1959C14.8095 21.1959 12.9695 19.3559 12.9695 17.0859C12.9695 14.8159 14.8095 12.9759 17.0795 12.9759C19.3495 12.9759 21.1895 14.8159 21.1895 17.0859C21.1895 19.3559 19.3495 21.1959 17.0795 21.1959ZM19.2795 15.6259L19.7995 16.1559L17.2195 18.6959C17.0595 18.8559 16.8395 18.9459 16.6095 18.9459C16.3795 18.9459 16.1595 18.8559 15.9895 18.6859L14.6095 17.3459L15.1295 16.8059L16.5195 18.1559C16.5895 18.2259 16.6395 18.2259 16.6995 18.1559L19.2895 15.6159L19.2795 15.6259ZM12.9895 12.2259H6.98951V11.4759H14.0895C13.6995 11.6859 13.3295 11.9359 12.9895 12.2259ZM12.9895 21.9459H3.99951V5.87586C3.99951 4.84586 4.83951 4.00586 5.86951 4.00586H15.5895C16.6195 4.00586 17.4595 4.84586 17.4595 5.87586V10.7459C17.3395 10.7459 17.2095 10.7359 17.0895 10.7359C16.9695 10.7359 16.8395 10.7359 16.7195 10.7459V5.87586C16.7195 5.25586 16.2195 4.75586 15.5995 4.75586H5.86951C5.24951 4.75586 4.74951 5.25586 4.74951 5.87586V21.1959H12.2395C12.4695 21.4659 12.7195 21.7159 12.9895 21.9459ZM14.4595 8.48586H6.98951V7.73586H14.4595V8.48586ZM6.98951 15.2159H10.7295V15.9659H6.98951V15.2159Z" fill="#191919"/>
</svg>
