<svg width="25" height="25" viewBox="0 0 25 25" fill="none" xmlns="http://www.w3.org/2000/svg">
<path d="M19.2901 15.6154L19.1845 15.5088L19.1834 15.5098L16.6094 18.0341L15.234 16.6983L15.126 16.5933L15.0215 16.7018L14.5015 17.2418L14.3978 17.3494L14.505 17.4535L15.8843 18.7928C16.082 18.99 16.3397 19.0959 16.6095 19.0959C16.8782 19.0959 17.1364 18.9908 17.3251 18.8024C17.3253 18.8022 17.3254 18.8021 17.3256 18.8019L19.9047 16.2628L20.0115 16.1577L19.9066 16.0508L19.3866 15.5208L19.2901 15.6154ZM12.9895 12.3759H13.0448L13.0869 12.34C13.4184 12.0572 13.7795 11.8132 14.1606 11.6079L14.0895 11.3259H6.98951H6.83951V11.4759V12.2259V12.3759H6.98951H12.9895ZM12.9895 22.0959H13.3969L13.0868 21.8317C12.8229 21.6069 12.5785 21.3625 12.3537 21.0986L12.3088 21.0459H12.2395H4.89951V5.87586C4.89951 5.3387 5.33235 4.90586 5.86951 4.90586H15.5995C16.1367 4.90586 16.5695 5.3387 16.5695 5.87586V10.7459V10.9089L16.732 10.8953C16.8446 10.886 16.9682 10.8859 17.0895 10.8859C17.146 10.8859 17.2054 10.8882 17.2685 10.8907L17.27 10.8908C17.3315 10.8933 17.3965 10.8959 17.4595 10.8959H17.6095V10.7459V5.87586C17.6095 4.76302 16.7024 3.85586 15.5895 3.85586H5.86951C4.75667 3.85586 3.84951 4.76302 3.84951 5.87586V21.9459V22.0959H3.99951H12.9895ZM14.4595 8.63586H14.6095V8.48586V7.73586V7.58586H14.4595H6.98951H6.83951V7.73586V8.48586V8.63586H6.98951H14.4595ZM6.98951 15.0659H6.83951V15.2159V15.9659V16.1159H6.98951H10.7295H10.8795V15.9659V15.2159V15.0659H10.7295H6.98951ZM17.0795 12.0759C14.3167 12.0759 12.0695 14.323 12.0695 17.0859C12.0695 19.8487 14.3167 22.0959 17.0795 22.0959C19.8424 22.0959 22.0895 19.8487 22.0895 17.0859C22.0895 14.323 19.8424 12.0759 17.0795 12.0759ZM17.0795 21.0459C14.8924 21.0459 13.1195 19.273 13.1195 17.0859C13.1195 14.8987 14.8924 13.1259 17.0795 13.1259C19.2667 13.1259 21.0395 14.8987 21.0395 17.0859C21.0395 19.273 19.2667 21.0459 17.0795 21.0459Z" fill="#191919" stroke="#191919" stroke-width="0.3"/>
</svg>
