<svg width="25" height="25" viewBox="0 0 25 25" fill="none" xmlns="http://www.w3.org/2000/svg">
<path d="M19.5049 11.6517V8.18172C19.5049 7.06172 18.5949 6.14172 17.4649 6.14172H11.6649L8.4049 4.51172H6.0549C4.9349 4.51172 4.0249 5.42172 4.0249 6.55172V21.4417H18.5749L21.9149 11.6617H19.5049V11.6517ZM4.8449 20.6217V6.55172C4.8449 5.88172 5.3949 5.33172 6.0649 5.33172H8.2249L11.4849 6.96172H17.4749C18.1449 6.96172 18.6949 7.51172 18.6949 8.18172V11.6517H8.0049L5.1649 20.6217H4.8349H4.8449ZM17.9949 20.6217H6.0249L8.6049 12.4717H20.7849L18.0049 20.6217H17.9949Z" fill="#191919"/>
</svg>
