<svg width="25" height="25" viewBox="0 0 25 25" fill="none" xmlns="http://www.w3.org/2000/svg">
<path d="M21.9149 11.5117H19.6549V8.18172C19.6549 6.97936 18.6782 5.99172 17.4649 5.99172H11.7003L8.47198 4.37755L8.44031 4.36172H8.4049H6.0549C4.85158 4.36172 3.8749 5.33936 3.8749 6.55172V21.4417V21.5917H4.0249H18.5749H18.6822L18.7169 21.4902L22.0569 11.7102L22.1246 11.5117H21.9149ZM6.0649 5.48172H8.18949L11.4178 7.09588L11.4495 7.11172H11.4849H17.4749C18.0621 7.11172 18.5449 7.59456 18.5449 8.18172V11.5017H8.0049H7.89506L7.8619 11.6064L5.05506 20.4717H4.9949V6.55172C4.9949 5.96456 5.47774 5.48172 6.0649 5.48172ZM20.5753 12.6217L17.8976 20.4717H6.22972L8.71475 12.6217H20.5753Z" fill="#191919" stroke="#191919" stroke-width="0.3"/>
</svg>
