<svg width="25" height="25" viewBox="0 0 25 25" fill="none" xmlns="http://www.w3.org/2000/svg">
<path d="M21.8266 12.477L21.8262 12.477L5.79855 12.5161L10.4728 7.8228L10.572 7.72322L10.4791 7.61777L9.9591 7.02777L9.85356 6.90803L9.7406 7.02079L4.3606 12.3908L4.3605 12.3909C4.24995 12.5014 4.15582 12.5959 4.08864 12.6796C4.02192 12.7628 3.96534 12.8547 3.95478 12.9623C3.94376 13.0747 3.9854 13.1737 4.04716 13.2647C4.10755 13.3536 4.19807 13.4506 4.3105 13.563L4.3106 13.5631L9.6906 18.9331L9.79848 19.0408L9.90442 18.9312L10.4844 18.3312L10.5876 18.2245L10.482 18.1202L5.86189 13.557H21.8366H21.9866V13.407V12.777V12.627V12.597H21.8366V12.477L21.8266 12.477Z" fill="#191919" stroke="#191919" stroke-width="0.3"/>
</svg>
