<svg width="25" height="25" viewBox="0 0 25 25" fill="none" xmlns="http://www.w3.org/2000/svg">
<path d="M3.94971 21.2271H21.9797V21.9771H3.94971V21.2271ZM21.9797 9.63711V10.7271H19.7297V18.2271H21.2297V18.9771H4.69971V18.2271H6.19971V10.7271H3.94971V9.63711C3.94971 8.77711 4.42971 8.00711 5.19971 7.62711L12.0497 4.20711C12.6197 3.89711 13.3197 3.89711 13.8997 4.20711L20.7397 7.61711C21.5097 7.99711 21.9897 8.76711 21.9897 9.62711L21.9797 9.63711ZM6.95971 18.2271H9.96971V10.7271H6.95971V18.2271ZM15.2197 10.7271H10.7097V18.2271H15.2197V10.7271ZM18.9797 10.7271H15.9697V18.2271H18.9797V10.7271ZM21.2297 9.63711C21.2297 9.06711 20.9097 8.54711 20.3997 8.29711L13.5497 4.87711C13.1797 4.67711 12.7497 4.67711 12.3897 4.87711L5.52971 8.29711C5.01971 8.55711 4.69971 9.06711 4.69971 9.63711V9.97711H21.2297V9.63711Z" fill="#191919"/>
</svg>
