<svg width="25" height="25" viewBox="0 0 25 25" fill="none" xmlns="http://www.w3.org/2000/svg">
<path d="M3.94971 21.0771H3.79971V21.2271V21.9771V22.1271H3.94971H21.9797H22.1297V21.9771V21.2271V21.0771H21.9797H3.94971ZM21.9797 10.8771H22.1297V10.7271V9.69924L22.1397 9.68924V9.62711C22.1397 8.71004 21.6273 7.88806 20.8065 7.48278C20.8063 7.48272 20.8062 7.48266 20.8061 7.4826L13.9685 4.0738C13.3459 3.74184 12.5944 3.74117 11.9804 4.07406L5.13332 7.4926C5.13323 7.49265 5.13313 7.49269 5.13304 7.49274C4.3121 7.89801 3.79971 8.72001 3.79971 9.63711V10.7271V10.8771H3.94971H6.04971V18.0771H4.69971H4.54971V18.2271V18.9771V19.1271H4.69971H21.2297H21.3797V18.9771V18.2271V18.0771H21.2297H19.8797V10.8771H21.9797ZM20.3327 8.43132L20.3337 8.4318C20.7915 8.65621 21.0797 9.12346 21.0797 9.63711V9.82711H4.84971V9.63711C4.84971 9.12523 5.13648 8.6662 5.59728 8.43103C5.59746 8.43094 5.59765 8.43084 5.59784 8.43075L12.4566 5.01135L12.4567 5.01149L12.4626 5.00823C12.7766 4.83374 13.1523 4.83279 13.4784 5.00907L13.4783 5.00914L13.4827 5.01131L20.3327 8.43132ZM9.81971 10.8771V18.0771H7.10971V10.8771H9.81971ZM10.8597 10.8771H15.0697V18.0771H10.8597V10.8771ZM16.1197 18.0771V10.8771H18.8297V18.0771H16.1197Z" fill="#191919" stroke="#191919" stroke-width="0.3"/>
</svg>
