<svg width="25" height="25" viewBox="0 0 25 25" fill="none" xmlns="http://www.w3.org/2000/svg">
<mask id="mask0_16546_40271" style="mask-type:luminance" maskUnits="userSpaceOnUse" x="3" y="2" width="19" height="22">
<path d="M15.3911 2.7032L13.8411 2.8232C13.8411 2.8232 13.3711 2.6632 12.3511 2.6932H9.52106L4.90106 7.2932L4.51106 12.1132L4.01106 16.5532C4.01106 16.5532 3.93106 17.1332 3.99106 17.4332L4.02106 18.3332L4.93106 19.6132L8.31106 19.5932L9.14106 22.2532L11.7311 23.2632L14.1911 23.1332L16.0311 21.9432L16.8411 19.5632L19.8511 19.6032L21.4511 18.4332L21.9711 16.2732L20.6711 11.5432L19.3511 6.6632L16.2611 3.1032L15.3911 2.7032Z" fill="white"/>
</mask>
<g mask="url(#mask0_16546_40271)">
<path d="M20.8909 16.5236L19.2909 8.09359C18.5409 5.37359 16.5509 3.34359 13.8409 2.82359C12.4809 1.60359 10.9209 0.933594 9.10088 0.933594C5.91088 0.933594 2.66088 3.31359 1.91088 6.73359L0.23088 14.8636C0.0908799 15.4836 0.23088 16.1336 0.64088 16.6436C1.04088 17.1436 1.90088 17.4336 2.54088 17.4336H4.00088C4.06088 17.7836 4.19088 18.1036 4.42088 18.3936C4.82088 18.8936 5.42088 19.1836 6.06088 19.1836H9.06088C9.06088 21.1136 10.5209 22.5236 12.4609 22.5236C14.4009 22.5236 15.8609 21.1136 15.8609 19.1836H18.8609C19.5009 19.1836 20.1009 18.9036 20.5009 18.4036L20.5409 18.3536C20.9409 17.8236 21.0709 17.1536 20.9009 16.5436L20.8909 16.5236ZM4.01088 16.5536H2.55088C2.17088 16.5536 1.73088 16.3836 1.49088 16.0936C1.25088 15.7936 1.01088 15.4236 1.10088 15.0436L2.87088 6.91359C3.54088 3.90359 6.04088 1.80359 9.11088 1.80359C10.2709 1.80359 11.3709 2.12359 12.3509 2.68359C8.98088 2.80359 6.26088 5.15359 5.52088 8.48359L4.01088 16.5536ZM12.4609 21.6436C11.0109 21.6436 9.94088 20.6236 9.94088 19.1736H14.9909C14.9909 20.6136 13.9109 21.6436 12.4609 21.6436ZM19.8609 17.7836L19.8309 17.8136C19.5909 18.1236 19.2409 18.3036 18.8609 18.3036H6.06088C5.68088 18.3036 5.34088 18.1336 5.10088 17.8436C4.86088 17.5536 4.78088 17.1736 4.86088 16.7936L6.38088 8.66359C7.05088 5.65359 9.55088 3.55359 12.6109 3.55359C12.9509 3.55359 13.1209 3.59359 13.4509 3.64359C15.9209 4.03359 17.7409 5.85359 18.4209 8.30359L20.0209 16.7336C20.1209 17.1036 20.0609 17.4736 19.8409 17.7836H19.8609Z" fill="#191919"/>
</g>
</svg>
