<svg width="25" height="25" viewBox="0 0 25 25" fill="none" xmlns="http://www.w3.org/2000/svg">
<g clip-path="url(#clip0_16475_262845)">
<path d="M18.9652 7.47781L18.9646 7.47792L20.696 16.6722C20.8471 17.2531 20.724 17.8789 20.3425 18.3672L20.3427 18.367L20.2243 18.2749L20.3425 18.3673L18.9652 7.47781ZM18.9652 7.47781L18.9614 7.46464M18.9652 7.47781L18.9614 7.46464M12.5027 1.62963L12.6527 1.6281L12.6527 1.631L12.5027 1.62963ZM12.5027 1.62963L12.5013 1.77962L12.5042 1.77965L12.5027 1.62963ZM18.9614 7.46464C18.2425 4.9378 16.0072 3.13253 13.4362 2.89819L13.4234 1.63518C13.4226 1.55347 13.3565 1.48745 13.2748 1.4867L12.5041 1.47963C12.4638 1.47926 12.425 1.49511 12.3966 1.52361C12.3681 1.55212 12.3523 1.59087 12.3527 1.63116L12.3654 2.87563C9.66159 3.09223 7.43161 5.00833 6.8547 7.70768L6.85461 7.70766M18.9614 7.46464L6.85461 7.70766M6.85461 7.70766L6.85369 7.71286L6.85461 7.70766ZM18.7595 19.1391L18.7606 19.1391V18.9891L18.7585 19.1391C18.7588 19.1391 18.7592 19.1391 18.7595 19.1391ZM17.4115 19.1391C17.4167 19.0928 17.4211 19.0464 17.4244 19L17.2748 18.9891L17.2748 19.1391H17.4115ZM17.9234 7.71684C17.9268 7.72848 17.9315 7.73951 17.9374 7.74978L19.6526 16.8884L19.6522 16.8884L19.6549 16.8986C19.7287 17.1815 19.6724 17.4792 19.4981 17.7016L19.4981 17.7015L19.4954 17.7051C19.3283 17.932 19.0569 18.0611 18.7611 18.0613C18.7609 18.0613 18.7608 18.0613 18.7606 18.0613L7.26413 17.9764H7.26302C6.9846 17.9764 6.72196 17.8495 6.53679 17.6273C6.35358 17.4075 6.28031 17.1279 6.33554 16.8394L6.33556 16.8394L6.33594 16.8372L7.90524 7.93038C8.11869 6.93444 8.59933 6.07038 9.2712 5.39851C10.2043 4.46537 11.4951 3.91537 12.9188 3.92216C15.2352 3.9429 17.2913 5.51791 17.9234 7.71684ZM9.02532 18.982L8.87593 18.9956C8.8799 19.0392 8.88491 19.083 8.89099 19.1268L9.01933 19.1319L9.02532 18.982ZM7.25198 19.0613C7.25267 19.0613 7.25336 19.0613 7.25405 19.0613L7.25595 18.9113L7.24996 19.0612L7.25198 19.0613ZM5.41747 16.6769L5.27024 16.6482C5.27016 16.6486 5.27007 16.649 5.26999 16.6494L5.26977 16.6507L5.41747 16.6769ZM11.0998 20.2978C10.7397 19.9369 10.4412 19.5711 10.3395 19.132L15.9236 19.132C15.82 19.626 15.4764 20.0847 15.0121 20.4344C14.4972 20.8221 13.8552 21.059 13.2861 21.059C13.0371 21.059 12.0576 21.0485 11.0998 20.2978Z" fill="#191919" stroke="#191919" stroke-width="0.3" stroke-linejoin="round"/>
</g>
<defs>
<clipPath id="clip0_16475_262845">
<rect width="24" height="24" fill="white" transform="translate(0.969727 0.976562)"/>
</clipPath>
</defs>
</svg>
