<svg width="25" height="25" viewBox="0 0 25 25" fill="none" xmlns="http://www.w3.org/2000/svg">
<path d="M6.26955 12.9769H12.2196V9.99687H6.26955V12.9769ZM7.01955 10.7469H11.4896V12.2369H7.01955V10.7469ZM17.0596 4.04688H9.61955C7.47955 4.04688 5.71955 5.70688 5.54955 7.80687C4.68955 7.97688 4.03955 8.72687 4.03955 9.62687V21.9069H14.4596V9.62687C14.4596 8.78687 13.8896 8.07687 13.1196 7.84687C13.5896 6.05687 15.1796 4.78688 17.0596 4.78688C19.3196 4.78688 21.1496 6.62687 21.1496 8.87687V16.5569L19.5596 15.5869L17.4296 16.9269L15.9396 15.9869V16.8669L17.4296 17.8069L19.5696 16.4669L21.8996 17.8769V8.88688C21.8996 6.21688 19.7296 4.04688 17.0596 4.04688ZM13.7096 9.62687V21.1669H4.77955V9.62687C4.77955 9.00688 5.27955 8.50688 5.89955 8.50688H12.5996C13.2196 8.50688 13.7196 9.00688 13.7196 9.62687H13.7096ZM12.3696 7.76688H6.30955C6.49955 6.09688 7.89955 4.78688 9.61955 4.78688H14.4896C13.4396 5.44688 12.6696 6.49688 12.3696 7.76688ZM7.01955 14.4669H8.50955V15.2069H7.01955V14.4669ZM9.98955 14.4669H11.4796V15.2069H9.98955V14.4669ZM7.01955 16.6969H8.50955V17.4369H7.01955V16.6969ZM9.98955 16.6969H11.4796V17.4369H9.98955V16.6969ZM7.01955 18.9269H8.50955V19.6669H7.01955V18.9269ZM9.98955 18.9269H11.4796V19.6669H9.98955V18.9269Z" fill="#191919"/>
</svg>
