<svg width="25" height="25" viewBox="0 0 25 25" fill="none" xmlns="http://www.w3.org/2000/svg">
<path d="M6.16955 12.9769V13.0769H6.26955H12.2196H12.3196V12.9769V9.99687V9.89687H12.2196H6.26955H6.16955V9.99687V12.9769ZM21.0496 8.87687V16.3787L19.6116 15.5015L19.5587 15.4692L19.5063 15.5022L17.4296 16.8087L15.9929 15.9023L15.8396 15.8056V15.9869V16.8669V16.922L15.8862 16.9515L17.3762 17.8915L17.4294 17.925L17.4826 17.8916L19.5704 16.5843L21.8478 17.9624L21.9996 18.0543V17.8769V8.88688C21.9996 6.16165 19.7848 3.94687 17.0596 3.94687H9.61955C7.45195 3.94687 5.66553 5.60871 5.45653 7.72478C4.58827 7.9309 3.93955 8.70315 3.93955 9.62687V21.9069V22.0069H4.03955H14.4596H14.5596V21.9069V9.62687C14.5596 8.77466 14.0039 8.05108 13.2412 7.7814C13.7292 6.08226 15.2582 4.88688 17.0596 4.88688C19.2642 4.88688 21.0496 6.68194 21.0496 8.87687ZM13.6096 9.62687V21.0669H4.87955V9.62687C4.87955 9.0621 5.33478 8.60687 5.89955 8.60687H12.5996C13.1306 8.60687 13.5648 9.00932 13.6147 9.52688H13.6096V9.62687ZM7.01955 14.3669H6.91955V14.4669V15.2069V15.3069H7.01955H8.50955H8.60955V15.2069V14.4669V14.3669H8.50955H7.01955ZM9.98955 14.3669H9.88955V14.4669V15.2069V15.3069H9.98955H11.4796H11.5796V15.2069V14.4669V14.3669H11.4796H9.98955ZM7.01955 16.5969H6.91955V16.6969V17.4369V17.5369H7.01955H8.50955H8.60955V17.4369V16.6969V16.5969H8.50955H7.01955ZM9.98955 16.5969H9.88955V16.6969V17.4369V17.5369H9.98955H11.4796H11.5796V17.4369V16.6969V16.5969H11.4796H9.98955ZM7.01955 18.8269H6.91955V18.9269V19.6669V19.7669H7.01955H8.50955H8.60955V19.6669V18.9269V18.8269H8.50955H7.01955ZM9.98955 18.8269H9.88955V18.9269V19.6669V19.7669H9.98955H11.4796H11.5796V19.6669V18.9269V18.8269H11.4796H9.98955ZM7.11955 10.8469H11.3896V12.1369H7.11955V10.8469ZM12.2911 7.66688H6.42349C6.65604 6.09917 7.99054 4.88688 9.61955 4.88688H14.1633C13.2515 5.54943 12.5814 6.51755 12.2911 7.66688Z" fill="#191919" stroke="#191919" stroke-width="0.2"/>
</svg>
