<svg width="25" height="25" viewBox="0 0 25 25" fill="none" xmlns="http://www.w3.org/2000/svg">
<path d="M12.0304 12.1071C12.0304 12.1257 12.027 12.144 12.0204 12.161C12.0167 14.6657 11.6892 18.2695 8.86098 20.2468C8.76787 20.3217 8.65319 20.3471 8.56044 20.3471C8.39692 20.3471 8.2369 20.2772 8.13583 20.1207C7.9726 19.8861 8.02398 19.5617 8.26645 19.4028C9.47864 18.5534 10.1602 17.3209 10.5388 16.002C10.9179 14.681 10.9904 13.2826 10.9904 12.1171C10.9904 10.8238 12.048 9.76711 13.3504 9.76711C14.4707 9.76711 15.4434 10.5564 15.6576 11.6479C15.6576 11.648 15.6576 11.6481 15.6576 11.6482L12.0304 12.1071ZM12.0304 12.1071C12.0304 11.38 12.6233 10.7871 13.3504 10.7871C13.9778 10.7871 14.5174 11.2356 14.6434 11.8469L12.0304 12.1071ZM15.6597 14.732L15.6597 14.7321C15.4686 16.6329 14.9336 19.4472 12.5949 21.6647C12.493 21.7658 12.3634 21.8071 12.2404 21.8071C12.1129 21.8071 11.9661 21.7687 11.8592 21.6477C11.6684 21.4416 11.6638 21.1178 11.8778 20.9177C13.9671 18.946 14.4522 16.3921 14.6312 14.6322C14.6312 14.6321 14.6312 14.632 14.6312 14.6319L14.7804 14.6471L15.6597 14.732ZM15.6597 14.732C15.6881 14.4481 15.4764 14.1961 15.1957 14.1679L15.6597 14.732ZM18.2481 16.8438C18.6304 14.8604 18.6304 13.0895 18.6304 12.039V12.0371C18.6304 9.15407 16.2831 6.80711 13.3904 6.80711C13.3632 6.80711 13.3371 6.81447 13.3144 6.82783L18.1004 16.8171M18.2481 16.8438C18.2479 16.8444 18.2478 16.8449 18.2477 16.8455L18.1004 16.8171M18.2481 16.8438C18.2482 16.8431 18.2483 16.8424 18.2484 16.8418L18.1004 16.8171M18.2481 16.8438C18.2041 17.1009 17.9769 17.2671 17.7404 17.2671H17.7403H17.7402H17.7401H17.74H17.7398H17.7397H17.7396H17.7395H17.7394H17.7393H17.7391H17.739H17.7389H17.7388H17.7387H17.7385H17.7384H17.7383H17.7382H17.738H17.7379H17.7378H17.7377H17.7376H17.7374H17.7373H17.7372H17.7371H17.7369H17.7368H17.7367H17.7366H17.7364H17.7363H17.7362H17.7361H17.7359H17.7358H17.7357H17.7356H17.7354H17.7353H17.7352H17.7351H17.7349H17.7348H17.7347H17.7346H17.7344H17.7343H17.7342H17.7341H17.7339H17.7338H17.7337H17.7335H17.7334H17.7333H17.7332H17.733H17.7329H17.7328H17.7326H17.7325H17.7324H17.7322H17.7321H17.732H17.7319H17.7317H17.7316H17.7315H17.7313H17.7312H17.7311H17.7309H17.7308H17.7307H17.7305H17.7304H17.7303H17.7301H17.73H17.7299H17.7297H17.7296H17.7295H17.7293H17.7292H17.7291H17.7289H17.7288H17.7287H17.7285H17.7284H17.7283H17.7281H17.728H17.7279H17.7277H17.7276H17.7274H17.7273H17.7272H17.727H17.7269H17.7268H17.7266H17.7265H17.7264H17.7262H17.7261H17.7259H17.7258H17.7257H17.7255H17.7254H17.7253H17.7251H17.725H17.7248H17.7247H17.7246H17.7244H17.7243H17.7241H17.724H17.7239H17.7237H17.7236H17.7235H17.7233H17.7232H17.723H17.7229H17.7228H17.7226H17.7225H17.7223H17.7222H17.7221H17.7219H17.7218H17.7216H17.7215H17.7213H17.7212H17.7211H17.7209H17.7208H17.7206H17.7205H17.7204H17.7202H17.7201H17.7199H17.7198H17.7197H17.7195H17.7194H17.7192H17.7191H17.7189H17.7188H17.7187H17.7185H17.7184H17.7182H17.7181H17.7179H17.7178H17.7177H17.7175H17.7174H17.7172H17.7171H17.7169H17.7168H17.7166H17.7165H17.7164H17.7162H17.7161H17.7159H17.7158H17.7156H17.7155H17.7153H17.7152H17.7151H17.7149H17.7148H17.7146H17.7145H17.7143H17.7142H17.714H17.7139H17.7138H17.7136H17.7135H17.7133H17.7132H17.713H17.7129H17.7127H17.7126H17.7124H17.7123H17.7122H17.712H17.7119H17.7117H17.7116H17.7114H17.7113H17.7111H17.711H17.7108H17.7107H17.7106H17.7104H17.7103H17.7101H17.71H17.7098H17.7097H17.7095H17.7094H17.7092H17.7091H17.7089H17.7088H17.7087H17.7085H17.7084H17.7082H17.7081H17.7079H17.7078H17.7076H17.7075H17.7073H17.7072H17.707H17.7069H17.7068H17.7066H17.7065H17.7063H17.7062H17.706H17.7059H17.7057H17.7056H17.7054H17.7053H17.7051H17.705H17.7048H17.7047H17.7046H17.7044H17.7043H17.7041H17.704H17.7038H17.7037H17.7035H17.7034H17.7032H17.7031H17.7029H17.7028H17.7027H17.7025H17.7024H17.7022H17.7021H17.7019H17.7018H17.7016H17.7015H17.7013H17.7012H17.701H17.7009H17.7008H17.7006H17.7005H17.7003H17.7002H17.7H17.6999H17.6997H17.6996H17.6994H17.6993H17.6991H17.699H17.6989H17.6987H17.6986H17.6984H17.6983H17.6981H17.698H17.6978H17.6977H17.6975H17.6974H17.6973H17.6971H17.697H17.6968H17.6967H17.6965H17.6964H17.6962H17.6961H17.696H17.6958H17.6957H17.6955H17.6954H17.6952H17.6951H17.6949H17.6948H17.6947H17.6945H17.6944H17.6942H17.6941H17.6939H17.6938H17.6936H17.6935H17.6934H17.6932H17.6931H17.6929H17.6928H17.6926H17.6925H17.6924H17.6922H17.6921H17.6919H17.6918H17.6916H17.6915H17.6914H17.6912H17.6911H17.6909H17.6908H17.6907H17.6905H17.6904H17.6902H17.6901H17.6899H17.6898H17.6897H17.6895H17.6894H17.6892H17.6891H17.689H17.6888H17.6887H17.6885H17.6884H17.6883H17.6881H17.688H17.6878H17.6877H17.6876H17.6874H17.6873H17.6871H17.687H17.6869H17.6867H17.6866H17.6864H17.6863H17.6862H17.686H17.6859H17.6858H17.6856H17.6855H17.6853H17.6852H17.6851H17.6849H17.6848H17.6846H17.6845H17.6844H17.6842H17.6841H17.684H17.6838H17.6837H17.6836H17.6834H17.6833H17.6831H17.683H17.6829H17.6827H17.6826H17.6825H17.6823H17.6822H17.6821H17.6819H17.6818H17.6817H17.6815H17.6814H17.6813H17.6811H17.681H17.6809H17.6807H17.6806H17.6805H17.6803H17.6802H17.6801H17.6799H17.6798H17.6797H17.6795H17.6794H17.6793H17.6791H17.679H17.6789H17.6788H17.6786H17.6785H17.6784H17.6782H17.6781H17.678H17.6778H17.6777H17.6776H17.6775H17.6773H17.6772H17.6771H17.6769H17.6768H17.6767H17.6766H17.6764H17.6763H17.6762H17.6761H17.6759H17.6758H17.6757H17.6755H17.6754H17.6753H17.6752H17.675H17.6749H17.6748H17.6747H17.6745H17.6744H17.6743H17.6742H17.674H17.6739H17.6738H17.6737H17.6736H17.6734H17.6733H17.6732H17.6731H17.6729H17.6728H17.6727H17.6726H17.6725H17.6723H17.6722H17.6721H17.672H17.6719H17.6717H17.6716H17.6715H17.6714H17.6713H17.6711H17.671H17.6709H17.6708H17.6707H17.6706H17.6704C17.6606 17.2671 17.6507 17.2661 17.641 17.2642C17.362 17.2084 17.1769 16.9412 17.2333 16.6581M18.1004 16.8171C18.0704 16.9971 17.9104 17.1171 17.7404 17.1171H17.6704C17.4704 17.0771 17.3404 16.8871 17.3804 16.6871M17.2333 16.6581C17.2332 16.6582 17.2332 16.6583 17.2332 16.6584L17.3804 16.6871M17.2333 16.6581C17.2333 16.6579 17.2333 16.6578 17.2333 16.6577L17.3804 16.6871M17.2333 16.6581C17.6002 14.7737 17.6004 13.0666 17.6004 12.0471C17.6004 9.74018 15.7178 7.85711 13.4004 7.85711C12.2135 7.85711 11.0738 8.36866 10.2718 9.25759L10.2701 9.25947L10.2701 9.25946C10.0799 9.46328 9.75518 9.49939 9.53809 9.29677C9.33452 9.10677 9.29825 8.78265 9.50003 8.56556C9.50028 8.56529 9.50053 8.56503 9.50078 8.56476L9.61044 8.66711C10.5448 7.63638 11.8597 7.02323 13.2421 6.97961L17.3804 16.6871M5.68719 14.4614C5.66686 14.4715 5.6441 14.4771 5.62044 14.4771C5.32496 14.4771 5.10044 14.2373 5.10044 13.9571V12.1171C5.10044 7.57403 8.79783 3.88711 13.3404 3.88711C15.1428 3.88711 16.8544 4.45757 18.2904 5.53711L5.68719 14.4614ZM5.68719 14.4614C5.93304 14.4249 6.13044 14.2152 6.13044 13.9471V12.1071C6.13044 8.15022 9.36301 4.91711 13.3404 4.91711C14.9179 4.91711 16.4063 5.41652 17.6604 6.35711C17.8871 6.52712 18.2078 6.48206 18.3869 6.2617L18.3869 6.26177L18.3904 6.25711C18.5588 6.0326 18.5184 5.70822 18.2906 5.53721L5.68719 14.4614ZM16.5197 19.1953L16.5193 19.1963C16.2523 19.9379 15.9262 20.6396 15.5508 21.2917C15.4092 21.5333 15.4934 21.8547 15.7344 21.9964L15.7342 21.9967L15.7434 22.0013C15.816 22.0376 15.8994 22.0671 16.0004 22.0671C16.185 22.0671 16.3513 21.9681 16.447 21.8176L16.4471 21.8177L16.4502 21.8123C16.8547 21.1145 17.2084 20.3565 17.5013 19.5486C17.6004 19.279 17.4579 18.9842 17.1923 18.8864C17.1813 18.8823 17.1699 18.8796 17.1583 18.8782C16.8953 18.7955 16.6147 18.9374 16.5197 19.1953ZM9.06486 11.8609C9.07832 11.841 9.08714 11.8175 9.08969 11.792C9.11834 11.5056 8.9036 11.2553 8.61466 11.2278L8.61467 11.2276L8.60757 11.2273C8.32154 11.2137 8.07907 11.4093 8.05111 11.7029L8.05109 11.7029L8.05088 11.7056L8.05071 11.7078C8.04081 11.8365 8.03044 11.9713 8.03044 12.1171C8.03044 14.539 7.44862 15.9301 6.76516 16.7296C6.08227 17.5286 5.28106 17.7566 4.80129 17.8183L4.80128 17.8183L4.79818 17.8188C4.51939 17.8606 4.32319 18.1122 4.35118 18.392L4.35126 18.3928C4.37984 18.6643 4.609 18.8471 4.86044 18.8471H4.86055H4.86067H4.86079H4.8609H4.86102H4.86113H4.86125H4.86137H4.86148H4.8616H4.86171H4.86183H4.86194H4.86205H4.86217H4.86228H4.8624H4.86251H4.86262H4.86273H4.86285H4.86296H4.86307H4.86318H4.8633H4.86341H4.86352H4.86363H4.86374H4.86385H4.86396H4.86407H4.86418H4.86429H4.8644H4.86451H4.86462H4.86473H4.86484H4.86495H4.86506H4.86517H4.86527H4.86538H4.86549H4.8656H4.86571H4.86581H4.86592H4.86603H4.86613H4.86624H4.86635H4.86645H4.86656H4.86667H4.86677H4.86688H4.86698H4.86709H4.86719H4.8673H4.8674H4.86751H4.86761H4.86771H4.86782H4.86792H4.86803H4.86813H4.86823H4.86834H4.86844H4.86854H4.86864H4.86875H4.86885H4.86895H4.86905H4.86915H4.86926H4.86936H4.86946H4.86956H4.86966H4.86976H4.86986H4.86996H4.87006H4.87016H4.87026H4.87036H4.87046H4.87056H4.87066H4.87076H4.87086H4.87096H4.87106H4.87116H4.87126H4.87136H4.87145H4.87155H4.87165H4.87175H4.87185H4.87194H4.87204H4.87214H4.87224H4.87233H4.87243H4.87253H4.87263H4.87272H4.87282H4.87291H4.87301H4.87311H4.8732H4.8733H4.8734H4.87349H4.87359H4.87368H4.87378H4.87387H4.87397H4.87406H4.87416H4.87425H4.87435H4.87444H4.87454H4.87463H4.87473H4.87482H4.87491H4.87501H4.8751H4.8752H4.87529H4.87538H4.87548H4.87557H4.87566H4.87576H4.87585H4.87594H4.87603H4.87613H4.87622H4.87631H4.8764H4.8765H4.87659H4.87668H4.87677H4.87687H4.87696H4.87705H4.87714H4.87723H4.87732H4.87742H4.87751H4.8776H4.87769H4.87778H4.87787H4.87796H4.87806H4.87815H4.87824H4.87833H4.87842H4.87851H4.8786H4.87869H4.87878H4.87887H4.87896H4.87905H4.87914H4.87923H4.87932H4.87941H4.8795H4.87959H4.87968H4.87977H4.87986H4.87995H4.88004H4.88013H4.88022H4.88031H4.8804H4.88049H4.88058H4.88067H4.88075H4.88084H4.88093H4.88102H4.88111H4.8812H4.88129H4.88138H4.88147H4.88156H4.88164H4.88173H4.88182H4.88191H4.882H4.88209H4.88218H4.88226H4.88235H4.88244H4.88253H4.88262H4.88271H4.88279H4.88288H4.88297H4.88306H4.88315H4.88324H4.88332H4.88341H4.8835H4.88359H4.88368H4.88376H4.88385H4.88394H4.88403H4.88412H4.8842H4.88429H4.88438H4.88447H4.88456H4.88464H4.88473H4.88482H4.88491H4.885H4.88508H4.88517H4.88526H4.88535H4.88544H4.88552H4.88561H4.8857H4.88579H4.88587H4.88596H4.88605H4.88614H4.88623H4.88631H4.8864H4.88649H4.88658H4.88667H4.88675H4.88684H4.88693H4.88702H4.88711H4.88719H4.88728H4.88737H4.88746H4.88755H4.88763H4.88772H4.88781H4.8879H4.88799H4.88808H4.88816H4.88825H4.88834H4.88843H4.88852H4.88861H4.88869H4.88878H4.88887H4.88896H4.88905H4.88914H4.88923H4.88932H4.8894H4.88949H4.88958H4.88967H4.88976H4.88985H4.88994H4.89003H4.89012H4.8902H4.89029H4.89038H4.89047H4.89056H4.89065H4.89074H4.89083H4.89092H4.89101H4.8911H4.89119H4.89128H4.89137H4.89146H4.89155H4.89164H4.89173H4.89182H4.89191H4.892H4.89209H4.89218H4.89227H4.89236H4.89245H4.89254H4.89263H4.89272H4.89282H4.89291H4.893H4.89309H4.89318H4.89327H4.89336H4.89345H4.89355H4.89364H4.89373H4.89382H4.89391H4.894H4.8941H4.89419H4.89428H4.89437H4.89447H4.89456H4.89465H4.89474H4.89484H4.89493H4.89502H4.89512H4.89521H4.8953H4.89539H4.89549H4.89558H4.89568H4.89577H4.89586H4.89596H4.89605H4.89615H4.89624H4.89633H4.89643H4.89652H4.89662H4.89671H4.89681H4.8969H4.897H4.89709H4.89719H4.89728H4.89738H4.89748H4.89757H4.89767H4.89776H4.89786H4.89796H4.89805H4.89815H4.89825H4.89834H4.89844H4.89854H4.89863H4.89873H4.89883H4.89893H4.89902H4.89912H4.89922H4.89932H4.89942H4.89951H4.89961H4.89971H4.89981H4.89991H4.90001H4.90011H4.90021H4.90031H4.90041H4.90051H4.90061H4.90071H4.90081H4.90091H4.90101H4.90111H4.90121H4.90131H4.90141H4.90151H4.90161H4.90172H4.90182H4.90192H4.90202H4.90212H4.90223H4.90233H4.90243H4.90254H4.90264H4.90274H4.90285H4.90295H4.90305H4.90316H4.90326H4.90337H4.90347H4.90357H4.90368H4.90378H4.90389H4.90399H4.9041H4.90421H4.90431H4.90442H4.90452H4.90463H4.90474H4.90484H4.90495H4.90506H4.90516H4.90527H4.90538H4.90549H4.9056H4.9057H4.90581H4.90592H4.90603H4.90614H4.90625H4.90636H4.90647H4.90658H4.90669H4.9068H4.90691H4.90702H4.90713H4.90724H4.90735H4.90746H4.90757H4.90769H4.9078H4.90791H4.90802H4.90814H4.90825H4.90836H4.90848H4.90859H4.9087H4.90882H4.90893H4.90905H4.90916H4.90927H4.90939H4.90951H4.90962H4.90974H4.90985H4.90997H4.91008H4.9102H4.91032H4.91044C4.91666 18.8471 4.92287 18.8467 4.92904 18.846C5.55244 18.768 6.59047 18.4823 7.47176 17.5064C8.3536 16.5299 9.06044 14.8824 9.06044 12.1171C9.06044 12.0307 9.0605 11.9434 9.06486 11.8609ZM20.7145 8.46286C20.5719 8.2604 20.2972 8.176 20.0634 8.29295C19.8135 8.41785 19.6971 8.72588 19.8263 8.98419L19.9604 8.91711L19.8257 8.98311C20.3056 9.96247 20.5504 11.0199 20.5504 12.1171C20.5504 13.7264 20.5493 17.4675 18.9236 21.0856L18.9236 21.0856L18.9222 21.0889C18.8116 21.3516 18.9223 21.6517 19.1922 21.7654L19.1947 21.7664C19.2611 21.7929 19.3299 21.8071 19.4004 21.8071C19.6006 21.8071 19.7807 21.6919 19.8746 21.5042L19.8747 21.5043L19.8774 21.4984C21.5904 17.6691 21.5904 13.7731 21.5904 12.1103V12.1071C21.5904 10.8548 21.3154 9.64209 20.7651 8.52101L20.7145 8.46286Z" fill="#191919" stroke="#191919" stroke-width="0.3" stroke-linejoin="round"/>
</svg>
