<svg width="25" height="25" viewBox="0 0 25 25" fill="none" xmlns="http://www.w3.org/2000/svg">
<path d="M11.8704 12.1171C11.8704 14.6271 11.5504 18.1871 8.77044 20.1271C8.71044 20.1771 8.63044 20.1971 8.56044 20.1971C8.44044 20.1971 8.33044 20.1471 8.26044 20.0371C8.14044 19.8671 8.18044 19.6371 8.35044 19.5271C10.8504 17.7771 11.1404 14.4571 11.1404 12.1171C11.1404 10.9071 12.1304 9.91711 13.3504 9.91711C14.4004 9.91711 15.3104 10.6571 15.5104 11.6771C15.5504 11.8771 15.4204 12.0671 15.2204 12.1071C15.0204 12.1471 14.8304 12.0171 14.7904 11.8171C14.6504 11.1371 14.0504 10.6371 13.3504 10.6371C12.5404 10.6371 11.8804 11.2971 11.8804 12.1071L11.8704 12.1171ZM15.1804 14.3171C14.9904 14.2971 14.8004 14.4471 14.7804 14.6471C14.6004 16.4171 14.1104 19.0171 11.9804 21.0271C11.8304 21.1671 11.8304 21.3971 11.9704 21.5471C12.0404 21.6271 12.1404 21.6571 12.2404 21.6571C12.3304 21.6571 12.4204 21.6271 12.4904 21.5571C14.7904 19.3771 15.3204 16.6071 15.5104 14.7171C15.5304 14.5171 15.3804 14.3371 15.1804 14.3171ZM17.1304 19.0271C16.9404 18.9571 16.7304 19.0571 16.6604 19.2471C16.3904 19.9971 16.0604 20.7071 15.6804 21.3671C15.5804 21.5371 15.6404 21.7671 15.8104 21.8671C15.8704 21.8971 15.9304 21.9171 16.0004 21.9171C16.1304 21.9171 16.2504 21.8471 16.3204 21.7371C16.7204 21.0471 17.0704 20.2971 17.3604 19.4971C17.4304 19.3071 17.3304 19.0971 17.1404 19.0271H17.1304ZM13.4004 6.97711C11.9604 6.97711 10.5804 7.59711 9.61044 8.66711C9.47044 8.81711 9.49044 9.04711 9.64044 9.18711C9.79044 9.32711 10.0204 9.30711 10.1604 9.15711C10.9904 8.23711 12.1704 7.70711 13.4004 7.70711C15.8004 7.70711 17.7504 9.65711 17.7504 12.0471C17.7504 13.0671 17.7504 14.7871 17.3804 16.6871C17.3404 16.8871 17.4704 17.0771 17.6704 17.1171C17.6904 17.1171 17.7204 17.1171 17.7404 17.1171C17.9104 17.1171 18.0704 16.9971 18.1004 16.8171C18.4804 14.8471 18.4804 13.0871 18.4804 12.0371C18.4804 9.23711 16.2004 6.95711 13.3904 6.95711L13.4004 6.97711ZM8.94043 11.7771C8.96043 11.5771 8.81044 11.3971 8.60044 11.3771C8.39044 11.3671 8.22044 11.5071 8.20044 11.7171C8.19044 11.8471 8.18044 11.9771 8.18044 12.1171C8.18044 17.0071 5.83044 17.8371 4.82044 17.9671C4.62044 17.9971 4.48044 18.1771 4.50044 18.3771C4.52044 18.5671 4.68044 18.6971 4.86044 18.6971C4.88044 18.6971 4.89044 18.6971 4.91044 18.6971C6.11044 18.5471 8.91044 17.5971 8.91044 12.1171C8.91044 12.0071 8.91043 11.8871 8.92043 11.7771H8.94043ZM5.61044 14.3171C5.81044 14.3171 5.98044 14.1571 5.98044 13.9471V12.1071C5.98044 8.06711 9.28044 4.76711 13.3404 4.76711C14.9504 4.76711 16.4704 5.27711 17.7504 6.23711C17.9104 6.35711 18.1404 6.32711 18.2704 6.16711C18.3904 6.00711 18.3604 5.77711 18.2004 5.65711C16.7904 4.59711 15.1104 4.03711 13.3404 4.03711C8.88043 4.03711 5.25044 7.65711 5.25044 12.1171V13.9571C5.25044 14.1571 5.41044 14.3271 5.62044 14.3271L5.61044 14.3171ZM20.6204 8.59711C20.5304 8.41711 20.3104 8.33711 20.1304 8.42711C19.9504 8.51711 19.8704 8.73711 19.9604 8.91711C20.4504 9.91711 20.7004 10.9971 20.7004 12.1171C20.7004 13.7271 20.7004 17.4971 19.0604 21.1471C18.9804 21.3371 19.0604 21.5471 19.2504 21.6271C19.3004 21.6471 19.3504 21.6571 19.4004 21.6571C19.5404 21.6571 19.6704 21.5771 19.7404 21.4371C21.4404 17.6371 21.4404 13.7671 21.4404 12.1071C21.4404 10.8771 21.1704 9.68711 20.6304 8.58711L20.6204 8.59711Z" fill="#191919"/>
</svg>
