<svg width="25" height="25" viewBox="0 0 25 25" fill="none" xmlns="http://www.w3.org/2000/svg">
<path d="M18.5449 4.05078H7.39492C5.54492 4.05078 4.04492 5.55078 4.04492 7.40078V18.5508C4.04492 20.3908 5.54492 21.9008 7.39492 21.9008H18.5449C20.3849 21.9008 21.8949 20.4008 21.8949 18.5508V7.40078C21.8949 5.56078 20.3949 4.05078 18.5449 4.05078ZM21.1449 18.5508C21.1449 19.9908 19.9749 21.1508 18.5449 21.1508H7.39492C5.95492 21.1508 4.79492 19.9808 4.79492 18.5508V7.40078C4.78492 5.96078 5.95492 4.79078 7.39492 4.79078H18.5449C19.9849 4.79078 21.1449 5.96078 21.1449 7.39078V18.5408V18.5508Z" fill="#191919"/>
</svg>
