<svg width="25" height="25" viewBox="0 0 25 25" fill="none" xmlns="http://www.w3.org/2000/svg">
<path d="M4.94493 7.40078L4.94492 7.39974C4.9355 6.0436 6.03756 4.94078 7.39492 4.94078H18.5449C19.9017 4.94078 20.9949 6.04325 20.9949 7.39078V18.5408V18.5508C20.9949 19.9076 19.8925 21.0008 18.5449 21.0008H7.39492C6.03814 21.0008 4.94492 19.8983 4.94492 18.5508L4.94493 7.40078ZM18.5449 3.90078H7.39492C5.46208 3.90078 3.89492 5.46794 3.89492 7.40078V18.5508C3.89492 20.4733 5.46179 22.0508 7.39492 22.0508H18.5449C20.4675 22.0508 22.0449 20.4839 22.0449 18.5508V7.40078C22.0449 5.47823 20.4781 3.90078 18.5449 3.90078Z" fill="#191919" stroke="#191919" stroke-width="0.3"/>
</svg>
