<svg width="25" height="25" viewBox="0 0 25 25" fill="none" xmlns="http://www.w3.org/2000/svg">
<path d="M3.36475 5.55148V11.6515H11.5147V3.52148H5.40475C4.27475 3.52148 3.36475 4.43148 3.36475 5.55148ZM10.7047 10.8415H4.18475V5.55148C4.18475 4.88148 4.73475 4.33148 5.40475 4.33148H10.7047V10.8415ZM21.3047 5.55148C21.3047 4.43148 20.3947 3.52148 19.2647 3.52148H13.1447V11.6615H21.2947V5.55148H21.3047ZM20.4847 10.8415H13.9647V4.33148H19.2647C19.9347 4.33148 20.4847 4.88148 20.4847 5.55148V10.8415ZM3.36475 19.3915C3.36475 20.5115 4.27475 21.4215 5.40475 21.4215H11.5247V13.2815H3.36475V19.3815V19.3915ZM4.18475 14.1015H10.7047V20.6115H5.40475C4.73475 20.6115 4.18475 20.0615 4.18475 19.3915V14.1015ZM22.5647 21.8515L19.6747 18.9715C20.1747 18.3415 20.4947 17.5615 20.4947 16.7015C20.4947 14.6815 18.8447 13.0415 16.8247 13.0415C14.8047 13.0415 13.1547 14.6815 13.1547 16.7015C13.1547 18.7215 14.8047 20.3615 16.8247 20.3615C17.6847 20.3615 18.4747 20.0515 19.1047 19.5515L21.9947 22.4315L22.5747 21.8515H22.5647ZM16.8147 19.5515C15.2447 19.5515 13.9647 18.2715 13.9647 16.7015C13.9647 15.1315 15.2447 13.8515 16.8147 13.8515C18.3847 13.8515 19.6647 15.1315 19.6647 16.7015C19.6647 18.2715 18.3847 19.5515 16.8147 19.5515Z" fill="#191919"/>
</svg>
