<svg width="25" height="25" viewBox="0 0 25 25" fill="none" xmlns="http://www.w3.org/2000/svg">
<path d="M3.21475 11.6515V11.8015H3.36475H11.5147H11.6647V11.6515V3.52148V3.37148H11.5147H5.40475C4.19238 3.37148 3.21475 4.34816 3.21475 5.55148V11.6515ZM21.4447 5.70148H21.4547V5.55148C21.4547 4.34816 20.4771 3.37148 19.2647 3.37148H13.1447H12.9947V3.52148V11.6615V11.8115H13.1447H21.2947H21.4447V11.6615V5.70148ZM11.5247 21.5715H11.6747V21.4215V13.2815V13.1315H11.5247H3.36475H3.21475V13.2815V19.3815V19.3915C3.21475 20.5948 4.19238 21.5715 5.40475 21.5715H11.5247ZM22.6267 21.7015L19.874 18.9583C20.3452 18.3246 20.6447 17.5517 20.6447 16.7015C20.6447 14.5981 18.9271 12.8915 16.8247 12.8915C14.7224 12.8915 13.0047 14.5981 13.0047 16.7015C13.0047 18.8049 14.7224 20.5115 16.8247 20.5115C17.6737 20.5115 18.4559 20.2217 19.0919 19.7504L21.8889 22.5377L21.9949 22.6434L22.1008 22.5375L22.6808 21.9576L22.9369 21.7015H22.6267ZM10.5547 10.6915H4.33475V5.55148C4.33475 4.96433 4.81759 4.48148 5.40475 4.48148H10.5547V10.6915ZM20.3347 10.6915H14.1147V4.48148H19.2647C19.8519 4.48148 20.3347 4.96433 20.3347 5.55148V10.6915ZM4.33475 14.2515H10.5547V20.4615H5.40475C4.81759 20.4615 4.33475 19.9786 4.33475 19.3915V14.2515ZM16.8147 19.4015C15.3276 19.4015 14.1147 18.1886 14.1147 16.7015C14.1147 15.2143 15.3276 14.0015 16.8147 14.0015C18.3019 14.0015 19.5147 15.2143 19.5147 16.7015C19.5147 18.1886 18.3019 19.4015 16.8147 19.4015Z" fill="#191919" stroke="#191919" stroke-width="0.3"/>
</svg>
