<svg width="25" height="25" viewBox="0 0 25 25" fill="none" xmlns="http://www.w3.org/2000/svg">
<path d="M19.3758 13.4234L19.3757 13.4235L13.1198 19.6695V21.0373H14.4877L20.7437 14.7913L19.3758 13.4234ZM19.3758 13.4234C19.7373 13.062 20.3823 13.062 20.7437 13.4234M19.3758 13.4234H20.7437M20.7437 13.4234C20.9264 13.6061 21.0298 13.8483 21.0298 14.1073M20.7437 13.4234L21.0298 14.1073M21.0298 14.1073C21.0298 14.3664 20.9264 14.6085 20.7438 14.7912L21.0298 14.1073ZM21.2298 12.4223V12.4676C20.4553 11.9308 19.3219 12.0027 18.6345 12.6805L18.6338 12.6812L12.1138 19.1912L12.0698 19.2351V19.2973V21.9273V22.0773H12.2198H14.8598H14.9218L14.9658 22.0335L21.4858 15.5235L21.4858 15.5234C21.8633 15.1459 22.0798 14.638 22.0798 14.0973C22.0798 13.5585 21.8746 13.0492 21.4843 12.6698L21.2298 12.4223ZM7.36977 15.3673H13.9398V15.3773H14.0898H14.0899H14.0901H14.0903H14.0905H14.0907H14.0908H14.091H14.0912H14.0914H14.0916H14.0917H14.0919H14.0921H14.0923H14.0925H14.0927H14.0928H14.093H14.0932H14.0934H14.0936H14.0938H14.094H14.0942H14.0944H14.0946H14.0947H14.0949H14.0951H14.0953H14.0955H14.0957H14.0959H14.0961H14.0963H14.0965H14.0967H14.0969H14.0971H14.0973H14.0975H14.0977H14.0979H14.0981H14.0983H14.0985H14.0987H14.0989H14.0991H14.0993H14.0995H14.0997H14.0999H14.1002H14.1004H14.1006H14.1008H14.101H14.1012H14.1014H14.1016H14.1018H14.102H14.1022H14.1025H14.1027H14.1029H14.1031H14.1033H14.1035H14.1037H14.104H14.1042H14.1044H14.1046H14.1048H14.105H14.1052H14.1055H14.1057H14.1059H14.1061H14.1063H14.1066H14.1068H14.107H14.1072H14.1074H14.1077H14.1079H14.1081H14.1083H14.1085H14.1088H14.109H14.1092H14.1094H14.1097H14.1099H14.1101H14.1103H14.1106H14.1108H14.111H14.1112H14.1115H14.1117H14.1119H14.1121H14.1124H14.1126H14.1128H14.113H14.1133H14.1135H14.1137H14.114H14.1142H14.1144H14.1146H14.1149H14.1151H14.1153H14.1156H14.1158H14.116H14.1163H14.1165H14.1167H14.1169H14.1172H14.1174H14.1176H14.1179H14.1181H14.1183H14.1186H14.1188H14.119H14.1193H14.1195H14.1197H14.12H14.1202H14.1204H14.1207H14.1209H14.1211H14.1214H14.1216H14.1218H14.1221H14.1223H14.1225H14.1228H14.123H14.1232H14.1235H14.1237H14.1239H14.1242H14.1244H14.1246H14.1249H14.1251H14.1253H14.1256H14.1258H14.126H14.1263H14.1265H14.1267H14.127H14.1272H14.1274H14.1277H14.1279H14.1282H14.1284H14.1286H14.1289H14.1291H14.1293H14.1296H14.1298H14.13H14.1303H14.1305H14.1307H14.131H14.1312H14.1314H14.1317H14.1319H14.1321H14.1324H14.1326H14.1328H14.1331H14.1333H14.1335H14.1338H14.134H14.1342H14.1345H14.1347H14.1349H14.1351H14.1354H14.1356H14.1358H14.1361H14.1363H14.1365H14.1368H14.137H14.1372H14.1375H14.1377H14.1379H14.1381H14.1384H14.1386H14.1388H14.1391H14.1393H14.1395H14.1397H14.14H14.1402H14.1404H14.1407H14.1409H14.1411H14.1413H14.1416H14.1418H14.142H14.1422H14.1425H14.1427H14.1429H14.1431H14.1434H14.1436H14.1438H14.144H14.1442H14.1445H14.1447H14.1449H14.1451H14.1454H14.1456H14.1458H14.146H14.1462H14.1465H14.1467H14.1469H14.1471H14.1473H14.1475H14.1478H14.148H14.1482H14.1484H14.1486H14.1488H14.1491H14.1493H14.1495H14.1497H14.1499H14.1501H14.1503H14.1505H14.1508H14.151H14.1512H14.1514H14.1516H14.1518H14.152H14.1522H14.1524H14.1526H14.1528H14.1531H14.1533H14.1535H14.1537H14.1539H14.1541H14.1543H14.1545H14.1547H14.1549H14.1551H14.1553H14.1555H14.1557H14.1559H14.1561H14.1563H14.1565H14.1567H14.1569H14.1571H14.1573H14.1575H14.1577H14.1579H14.1581H14.1582H14.1584H14.1586H14.1588H14.159H14.1592H14.1594H14.1596H14.1598H14.16H14.1601H14.1603H14.1605H14.1607H14.1609H14.1611H14.1612H14.1614H14.1616H14.1618H14.162H14.1622H14.1623H14.1625H14.1627H14.1629H14.163H14.1632H14.1634H14.1636H14.1637H14.1639H14.1641H14.1643H14.1644H14.1646H14.1648H14.1649H14.1651H14.1653H14.1654H14.1656H14.1658H14.1659H14.1661H14.1663H14.1664H14.1666H14.1667H14.1669H14.1671H14.1672H14.1674H14.1675H14.1677H14.1678H14.168H14.1681H14.1683H14.1685H14.1686H14.1688H14.1689H14.169H14.1692H14.1693H14.1695H14.1696H14.1698H14.1699H14.1701H14.1702H14.1703H14.1705H14.1706H14.1708H14.1709H14.171H14.1712H14.1713H14.1714H14.1716H14.1717H14.1718H14.172H14.1721H14.1722H14.1723H14.1725H14.1726H14.1727H14.1728H14.173H14.1731H14.1732H14.1733H14.1735H14.1736H14.1737H14.1738H14.1739H14.174H14.1741H14.1743H14.1744H14.1745H14.1746H14.1747H14.1748H14.1749H14.175H14.1751H14.1752H14.1753H14.1754H14.1755H14.1756H14.1757H14.1758H14.1759H14.176H14.1761H14.1762H14.1763H14.1764H14.1765H14.1765H14.1766H14.1767H14.1768H14.1769H14.177H14.177H14.1771H14.1772H14.1773H14.1774H14.1774H14.1775H14.1776H14.1777H14.1777H14.1778H14.1779H14.1779H14.178H14.1781H14.1781H14.1782H14.1783H14.1783H14.1784H14.1784H14.1785H14.1785H14.1786H14.1787H14.1787H14.1788H14.1788H14.1789H14.1789H14.179H14.179H14.179H14.1791H14.1791H14.1792H14.1792H14.1792H14.1793H14.1793H14.1793H14.1794H14.1794H14.1794H14.1795H14.1795H14.1795H14.1795H14.1796H14.1796H14.1796H14.1796H14.1797H14.1797H14.1797H14.1797H14.1797H14.1797H14.1797H14.1797H14.1797H14.1798H14.2445L14.2889 15.3303L14.9589 14.6203L15.1366 14.4319L14.8848 14.3715C14.6647 14.3187 14.441 14.3224 14.2346 14.3257C14.1853 14.3265 14.1369 14.3273 14.0898 14.3273H7.36977C5.43751 14.3273 3.85977 15.8939 3.85977 17.8273V21.9273V22.0773H4.00977H4.75977H4.90977V21.9273V17.8273C4.90977 16.4702 6.01261 15.3673 7.36977 15.3673ZM10.7098 13.1573C13.2722 13.1573 15.3598 11.0806 15.3598 8.51734C15.3598 5.95407 13.2722 3.87734 10.7098 3.87734C8.14736 3.87734 6.05977 5.95407 6.05977 8.51734C6.05977 11.0806 8.14736 13.1573 10.7098 13.1573ZM10.7098 4.92734C12.6972 4.92734 14.3098 6.54045 14.3098 8.51734C14.3098 10.4942 12.6972 12.1073 10.7098 12.1073C8.72235 12.1073 7.10977 10.4942 7.10977 8.51734C7.10977 6.54045 8.72235 4.92734 10.7098 4.92734Z" fill="#191919" stroke="#191919" stroke-width="0.3"/>
</svg>
