<svg width="25" height="25" viewBox="0 0 25 25" fill="none" xmlns="http://www.w3.org/2000/svg">
<path d="M10.7098 13.0073C13.1898 13.0073 15.2098 10.9973 15.2098 8.51734C15.2098 6.03734 13.1898 4.02734 10.7098 4.02734C8.22977 4.02734 6.20977 6.03734 6.20977 8.51734C6.20977 10.9973 8.22977 13.0073 10.7098 13.0073ZM10.7098 4.77734C12.7798 4.77734 14.4598 6.45734 14.4598 8.51734C14.4598 10.5773 12.7798 12.2573 10.7098 12.2573C8.63977 12.2573 6.95977 10.5773 6.95977 8.51734C6.95977 6.45734 8.63977 4.77734 10.7098 4.77734ZM21.3798 12.7873C20.6798 12.0873 19.4498 12.0873 18.7398 12.7873L12.2198 19.2973V21.9273H14.8598L21.3798 15.4173C21.7298 15.0673 21.9298 14.5973 21.9298 14.0973C21.9298 13.5973 21.7398 13.1273 21.3798 12.7773V12.7873ZM20.8498 14.8973L14.5498 21.1873H12.9698V19.6073L19.2698 13.3173C19.6898 12.8973 20.4298 12.8973 20.8498 13.3173C21.0598 13.5273 21.1798 13.8073 21.1798 14.1073C21.1798 14.4073 21.0598 14.6873 20.8498 14.8973ZM14.0898 15.2173H7.36977C5.92977 15.2173 4.75977 16.3873 4.75977 17.8273V21.9273H4.00977V17.8273C4.00977 15.9773 5.51977 14.4773 7.36977 14.4773H14.0898C14.3498 14.4773 14.5998 14.4573 14.8498 14.5173L14.1798 15.2273C14.1798 15.2273 14.1198 15.2273 14.0898 15.2273V15.2173Z" fill="#191919"/>
</svg>
