<svg width="25" height="25" viewBox="0 0 25 25" fill="none" xmlns="http://www.w3.org/2000/svg">
<path d="M20.0646 7.00172H17.4546V5.88172C17.4546 4.85172 16.6146 4.01172 15.5846 4.01172H5.88465C4.85465 4.01172 4.01465 4.85172 4.01465 5.88172V17.7217C4.01465 18.1717 4.26465 18.5917 4.66465 18.8017C4.84465 18.9017 5.04465 18.9517 5.24465 18.9517C5.48465 18.9517 5.72465 18.8817 5.92465 18.7417L8.49465 17.0317V19.6917H16.9646L20.0146 21.7317C20.2246 21.8717 20.4546 21.9417 20.6946 21.9417C20.8946 21.9417 21.0946 21.8917 21.2746 21.7917C21.6746 21.5817 21.9246 21.1617 21.9246 20.7117V8.86172C21.9246 7.83172 21.0847 6.99172 20.0546 6.99172L20.0646 7.00172ZM5.51465 18.1217C5.36465 18.2217 5.17465 18.2317 5.01465 18.1417C4.85465 18.0517 4.75465 17.9017 4.75465 17.7117V5.88172C4.75465 5.26172 5.25465 4.76172 5.87465 4.76172H15.5846C16.2046 4.76172 16.7046 5.26172 16.7046 5.88172V15.9617H8.75465L5.51465 18.1217ZM21.1846 20.7017C21.1846 20.8817 21.0846 21.0417 20.9246 21.1317C20.7646 21.2217 20.5846 21.2117 20.4246 21.1117L17.1846 18.9517H9.23465V16.7117H17.4446V7.74172H20.0546C20.6747 7.74172 21.1746 8.24172 21.1746 8.86172V20.7017H21.1846Z" fill="#191919"/>
</svg>
