<svg width="25" height="25" viewBox="0 0 25 25" fill="none" xmlns="http://www.w3.org/2000/svg">
<path d="M19.6926 6.84172L19.7026 6.85172H17.6046V5.88172C17.6046 4.76888 16.6975 3.86172 15.5846 3.86172H5.88465C4.77181 3.86172 3.86465 4.76888 3.86465 5.88172V17.7217C3.86465 18.2261 4.14424 18.6972 4.59335 18.9337C4.79569 19.0458 5.02026 19.1017 5.24465 19.1017C5.51272 19.1017 5.78258 19.0238 6.00916 18.8657L8.34465 17.3117V19.6917V19.8417H8.49465H16.9191L19.9313 21.8564L19.9314 21.8565C20.1653 22.0124 20.4241 22.0917 20.6946 22.0917C20.919 22.0917 21.1436 22.0358 21.3459 21.9237C21.795 21.6872 22.0746 21.2161 22.0746 20.7117V8.86172C22.0746 7.74888 21.1675 6.84172 20.0546 6.84172H19.6926ZM16.5546 5.88172V15.8117H8.75465H8.70923L8.67144 15.8369L5.43144 17.9969C5.32731 18.0663 5.19784 18.0727 5.08819 18.011C4.96999 17.9445 4.90465 17.8416 4.90465 17.7117V5.88172C4.90465 5.34456 5.33749 4.91172 5.87465 4.91172H15.5846C16.1218 4.91172 16.5546 5.34456 16.5546 5.88172ZM17.1846 18.8017H9.38465V16.8617H17.4446H17.5946V16.7117V7.89172H20.0546C20.5918 7.89172 21.0246 8.32456 21.0246 8.86172V20.7017V20.782C21.002 20.8714 20.9414 20.9502 20.8511 21.001C20.7436 21.0614 20.623 21.0581 20.5059 20.9856L17.2679 18.8269L17.2301 18.8017H17.1846Z" fill="#191919" stroke="#191919" stroke-width="0.3"/>
</svg>
