<svg width="25" height="25" viewBox="0 0 25 25" fill="none" xmlns="http://www.w3.org/2000/svg">
<path d="M22.9049 5.11133V6.08133H12.7149V11.5313C12.7649 11.5713 12.8249 11.6113 12.8749 11.6513C13.8649 12.5413 13.9549 14.0713 13.0649 15.0713L12.7149 15.4513V19.8713H22.9049V20.8413H11.7449V16.5113L9.4749 18.7913C9.0149 19.2913 8.3649 19.5713 7.6949 19.5713H3.0249V18.6013H7.6849C8.0949 18.6013 8.4849 18.4313 8.7549 18.1313L12.3449 14.4213C12.8749 13.8313 12.8249 12.9113 12.2249 12.3813C11.6849 11.9013 10.8749 11.8913 10.3249 12.3513L7.2649 15.3113L6.5949 14.6113L9.6749 11.6313C10.2649 11.1313 11.0349 10.9613 11.7349 11.1013V8.33133H7.1449C6.7849 8.33133 6.4349 8.46133 6.1649 8.71133L3.0249 11.6313V10.3313L5.5349 7.98133C5.9849 7.58133 6.5649 7.35133 7.1649 7.35133H11.7549V5.11133H22.9149H22.9049ZM15.5049 8.26133C15.0349 8.26133 14.6549 8.64133 14.6549 9.11133C14.6549 9.58133 15.0349 9.96133 15.5049 9.96133C15.9749 9.96133 16.3549 9.58133 16.3549 9.11133C16.3549 8.64133 15.9749 8.26133 15.5049 8.26133ZM15.5049 16.0113C15.0349 16.0113 14.6549 16.3913 14.6549 16.8613C14.6549 17.3313 15.0349 17.7113 15.5049 17.7113C15.9749 17.7113 16.3549 17.3313 16.3549 16.8613C16.3549 16.3913 15.9749 16.0113 15.5049 16.0113ZM17.0849 12.9813C17.0849 15.1213 18.8249 16.8613 20.9649 16.8613C21.6749 16.8613 22.3349 16.6513 22.9049 16.3213V15.1313C22.3849 15.6013 21.7149 15.8913 20.9649 15.8913C19.3649 15.8913 18.0549 14.5813 18.0549 12.9813C18.0549 11.3813 19.3649 10.0713 20.9649 10.0713C21.7149 10.0713 22.3849 10.3613 22.9049 10.8313V9.64133C22.3349 9.31133 21.6749 9.10133 20.9649 9.10133C18.8249 9.10133 17.0849 10.8413 17.0849 12.9813Z" fill="#191919"/>
</svg>
