<svg width="25" height="25" viewBox="0 0 25 25" fill="none" xmlns="http://www.w3.org/2000/svg">
<path d="M22.8049 5.01133H11.7549H11.6549V5.11133V7.25133H7.1649C6.53931 7.25133 5.93593 7.49106 5.46847 7.90659L5.46844 7.90656L5.46656 7.90833L2.95656 10.2583L2.9249 10.288V10.3313V11.6313V11.8609L3.093 11.7046L6.23284 8.7847C6.23287 8.78468 6.2329 8.78465 6.23293 8.78462C6.48368 8.5525 6.80908 8.43133 7.1449 8.43133H11.6349V10.9823C10.9394 10.8779 10.1912 11.0627 9.61025 11.555L9.61011 11.5549L9.60537 11.5595L6.52537 14.5395L6.45389 14.6086L6.52266 14.6805L7.19266 15.3805L7.26217 15.4531L7.33443 15.3832L10.3918 12.4258C10.9038 11.9998 11.6564 12.0098 12.1585 12.4561L12.1587 12.4563C12.7166 12.9491 12.7633 13.8044 12.2717 14.3532L8.68304 18.0618L8.68299 18.0617L8.68057 18.0644C8.43011 18.3427 8.06741 18.5013 7.6849 18.5013H3.0249H2.9249V18.6013V19.5713V19.6713H3.0249H7.6949C8.3919 19.6713 9.06808 19.3804 9.54715 18.8605L11.6449 16.7535V20.8413V20.9413H11.7449H22.9049H23.0049V20.8413V19.8713V19.7713H22.9049H12.8149V15.4904L13.1385 15.1391L13.1385 15.1391L13.1396 15.1378C14.0663 14.0966 13.9726 12.5036 12.9418 11.577L12.9419 11.5768L12.9374 11.5732C12.9106 11.5518 12.8815 11.5307 12.8547 11.5112L12.8537 11.5105C12.8402 11.5006 12.8273 11.4912 12.8149 11.482V6.18133H22.9049H23.0049V6.08133V5.11133H22.9149V5.01133H22.9049H22.8049ZM22.955 16.4079L23.0049 16.379V16.3213V15.1313V14.9061L22.8378 15.0571C22.3346 15.512 21.688 15.7913 20.9649 15.7913C19.4201 15.7913 18.1549 14.5261 18.1549 12.9813C18.1549 11.4366 19.4201 10.1713 20.9649 10.1713C21.688 10.1713 22.3346 10.4507 22.8378 10.9055L23.0049 11.0565V10.8313V9.64133V9.58367L22.955 9.55479C22.3721 9.21729 21.695 9.00133 20.9649 9.00133C18.7697 9.00133 16.9849 10.7861 16.9849 12.9813C16.9849 15.1766 18.7697 16.9613 20.9649 16.9613C21.695 16.9613 22.3721 16.7454 22.955 16.4079ZM15.5049 8.16133C14.9797 8.16133 14.5549 8.5861 14.5549 9.11133C14.5549 9.63656 14.9797 10.0613 15.5049 10.0613C16.0301 10.0613 16.4549 9.63656 16.4549 9.11133C16.4549 8.5861 16.0301 8.16133 15.5049 8.16133ZM15.5049 15.9113C14.9797 15.9113 14.5549 16.3361 14.5549 16.8613C14.5549 17.3866 14.9797 17.8113 15.5049 17.8113C16.0301 17.8113 16.4549 17.3866 16.4549 16.8613C16.4549 16.3361 16.0301 15.9113 15.5049 15.9113Z" fill="#191919" stroke="#191919" stroke-width="0.2"/>
</svg>
