<svg width="25" height="25" viewBox="0 0 25 25" fill="none" xmlns="http://www.w3.org/2000/svg">
<path d="M6.99488 13.5756H6.84488V13.7256V14.4756V14.6256H6.99488H9.23488H9.38488V14.4756V13.7256V13.5756H9.23488H6.99488ZM6.84488 17.4556V17.6056H6.99488H9.23488H9.38488V17.4556V16.7056V16.5556H9.23488H6.99488H6.84488V16.7056V17.4556ZM10.5749 17.4556V17.6056H10.7249H12.9649H13.1149V17.4556V16.7056V16.5556H12.9649H10.7249H10.5749V16.7056V17.4556ZM6.84488 8.49563V8.64563H6.99488H9.23488H9.38488V8.49563V7.74563V7.59562H9.23488H6.99488H6.84488V7.74563V8.49563ZM6.84488 11.4856V11.6356H6.99488H9.23488H9.38488V11.4856V10.7356V10.5856H9.23488H6.99488H6.84488V10.7356V11.4856ZM10.5749 14.4656V14.6156H10.7249H12.9649H13.1149V14.4656V13.7156V13.5656H12.9649H10.7249H10.5749V13.7156V14.4656ZM10.5749 8.49563V8.64563H10.7249H12.9649H13.1149V8.49563V7.74563V7.59562H12.9649H10.7249H10.5749V7.74563V8.49563ZM10.5749 11.4856V11.6356H10.7249H12.9649H13.1149V11.4856V10.7356V10.5856H12.9649H10.7249H10.5749V10.7356V11.4856ZM17.2949 17.4556V17.6056H17.4449H18.9349H19.0849V17.4556V16.7056V16.5556H18.9349H17.4449H17.2949V16.7056V17.4556ZM17.2949 11.4856V11.6356H17.4449H18.9349H19.0849V11.4856V10.7356V10.5856H18.9349H17.4449H17.2949V10.7356V11.4856ZM17.2949 14.4656V14.6156H17.4449H18.9349H19.0849V14.4656V13.7156V13.5656H18.9349H17.4449H17.2949V13.7156V14.4656ZM16.1049 7.60562V5.88563C16.1049 4.77278 15.1977 3.86562 14.0849 3.86562H5.87488C4.76204 3.86562 3.85488 4.77278 3.85488 5.88563V21.9356V22.0856H4.00488H21.9249H22.0749V21.9356V9.97776L22.0849 9.98776V9.62563C22.0849 8.51278 21.1777 7.60562 20.0649 7.60562H16.1049ZM14.0849 4.91562C14.622 4.91562 15.0549 5.34847 15.0549 5.88563V21.0456H4.90488V5.88563C4.90488 5.34847 5.33773 4.91562 5.87488 4.91562H14.0849ZM20.0549 8.64563C20.592 8.64563 21.0249 9.07847 21.0249 9.61562V21.0356H16.0949V8.64563H20.0549Z" fill="#191919" stroke="#191919" stroke-width="0.3"/>
</svg>
