<svg width="25" height="25" viewBox="0 0 25 25" fill="none" xmlns="http://www.w3.org/2000/svg">
<path d="M12.9597 21.2973C11.9897 21.2973 11.1997 20.5073 11.1997 19.5373C11.1997 18.5673 11.9897 17.7773 12.9597 17.7773C13.9297 17.7773 14.7197 18.5673 14.7197 19.5373C14.7197 20.5073 13.9297 21.2973 12.9597 21.2973ZM12.9597 18.6573C12.4797 18.6573 12.0797 19.0573 12.0797 19.5373C12.0797 20.0173 12.4797 20.4173 12.9597 20.4173C13.4397 20.4173 13.8397 20.0173 13.8397 19.5373C13.8397 19.0573 13.4397 18.6573 12.9597 18.6573ZM18.5697 13.9373C17.0697 12.4373 15.0797 11.6173 12.9597 11.6173C10.8397 11.6173 8.84975 12.4473 7.34975 13.9373L7.97975 14.5573C9.30975 13.2273 11.0797 12.4973 12.9697 12.4973C14.8597 12.4973 16.6297 13.2273 17.9597 14.5573L18.5897 13.9373H18.5697ZM22.9297 9.57727C20.2697 6.91727 16.7197 5.44727 12.9597 5.44727C9.19975 5.44727 5.64975 6.91727 2.98975 9.57727L3.61975 10.1973C6.11975 7.70727 9.43975 6.33727 12.9697 6.33727C16.4997 6.33727 19.8197 7.70727 22.3197 10.1973L22.9497 9.57727H22.9297Z" fill="#191919"/>
<path d="M6.85965 22.3167L6.13965 21.7767L19.8796 3.63672L20.5996 4.17672L6.85965 22.3167Z" fill="#191919"/>
</svg>
