<svg width="25" height="25" viewBox="0 0 25 25" fill="none" xmlns="http://www.w3.org/2000/svg">
<path d="M18.956 13.7873H18.6315C17.1085 12.2869 15.0985 11.4673 12.9597 11.4673C10.7997 11.4673 8.77185 12.3132 7.24404 13.8308L7.1364 13.9378L7.24453 14.0442L7.87453 14.6642L7.98059 14.7686L8.08581 14.6633C9.38749 13.3617 11.1193 12.6473 12.9697 12.6473C14.8202 12.6473 16.552 13.3617 17.8537 14.6633L17.9589 14.7686L18.065 14.6642L18.695 14.0442L18.956 13.7873ZM23.316 9.42727H22.9917C20.3085 6.76688 16.7388 5.29727 12.9597 5.29727C9.15997 5.29727 5.57181 6.78307 2.88368 9.4712L2.77676 9.57812L2.88453 9.68418L3.51453 10.3042L3.62038 10.4083L3.7256 10.3035C6.19745 7.84158 9.47938 6.48727 12.9697 6.48727C16.4601 6.48727 19.742 7.84158 22.2139 10.3035L22.3191 10.4083L22.425 10.3042L23.055 9.68418L23.316 9.42727ZM11.0497 19.5373C11.0497 20.5901 11.9069 21.4473 12.9597 21.4473C14.0126 21.4473 14.8697 20.5901 14.8697 19.5373C14.8697 18.4844 14.0126 17.6273 12.9597 17.6273C11.9069 17.6273 11.0497 18.4844 11.0497 19.5373ZM12.2297 19.5373C12.2297 19.1401 12.5626 18.8073 12.9597 18.8073C13.3569 18.8073 13.6897 19.1401 13.6897 19.5373C13.6897 19.9344 13.3569 20.2673 12.9597 20.2673C12.5626 20.2673 12.2297 19.9344 12.2297 19.5373Z" fill="#191919" stroke="#191919" stroke-width="0.3"/>
<path d="M6.76965 22.4367L6.88908 22.5263L6.97922 22.4073L20.7192 4.26729L20.8102 4.14715L20.6896 4.05672L19.9696 3.51672L19.8502 3.42714L19.7601 3.54615L6.02008 21.6861L5.92908 21.8063L6.04965 21.8967L6.76965 22.4367Z" fill="#191919" stroke="#191919" stroke-width="0.3"/>
</svg>
