<svg width="25" height="25" viewBox="0 0 25 25" fill="none" xmlns="http://www.w3.org/2000/svg">
<path d="M10.2346 12.9773C12.7046 12.9773 14.7046 10.9673 14.7046 8.50734C14.7046 6.04734 12.7046 4.02734 10.2346 4.02734C7.76465 4.02734 5.76465 6.03734 5.76465 8.49734C5.76465 10.9573 7.77465 12.9673 10.2346 12.9673V12.9773ZM10.2346 4.77734C12.2946 4.77734 13.9646 6.44734 13.9646 8.50734C13.9646 10.5673 12.2946 12.2373 10.2346 12.2373C8.17465 12.2373 6.50465 10.5673 6.50465 8.50734C6.50465 6.44734 8.18465 4.77734 10.2346 4.77734ZM16.5746 12.2273C13.9046 12.2273 11.7246 14.3973 11.7246 17.0773C11.7246 19.7573 13.8946 21.9273 16.5746 21.9273C19.2546 21.9273 21.4246 19.7573 21.4246 17.0773C21.4246 14.3973 19.2546 12.2273 16.5746 12.2273ZM16.5746 21.1773C14.3146 21.1773 12.4746 19.3373 12.4746 17.0773C12.4746 14.8173 14.3146 12.9773 16.5746 12.9773C18.8346 12.9773 20.6746 14.8173 20.6746 17.0773C20.6746 19.3373 18.8346 21.1773 16.5746 21.1773ZM18.7646 15.6273L19.2846 16.1573L16.7046 18.6873C16.5446 18.8473 16.3246 18.9373 16.0946 18.9373C15.8646 18.9373 15.6446 18.8473 15.4746 18.6773L14.0946 17.3373L14.6146 16.7973L15.9946 18.1373C15.9946 18.1373 16.1346 18.1873 16.1746 18.1373L18.7546 15.5973L18.7646 15.6273ZM10.8046 14.4673C10.6946 14.7073 10.5946 14.9573 10.5146 15.2173H7.87465C6.43465 15.2173 5.26465 16.3873 5.26465 17.8273V21.9273H4.51465V17.8273C4.51465 15.9773 6.02465 14.4673 7.87465 14.4673H10.7946H10.8046Z" fill="#191919"/>
</svg>
