<svg width="25" height="25" viewBox="0 0 25 25" fill="none" xmlns="http://www.w3.org/2000/svg">
<path d="M10.0846 13.1149V13.1273H10.2346C12.7877 13.1273 14.8546 11.05 14.8546 8.50734C14.8546 5.96516 12.7881 3.87734 10.2346 3.87734C7.68159 3.87734 5.61465 5.95472 5.61465 8.49734C5.61465 10.99 7.61063 13.0352 10.0846 13.1149ZM18.6494 15.4905L16.0924 18.0078C16.0857 18.0068 16.0789 18.0054 16.0725 18.0038L14.7191 16.6897L14.6111 16.5848L14.5066 16.6933L13.9866 17.2333L13.883 17.3409L13.9902 17.445L15.3694 18.7843C15.5671 18.9815 15.8248 19.0873 16.0946 19.0873C16.3633 19.0873 16.6215 18.9823 16.8101 18.794C16.8103 18.7938 16.8105 18.7936 16.8107 18.7934L19.3897 16.2644L19.4968 16.1594L19.3917 16.0523L18.896 15.547L18.8209 15.3217L18.6494 15.4905ZM10.941 14.5298L11.0384 14.3173H10.8046H10.7946H7.87465C5.94181 14.3173 4.36465 15.8945 4.36465 17.8273V21.9273V22.0773H4.51465H5.26465H5.41465V21.9273V17.8273C5.41465 16.4702 6.51749 15.3673 7.87465 15.3673H10.5146H10.6254L10.658 15.2615C10.7357 15.0091 10.8331 14.7654 10.941 14.5298ZM10.2346 4.92734C12.2118 4.92734 13.8146 6.53019 13.8146 8.50734C13.8146 10.4845 12.2118 12.0873 10.2346 12.0873C8.25749 12.0873 6.65465 10.4845 6.65465 8.50734C6.65465 6.53045 8.26723 4.92734 10.2346 4.92734ZM16.5746 12.0773C13.822 12.0773 11.5746 14.3143 11.5746 17.0773C11.5746 19.8402 13.8118 22.0773 16.5746 22.0773C19.3375 22.0773 21.5746 19.8402 21.5746 17.0773C21.5746 14.3145 19.3375 12.0773 16.5746 12.0773ZM16.5746 21.0273C14.3975 21.0273 12.6246 19.2545 12.6246 17.0773C12.6246 14.9002 14.3975 13.1273 16.5746 13.1273C18.7518 13.1273 20.5246 14.9002 20.5246 17.0773C20.5246 19.2545 18.7518 21.0273 16.5746 21.0273Z" fill="#191919" stroke="#191919" stroke-width="0.3"/>
</svg>
