<svg width="25" height="25" viewBox="0 0 25 25" fill="none" xmlns="http://www.w3.org/2000/svg">
<path d="M10.5846 13.1149V13.1273H10.7346C13.2877 13.1273 15.3546 11.05 15.3546 8.50734C15.3546 5.96516 13.2881 3.87734 10.7346 3.87734C8.18159 3.87734 6.11465 5.95472 6.11465 8.49734C6.11465 10.99 8.11063 13.0352 10.5846 13.1149ZM19.1494 15.4905L16.5924 18.0078C16.5857 18.0068 16.5789 18.0054 16.5725 18.0038L15.2191 16.6897L15.1111 16.5848L15.0066 16.6933L14.4866 17.2333L14.383 17.3409L14.4902 17.445L15.8694 18.7843C16.0671 18.9815 16.3248 19.0873 16.5946 19.0873C16.8633 19.0873 17.1215 18.9823 17.3101 18.794C17.3103 18.7938 17.3105 18.7936 17.3107 18.7934L19.8897 16.2644L19.9968 16.1594L19.8917 16.0523L19.396 15.547L19.3209 15.3217L19.1494 15.4905ZM11.691 14.5298L11.7884 14.3173H11.5546H11.5446H7.37465C5.44181 14.3173 3.86465 15.8945 3.86465 17.8273V21.9273V22.0773H4.01465H4.76465H4.91465V21.9273V17.8273C4.91465 16.4702 6.01749 15.3673 7.37465 15.3673H11.2646H11.3754L11.408 15.2615C11.4857 15.0091 11.5831 14.7654 11.691 14.5298ZM10.7346 4.92734C12.7118 4.92734 14.3146 6.53019 14.3146 8.50734C14.3146 10.4845 12.7118 12.0873 10.7346 12.0873C8.75749 12.0873 7.15465 10.4845 7.15465 8.50734C7.15465 6.53045 8.76723 4.92734 10.7346 4.92734ZM17.0746 12.0773C14.322 12.0773 12.0746 14.3143 12.0746 17.0773C12.0746 19.8402 14.3118 22.0773 17.0746 22.0773C19.8375 22.0773 22.0746 19.8402 22.0746 17.0773C22.0746 14.3145 19.8375 12.0773 17.0746 12.0773ZM17.0746 21.0273C14.8975 21.0273 13.1246 19.2545 13.1246 17.0773C13.1246 14.9002 14.8975 13.1273 17.0746 13.1273C19.2518 13.1273 21.0246 14.9002 21.0246 17.0773C21.0246 19.2545 19.2518 21.0273 17.0746 21.0273Z" fill="#191919" stroke="#191919" stroke-width="0.3"/>
</svg>
