<svg width="25" height="25" viewBox="0 0 25 25" fill="none" xmlns="http://www.w3.org/2000/svg">
<path d="M10.7346 12.9773C13.2046 12.9773 15.2046 10.9673 15.2046 8.50734C15.2046 6.04734 13.2046 4.02734 10.7346 4.02734C8.26465 4.02734 6.26465 6.03734 6.26465 8.49734C6.26465 10.9573 8.27465 12.9673 10.7346 12.9673V12.9773ZM10.7346 4.77734C12.7946 4.77734 14.4646 6.44734 14.4646 8.50734C14.4646 10.5673 12.7946 12.2373 10.7346 12.2373C8.67465 12.2373 7.00465 10.5673 7.00465 8.50734C7.00465 6.44734 8.68465 4.77734 10.7346 4.77734ZM17.0746 12.2273C14.4046 12.2273 12.2246 14.3973 12.2246 17.0773C12.2246 19.7573 14.3946 21.9273 17.0746 21.9273C19.7546 21.9273 21.9246 19.7573 21.9246 17.0773C21.9246 14.3973 19.7546 12.2273 17.0746 12.2273ZM17.0746 21.1773C14.8146 21.1773 12.9746 19.3373 12.9746 17.0773C12.9746 14.8173 14.8146 12.9773 17.0746 12.9773C19.3346 12.9773 21.1746 14.8173 21.1746 17.0773C21.1746 19.3373 19.3346 21.1773 17.0746 21.1773ZM19.2646 15.6273L19.7846 16.1573L17.2046 18.6873C17.0446 18.8473 16.8246 18.9373 16.5946 18.9373C16.3646 18.9373 16.1446 18.8473 15.9746 18.6773L14.5946 17.3373L15.1146 16.7973L16.4946 18.1373C16.4946 18.1373 16.6346 18.1873 16.6746 18.1373L19.2546 15.5973L19.2646 15.6273ZM11.5546 14.4673C11.4446 14.7073 11.3446 14.9573 11.2646 15.2173H7.37465C5.93465 15.2173 4.76465 16.3873 4.76465 17.8273V21.9273H4.01465V17.8273C4.01465 15.9773 5.52465 14.4673 7.37465 14.4673H11.5446H11.5546Z" fill="#191919"/>
</svg>
