<svg width="25" height="25" viewBox="0 0 25 25" fill="none" xmlns="http://www.w3.org/2000/svg">
<path d="M10.8701 14.7963C8.43011 11.2263 9.51011 6.61633 11.5401 3.83633L12.1601 2.98633L11.1201 3.17633C10.1101 3.35633 9.07011 3.81633 7.95011 4.58633C3.36011 7.71633 2.18011 13.9963 5.31011 18.5763C8.45011 23.1663 14.7401 24.3463 19.3301 21.2163C20.4501 20.4563 21.1901 19.7263 21.7901 18.7863L22.3801 17.8763L21.3301 18.1563C18.0001 19.0363 13.3101 18.3563 10.8601 14.7963H10.8701ZM18.8601 20.5163C14.6501 23.3863 8.88011 22.3063 6.01011 18.0963C3.13011 13.9063 4.22011 8.14633 8.43011 5.27633C9.07011 4.83633 9.66011 4.51633 10.2401 4.29633C8.47011 7.33633 7.77011 11.7463 10.1801 15.2663C12.5901 18.7863 16.9601 19.7363 20.4301 19.1963C20.0101 19.6563 19.5201 20.0763 18.8601 20.5163Z" fill="#191919"/>
</svg>
