<svg width="25" height="25" viewBox="0 0 25 25" fill="none" xmlns="http://www.w3.org/2000/svg">
<path d="M11.1519 14.9463H11.1543L10.9939 14.7117C8.60218 11.2123 9.65388 6.6738 11.6613 3.92479L11.6613 3.92472L12.2813 3.07472L12.5026 2.77127L12.1332 2.83877L11.0938 3.02865C11.0937 3.02867 11.0936 3.02869 11.0935 3.02871C10.0572 3.21345 8.99761 3.68418 7.86534 4.46258C3.20703 7.63937 2.00957 14.0126 5.18627 18.661L5.18631 18.661C8.37304 23.3193 14.7562 24.5168 19.4145 21.3404C20.5475 20.5715 21.3032 19.8278 21.9162 18.8676C21.9163 18.8674 21.9164 18.8672 21.9165 18.867L22.506 17.9579L22.7179 17.631L22.3415 17.7314L21.2918 18.0113C21.2917 18.0113 21.2916 18.0114 21.2915 18.0114C18.0743 18.8615 13.5958 18.2316 11.1519 14.9463ZM18.7769 20.3915L18.7756 20.3924C14.6338 23.2159 8.95719 22.1531 6.13405 18.0118L6.13372 18.0114C3.30103 13.8902 4.37287 8.22373 8.5146 5.40027L8.51509 5.39993C9.0015 5.06553 9.45644 4.8028 9.89818 4.60158C8.26909 7.65397 7.70249 11.9131 10.0563 15.3511C12.4097 18.7883 16.5891 19.8078 20.0202 19.4037C19.6759 19.738 19.2767 20.0583 18.7769 20.3915Z" fill="#191919" stroke="#191919" stroke-width="0.3"/>
</svg>
