<svg width="25" height="25" viewBox="0 0 25 25" fill="none" xmlns="http://www.w3.org/2000/svg">
<path d="M18.5749 5.50172H17.4549V4.38172C17.4549 4.17172 17.2849 4.01172 17.0849 4.01172C16.8849 4.01172 16.7149 4.18172 16.7149 4.38172V5.50172H9.24488V4.38172C9.24488 4.17172 9.07488 4.01172 8.87488 4.01172C8.67488 4.01172 8.50488 4.18172 8.50488 4.38172V5.50172H7.38488C5.51488 5.50172 4.00488 7.01172 4.00488 8.87172V18.5817C4.00488 20.4317 5.51488 21.9417 7.36488 21.9417H18.5749C20.4249 21.9417 21.9349 20.4317 21.9349 18.5817V8.87172C21.9349 7.02172 20.4249 5.51172 18.5749 5.51172V5.50172ZM7.36488 6.25172H18.5749C20.0149 6.25172 21.1849 7.42172 21.1849 8.86172V9.98172H4.75488V8.86172C4.75488 7.42172 5.92488 6.25172 7.36488 6.25172ZM18.5749 21.1917H7.36488C5.92488 21.1917 4.75488 20.0217 4.75488 18.5817V10.7417H21.1949V18.5817C21.1949 20.0217 20.0249 21.1917 18.5849 21.1917H18.5749ZM15.9549 15.5917C15.9549 15.8017 15.7849 15.9617 15.5849 15.9617H10.3549C10.1449 15.9617 9.98488 15.7917 9.98488 15.5917C9.98488 15.3917 10.1549 15.2217 10.3549 15.2217H15.5849C15.7949 15.2217 15.9549 15.3917 15.9549 15.5917Z" fill="#191919"/>
</svg>
