<svg width="25" height="25" viewBox="0 0 25 25" fill="none" xmlns="http://www.w3.org/2000/svg">
<path d="M8.35488 5.35172H7.38488C5.43233 5.35172 3.85488 6.92859 3.85488 8.87172V18.5817C3.85488 20.5146 5.43204 22.0917 7.36488 22.0917H18.5749C20.5077 22.0917 22.0849 20.5146 22.0849 18.5817V8.87172C22.0849 6.98912 20.5887 5.44396 18.7249 5.36489V5.35172H18.5749H17.6049V4.38172C17.6049 4.08625 17.3651 3.86172 17.0849 3.86172C16.802 3.86172 16.5649 4.09888 16.5649 4.38172V5.35172H9.39488V4.38172C9.39488 4.08625 9.15507 3.86172 8.87488 3.86172C8.59204 3.86172 8.35488 4.09888 8.35488 4.38172V5.35172ZM7.36488 6.40172H18.5749C19.932 6.40172 21.0349 7.50456 21.0349 8.86172V9.83172H4.90488V8.86172C4.90488 7.50456 6.00773 6.40172 7.36488 6.40172ZM18.5749 21.0417H7.36488C6.00773 21.0417 4.90488 19.9389 4.90488 18.5817V10.8917H21.0449V18.5817C21.0449 19.9389 19.942 21.0417 18.5849 21.0417H18.5749ZM15.5849 16.1117C15.8651 16.1117 16.1049 15.8872 16.1049 15.5917C16.1049 15.3115 15.8804 15.0717 15.5849 15.0717H10.3549C10.072 15.0717 9.83488 15.3089 9.83488 15.5917C9.83488 15.8719 10.0594 16.1117 10.3549 16.1117H15.5849Z" fill="#191919" stroke="#191919" stroke-width="0.3"/>
</svg>
