<svg width="25" height="25" viewBox="0 0 25 25" fill="none" xmlns="http://www.w3.org/2000/svg">
<path d="M20.9846 6.6093H18.0446V4.6393C18.0446 3.5193 17.1346 3.0293 16.0146 3.0293H9.92459C8.80459 3.0293 7.89459 3.5193 7.89459 4.6393V6.6093H4.95459V7.5593H5.98459V20.7093C5.98459 22.3893 6.51459 22.9193 8.19459 22.9193H17.7346C19.3746 22.9793 19.8846 22.3393 19.9446 20.7093V7.5593H20.9746V6.6093H20.9846ZM8.89459 3.9193H17.0446V6.6093H8.89459V3.9193ZM18.9946 20.7093C19.0646 21.5693 18.5446 22.0193 17.9846 22.0193H7.95459C7.09459 22.0793 6.94459 21.2693 6.94459 20.7093V7.5593H19.0046V20.7093H18.9946Z" fill="#191919"/>
<path d="M11.9544 11.8594H11.0044V17.6694H11.9544V11.8594Z" fill="#191919"/>
<path d="M14.9344 11.8594H13.9844V17.6694H14.9344V11.8594Z" fill="#191919"/>
</svg>
