<svg width="25" height="25" viewBox="0 0 25 25" fill="none" xmlns="http://www.w3.org/2000/svg">
<path d="M4.95459 7.6593H5.88459V20.7093C5.88459 21.5536 6.01626 22.1424 6.38888 22.515C6.7615 22.8876 7.35031 23.0193 8.19459 23.0193H17.7328C18.5611 23.0494 19.1347 22.9045 19.5044 22.5171C19.8714 22.1326 20.0144 21.5321 20.0445 20.713L20.0446 20.713V20.7093V7.6593H20.9746H21.0746V7.5593V6.6093H20.9846V6.5093H20.9746H20.8746H18.1446V4.6393C18.1446 4.04811 17.9024 3.61483 17.5077 3.33292C17.1176 3.05425 16.5871 2.9293 16.0146 2.9293H9.92459C9.35204 2.9293 8.82161 3.05425 8.43147 3.33292C8.0368 3.61483 7.79459 4.04811 7.79459 4.6393V6.5093H4.95459H4.85459V6.6093V7.5593V7.6593H4.95459ZM18.9046 20.6093H18.8861L18.8949 20.7174C18.9281 21.1255 18.821 21.425 18.6504 21.6212C18.4793 21.8179 18.2376 21.9193 17.9846 21.9193H7.95459V21.9191L7.94763 21.9195C7.74895 21.9334 7.59846 21.8967 7.48314 21.8316C7.36754 21.7663 7.28027 21.6684 7.21482 21.5488C7.08202 21.3061 7.04459 20.9841 7.04459 20.7093V7.6593H18.9046V20.6093ZM8.99459 4.0193H16.9446V6.5093H8.99459V4.0193Z" fill="#191919" stroke="#191919" stroke-width="0.2"/>
<path d="M12.0544 11.8594V11.7594H11.9544H11.0044H10.9044V11.8594V17.6694V17.7694H11.0044H11.9544H12.0544V17.6694V11.8594Z" fill="#191919" stroke="#191919" stroke-width="0.2"/>
<path d="M15.0344 11.8594V11.7594H14.9344H13.9844H13.8844V11.8594V17.6694V17.7694H13.9844H14.9344H15.0344V17.6694V11.8594Z" fill="#191919" stroke="#191919" stroke-width="0.2"/>
</svg>
