<svg width="25" height="25" viewBox="0 0 25 25" fill="none" xmlns="http://www.w3.org/2000/svg">
<path d="M9.1648 23.0859H16.6348V23.0959H16.7848C18.3776 23.0959 19.6648 21.8087 19.6648 20.2159V5.74586C19.6648 4.15302 18.3676 2.85586 16.7748 2.85586H9.1548C7.56196 2.85586 6.2748 4.14302 6.2748 5.73586V20.1959C6.2748 21.7887 7.57196 23.0859 9.1648 23.0859ZM7.2648 5.80586C7.2648 5.3351 7.50653 4.84358 7.88012 4.46642C8.25382 4.08916 8.74006 3.84586 9.2048 3.84586H16.7048C17.17 3.84586 17.6563 4.08709 18.0298 4.46176C18.4032 4.83634 18.6448 5.32525 18.6448 5.79586V20.1159C18.6448 20.5862 18.401 21.0776 18.0248 21.455C17.6486 21.8324 17.1597 22.0759 16.6948 22.0759H9.2048C8.73959 22.0759 8.25327 21.8346 7.87979 21.46C7.50639 21.0854 7.2648 20.5965 7.2648 20.1259V5.80586ZM14.7848 20.1159C14.7848 19.8215 14.4922 19.6359 14.2148 19.6359H11.7148C11.4374 19.6359 11.1448 19.8215 11.1448 20.1159C11.1448 20.4102 11.4374 20.5959 11.7148 20.5959H14.2148C14.4922 20.5959 14.7848 20.4102 14.7848 20.1159Z" fill="#191919" stroke="#191919" stroke-width="0.3"/>
</svg>
