<svg width="25" height="25" viewBox="0 0 25 25" fill="none" xmlns="http://www.w3.org/2000/svg">
<path d="M4.03467 12.0766H3.88467V12.2266V12.9666V13.1166H4.03467H21.9047H22.0547V12.9666V12.2266V12.0766H21.9047H4.03467ZM9.24467 4.95664H9.39467V4.80664V4.06664V3.91664H9.24467H5.89539C4.79198 3.90623 3.88467 4.80381 3.88467 5.91664V9.25664V9.40664H4.03467H4.77467H4.92467V9.25664V5.91664C4.92467 5.39036 5.35663 4.95664 5.89467 4.95664H9.24467ZM4.92467 16.6966V16.5466H4.77467H4.03467H3.88467V16.6966V20.0366C3.88467 21.1395 4.79183 22.0466 5.89467 22.0466H9.24467H9.39467V21.8966V21.1566V21.0066H9.24467H5.89467C5.35663 21.0066 4.92467 20.5729 4.92467 20.0466V20.0366V16.6966ZM16.6847 20.9966H16.5347V21.1466V21.8866V22.0366H16.6847H20.0347C21.1475 22.0366 22.0447 21.1395 22.0447 20.0266V16.6866V16.5366H21.8947H21.1547H21.0047V16.6866V20.0266V20.0366C21.0047 20.5629 20.5727 20.9966 20.0347 20.9966H16.6847ZM16.6947 3.90664H16.5447V4.05664V4.79664V4.94664H16.6947H20.0447C20.5827 4.94664 21.0147 5.38036 21.0147 5.90664V9.24664V9.39664H21.1647H21.9047H22.0547V9.24664V5.91664C22.0547 4.8138 21.1475 3.90664 20.0447 3.90664H16.6947Z" fill="#191919" stroke="#191919" stroke-width="0.3"/>
</svg>
