<svg width="25" height="25" viewBox="0 0 25 25" fill="none" xmlns="http://www.w3.org/2000/svg">
<path d="M16.6849 13.7208V14.8408C16.6849 15.8708 15.8549 16.7008 14.8249 16.7008H11.1049C10.0749 16.7008 9.24492 15.8708 9.24492 14.8408V13.7208H4.04492V20.0408C4.04492 21.0708 4.87492 21.9008 5.90492 21.9008H20.0349C21.0649 21.9008 21.8949 21.0708 21.8949 20.0408V13.7208H16.6849ZM21.1449 20.0408C21.1449 20.6608 20.6449 21.1608 20.0249 21.1608H5.90492C5.28492 21.1608 4.78492 20.6608 4.78492 20.0408V14.4608H8.50492V14.8308C8.50492 16.2708 9.67492 17.4308 11.1049 17.4308H14.8249C16.2649 17.4308 17.4249 16.2608 17.4249 14.8308V14.4608H21.1449V20.0408ZM15.6849 8.93078L16.2149 9.46078L13.7649 11.9108C13.3349 12.3408 12.6249 12.3408 12.1849 11.9108L9.73492 9.46078L10.2649 8.93078L12.6049 11.2708V4.05078H13.3449V11.2708L15.6849 8.93078Z" fill="#191919"/>
</svg>
