<svg width="25" height="25" viewBox="0 0 25 25" fill="none" xmlns="http://www.w3.org/2000/svg">
<path d="M15.2305 3.94453L15.1866 3.90078H15.1246H6.98463C5.80179 3.90078 4.84463 4.85794 4.84463 6.04078V21.9008V22.0508H4.99463H20.9446H21.0946V21.9008V9.85078V9.7885L21.0505 9.74453L15.2305 3.94453ZM14.5746 10.5708H20.0046V20.9508H5.94463V6.04078C5.94463 5.46525 6.41583 5.00078 6.99463 5.00078H14.4246V10.4208V10.5708H14.5746ZM16.1907 15.0447L16.0846 14.9386L15.9786 15.0447L13.5346 17.4886V11.5608V11.4108H13.3846H12.5846H12.4346V11.5608V17.4886L9.99069 15.0447L9.88463 14.9386L9.77856 15.0447L9.21856 15.6047L9.1125 15.7108L9.21856 15.8168L11.7677 18.366C12.0987 18.7075 12.5487 18.8708 12.9846 18.8708C13.4225 18.8708 13.8612 18.7063 14.2007 18.3668L16.7507 15.8168L16.8568 15.7108L16.7507 15.6047L16.1907 15.0447ZM15.5146 9.47078V5.77231L19.2219 9.47078H15.5146Z" fill="#191919" stroke="#191919" stroke-width="0.3"/>
</svg>
