<svg width="25" height="25" viewBox="0 0 25 25" fill="none" xmlns="http://www.w3.org/2000/svg">
<path d="M16.6849 13.5708H16.5349V13.7208V14.8408C16.5349 15.7879 15.7721 16.5508 14.8249 16.5508H11.1049C10.1578 16.5508 9.39492 15.7879 9.39492 14.8408V13.7208V13.5708H9.24492H4.04492H3.89492V13.7208V20.0408C3.89492 21.1536 4.79208 22.0508 5.90492 22.0508H20.0349C21.1478 22.0508 22.0449 21.1536 22.0449 20.0408V13.7208V13.5708H21.8949H16.6849ZM15.791 8.82472L15.6849 8.71865L15.5789 8.82472L13.4949 10.9086V4.05078V3.90078H13.3449H12.6049H12.4549V4.05078V10.9086L10.371 8.82472L10.2649 8.71865L10.1589 8.82472L9.62886 9.35471L9.52279 9.46078L9.62886 9.56685L12.0789 12.0168L12.0788 12.0169L12.0801 12.0181C12.5777 12.5044 13.3817 12.5061 13.871 12.0168L16.321 9.56685L16.4271 9.46078L16.321 9.35471L15.791 8.82472ZM20.9949 20.0408C20.9949 20.5779 20.5621 21.0108 20.0249 21.0108H5.90492C5.36776 21.0108 4.93492 20.5779 4.93492 20.0408V14.6108H8.35492V14.8308C8.35492 16.354 9.59245 17.5808 11.1049 17.5808H14.8249C16.3481 17.5808 17.5749 16.3432 17.5749 14.8308V14.6108H20.9949V20.0408Z" fill="#191919" stroke="#191919" stroke-width="0.3"/>
</svg>
