<svg width="25" height="25" viewBox="0 0 25 25" fill="none" xmlns="http://www.w3.org/2000/svg">
<path d="M15.1246 4.05078H6.98463C5.88463 4.05078 4.99463 4.94078 4.99463 6.04078V21.9008H20.9446V9.85078L15.1246 4.05078ZM15.3646 5.41078L19.5846 9.62078H15.3646V5.41078ZM5.79463 21.1008V6.04078C5.79463 5.38078 6.33463 4.85078 6.99463 4.85078H14.5746V10.4208H20.1546V21.1008H5.79463ZM16.0846 15.1508L16.6446 15.7108L14.0946 18.2608C13.7846 18.5708 13.3846 18.7208 12.9846 18.7208C12.5846 18.7208 12.1746 18.5708 11.8746 18.2608L9.32463 15.7108L9.88463 15.1508L12.4346 17.7008C12.4346 17.7008 12.5346 17.7808 12.5846 17.8208V11.5608H13.3846V17.8208C13.4346 17.7908 13.4846 17.7508 13.5346 17.7008L16.0846 15.1508Z" fill="#191919"/>
</svg>
