<svg width="25" height="25" viewBox="0 0 25 25" fill="none" xmlns="http://www.w3.org/2000/svg">
<path d="M23.1049 12.9759V12.8259H23.0938C23.0132 7.31179 18.4974 2.85586 12.9649 2.85586C7.38212 2.85586 2.83486 7.40292 2.83486 12.9759C2.83486 18.549 7.39231 23.0959 12.9749 23.0959C18.5575 23.0959 23.1049 18.5589 23.1049 12.9759ZM12.9649 3.98586C17.8821 3.98586 21.8931 7.93791 21.9736 12.8259H21.9649V12.9759C21.9649 17.9227 17.9223 21.9559 12.9649 21.9559C8.00728 21.9559 3.96486 17.9326 3.96486 12.9759C3.96486 8.01881 7.9976 3.98586 12.9649 3.98586Z" fill="#191919" stroke="#191919" stroke-width="0.3"/>
<path d="M11.0567 17.0138L11.0568 17.0139L11.0595 17.0098L15.9595 9.65985L15.9595 9.65985L15.9603 9.65858C16.1543 9.36108 16.0777 8.96833 15.7779 8.77184C15.4883 8.5754 15.085 8.65512 14.8895 8.95402L9.98988 16.3034L9.98987 16.3034L9.98905 16.3047C9.79561 16.6013 9.87122 16.9926 10.1687 17.1897C10.2827 17.2733 10.4167 17.2966 10.5247 17.2966C10.7368 17.2966 10.9308 17.1902 11.0567 17.0138ZM10.0347 8.65664C9.41184 8.65664 8.90469 9.1638 8.90469 9.78664C8.90469 10.4095 9.41184 10.9166 10.0347 10.9166C10.6575 10.9166 11.1647 10.4095 11.1647 9.78664C11.1647 9.1638 10.6575 8.65664 10.0347 8.65664ZM15.9147 14.5366C15.2918 14.5366 14.7847 15.0438 14.7847 15.6666C14.7847 16.2895 15.2918 16.7966 15.9147 16.7966C16.5375 16.7966 17.0447 16.2895 17.0447 15.6666C17.0447 15.0438 16.5375 14.5366 15.9147 14.5366Z" fill="#191919" stroke="#191919" stroke-width="0.3"/>
</svg>
