<svg width="25" height="25" viewBox="0 0 25 25" fill="none" xmlns="http://www.w3.org/2000/svg">
<path d="M17.0746 12.2615C14.4046 12.2615 12.2246 14.4415 12.2246 17.1115C12.2246 19.7815 14.4046 21.9315 17.0746 21.9315C19.7446 21.9315 21.9246 19.7515 21.9246 17.0815C21.9246 14.4115 19.7446 12.2615 17.0746 12.2615ZM17.0746 21.1815C14.8146 21.1815 12.9746 19.3515 12.9746 17.1015C12.9746 14.8515 14.8146 13.0015 17.0746 13.0015C19.3346 13.0015 21.1746 14.8315 21.1746 17.0815C21.1746 19.3315 19.3346 21.1815 17.0746 21.1815ZM18.0846 17.5615C18.2346 17.7115 18.2346 17.9415 18.0846 18.0915C18.0146 18.1615 17.9146 18.2015 17.8246 18.2015C17.7346 18.2015 17.6346 18.1615 17.5646 18.0915L16.8146 17.3415C16.7446 17.2715 16.7046 17.1815 16.7046 17.0815V15.5915C16.7046 15.3815 16.8746 15.2215 17.0746 15.2215C17.2746 15.2215 17.4446 15.3915 17.4446 15.5915V16.9315L18.0846 17.5715V17.5615ZM18.5646 5.51148H17.4446V4.39148C17.4446 4.18148 17.2746 4.02148 17.0746 4.02148C16.8746 4.02148 16.7046 4.19148 16.7046 4.39148V5.51148H9.24465V4.39148C9.24465 4.18148 9.07465 4.02148 8.87465 4.02148C8.67465 4.02148 8.50465 4.19148 8.50465 4.39148V5.51148H7.38465C5.52465 5.51148 4.01465 7.02148 4.01465 8.87148V18.5715C4.01465 20.4215 5.52465 21.9315 7.37465 21.9315H11.8546C12.0646 21.9315 12.2246 21.7615 12.2246 21.5615C12.2246 21.3615 12.0546 21.1915 11.8546 21.1915H7.37465C5.93465 21.1915 4.76465 20.0215 4.76465 18.5815V10.7415H21.1846V11.8615C21.1846 12.0715 21.3546 12.2315 21.5546 12.2315C21.7547 12.2315 21.9246 12.0615 21.9246 11.8615V8.87148C21.9246 7.02148 20.4146 5.51148 18.5646 5.51148ZM4.76465 9.99148V8.87148C4.76465 7.43148 5.93465 6.26148 7.37465 6.26148H18.5646C20.0046 6.26148 21.1746 7.43148 21.1746 8.87148V9.99148H4.76465Z" fill="#191919"/>
</svg>
