<svg width="25" height="25" viewBox="0 0 25 25" fill="none" xmlns="http://www.w3.org/2000/svg">
<path d="M18.1907 17.4554L17.9346 17.1994V17.2094L17.5946 16.8694V15.5915C17.5946 15.3086 17.3575 15.0715 17.0746 15.0715C16.7945 15.0715 16.5546 15.296 16.5546 15.5915V17.0815C16.5546 17.2239 16.6123 17.3513 16.7086 17.4475L17.4586 18.1975C17.5564 18.2954 17.6944 18.3515 17.8246 18.3515C17.9549 18.3515 18.0929 18.2954 18.1907 18.1975C18.3993 17.989 18.3993 17.664 18.1907 17.4554ZM17.0746 12.1115C14.3218 12.1115 12.0746 14.3586 12.0746 17.1115C12.0746 19.8655 14.323 22.0815 17.0746 22.0815C19.8275 22.0815 22.0746 19.8343 22.0746 17.0815C22.0746 14.3274 19.8263 12.1115 17.0746 12.1115ZM17.0746 21.0315C14.8968 21.0315 13.1246 19.2679 13.1246 17.1015C13.1246 14.9341 14.8977 13.1515 17.0746 13.1515C19.2525 13.1515 21.0246 14.915 21.0246 17.0815C21.0246 19.2489 19.2516 21.0315 17.0746 21.0315ZM18.5646 5.36148H17.5946V4.39148C17.5946 4.09601 17.3548 3.87148 17.0746 3.87148C16.7918 3.87148 16.5546 4.10864 16.5546 4.39148V5.36148H9.39465V4.39148C9.39465 4.09601 9.15484 3.87148 8.87465 3.87148C8.59181 3.87148 8.35465 4.10864 8.35465 4.39148V5.36148H7.38465C5.4421 5.36148 3.86465 6.93835 3.86465 8.87148V18.5715C3.86465 20.5043 5.44181 22.0815 7.37465 22.0815H11.8546C12.1501 22.0815 12.3746 21.8417 12.3746 21.5615C12.3746 21.2786 12.1375 21.0415 11.8546 21.0415H7.37465C6.01749 21.0415 4.91465 19.9386 4.91465 18.5815V10.8915H21.0346V11.8615C21.0346 12.157 21.2745 12.3815 21.5546 12.3815C21.8375 12.3815 22.0746 12.1443 22.0746 11.8615V8.87148C22.0746 6.93864 20.4975 5.36148 18.5646 5.36148ZM4.91465 9.84148V8.87148C4.91465 7.51433 6.01749 6.41148 7.37465 6.41148H18.5646C19.9218 6.41148 21.0246 7.51433 21.0246 8.87148V9.84148H4.91465Z" fill="#191919" stroke="#191919" stroke-width="0.3"/>
</svg>
