<svg width="25" height="25" viewBox="0 0 25 25" fill="none" xmlns="http://www.w3.org/2000/svg">
<path d="M3.88955 21.9069V22.0569H4.03955H21.8996H22.0496V21.9069V5.90688C22.0496 4.79351 21.1419 3.89687 20.0396 3.89687H5.89955C4.79723 3.89687 3.88955 4.79351 3.88955 5.90688V21.9069ZM14.8842 8.21006L14.8836 8.21066L7.62363 15.4507L7.57955 15.4946V15.5569V18.1869V18.3369H7.72955H10.3696H10.4316L10.4755 18.2931L17.7355 11.0531L17.7356 11.0529C18.5237 10.2649 18.5248 8.98962 17.7353 8.21044C16.9762 7.45182 15.6521 7.45301 14.8842 8.21006ZM21.0096 21.0169H4.93955V5.90688C4.93955 5.36972 5.37239 4.93687 5.90955 4.93687H20.0396C20.5767 4.93687 21.0096 5.36972 21.0096 5.90688V21.0169ZM15.3173 11.9868L9.9975 17.2969H8.62955V15.9291L13.9495 10.6189L15.3173 11.9868ZM16.9935 10.3108L16.0596 11.2447L14.6917 9.87687L15.6256 8.94294C15.987 8.58152 16.6321 8.58152 16.9935 8.94294C17.3749 9.32436 17.3749 9.92939 16.9935 10.3108Z" fill="#191919" stroke="#191919" stroke-width="0.3"/>
</svg>
