<svg width="25" height="25" viewBox="0 0 25 25" fill="none" xmlns="http://www.w3.org/2000/svg">
<path d="M20.0396 4.04688H5.89955C4.87955 4.04688 4.03955 4.87688 4.03955 5.90688V21.9069H21.8996V5.90688C21.8996 4.87688 21.0596 4.04688 20.0396 4.04688ZM21.1596 21.1669H4.78955V5.90688C4.78955 5.28688 5.28955 4.78688 5.90955 4.78688H20.0396C20.6596 4.78688 21.1596 5.28688 21.1596 5.90688V21.1669ZM14.9896 8.31687L7.72955 15.5569V18.1869H10.3696L17.6296 10.9469C18.3596 10.2169 18.3596 9.03687 17.6296 8.31687C16.9296 7.61687 15.6996 7.61687 14.9896 8.31687ZM10.0596 17.4469H8.47955V15.8669L13.9496 10.4069L15.5296 11.9869L10.0596 17.4469ZM17.0996 10.4169L16.0596 11.4569L14.4796 9.87687L15.5196 8.83687C15.9396 8.41687 16.6796 8.41687 17.0996 8.83687C17.5396 9.27688 17.5396 9.97687 17.0996 10.4169Z" fill="#191919"/>
</svg>
