<svg width="25" height="25" viewBox="0 0 25 25" fill="none" xmlns="http://www.w3.org/2000/svg">
<path d="M19.3569 15.5057L19.2516 15.3985L19.1446 15.5039L16.5897 18.019L15.2243 16.6932L15.1172 16.5892L15.0127 16.6957L14.4927 17.2257L14.3867 17.3338L14.4957 17.4388L15.8732 18.7664C16.0626 18.9661 16.3216 19.0708 16.5898 19.0708C16.8585 19.0708 17.1167 18.9658 17.3054 18.7773C17.3055 18.7772 17.3057 18.777 17.3059 18.7768L19.875 16.2477L19.9818 16.1426L19.8769 16.0357L19.3569 15.5057ZM6.8698 12.2308V12.3808H7.0198H12.5617H12.9798H12.9898V12.2429L13.0752 12.3466C13.4078 12.0726 13.7697 11.8281 14.1509 11.6229L14.0798 11.3408H7.0198H6.8698V11.4908V12.2308ZM12.9898 22.0508H13.1398V21.9008V21.8908V21.8195L13.0846 21.7745C12.8225 21.561 12.5789 21.3175 12.354 21.0535L12.3091 21.0008H12.2398H4.9398V5.91078C4.9398 5.37449 5.38178 4.94078 5.9098 4.94078H15.5798C16.1161 4.94078 16.5498 5.38275 16.5498 5.91078V10.7508V10.9138L16.7123 10.9003C16.8249 10.8909 16.9485 10.8908 17.0698 10.8908C17.1263 10.8908 17.1857 10.8931 17.2488 10.8957L17.2503 10.8957C17.3118 10.8982 17.3768 10.9008 17.4398 10.9008H17.5898V10.7508V5.91078C17.5898 4.79794 16.6926 3.90078 15.5798 3.90078H5.9098C4.79696 3.90078 3.8998 4.79794 3.8998 5.91078V21.9008V22.0508H4.0498H12.9898ZM14.4598 8.66078H14.6098V8.51078V7.77078V7.62078H14.4598H7.0198H6.8698V7.77078V8.51078V8.66078H7.0198H14.4598ZM7.0198 15.0508H6.8698V15.2008V15.9408V16.0908H7.0198H10.7398H10.8898V15.9408V15.2008V15.0508H10.7398H7.0198ZM17.0598 12.0808C14.3068 12.0808 12.0798 14.3181 12.0798 17.0608C12.0798 19.8036 14.317 22.0408 17.0598 22.0408C19.8026 22.0408 22.0398 19.8036 22.0398 17.0608C22.0398 14.3179 19.8026 12.0808 17.0598 12.0808ZM17.0598 21.0008C14.8926 21.0008 13.1198 19.2279 13.1198 17.0608C13.1198 14.8936 14.8926 13.1208 17.0598 13.1208C19.227 13.1208 20.9998 14.8936 20.9998 17.0608C20.9998 19.2279 19.227 21.0008 17.0598 21.0008Z" fill="#191919" stroke="#191919" stroke-width="0.3"/>
</svg>
