<svg width="25" height="25" viewBox="0 0 25 25" fill="none" xmlns="http://www.w3.org/2000/svg">
<path d="M17.0598 12.2308C14.3898 12.2308 12.2298 14.4008 12.2298 17.0608C12.2298 19.7208 14.3998 21.8908 17.0598 21.8908C19.7198 21.8908 21.8898 19.7208 21.8898 17.0608C21.8898 14.4008 19.7198 12.2308 17.0598 12.2308ZM17.0598 21.1508C14.8098 21.1508 12.9698 19.3108 12.9698 17.0608C12.9698 14.8108 14.8098 12.9708 17.0598 12.9708C19.3098 12.9708 21.1498 14.8108 21.1498 17.0608C21.1498 19.3108 19.3098 21.1508 17.0598 21.1508ZM19.2498 15.6108L19.7698 16.1408L17.1998 18.6708C17.0398 18.8308 16.8198 18.9208 16.5898 18.9208C16.3598 18.9208 16.1398 18.8308 15.9798 18.6608L14.5998 17.3308L15.1198 16.8008L16.4998 18.1408C16.5698 18.2108 16.6198 18.2108 16.6798 18.1408L19.2498 15.6108ZM12.9898 12.2308H7.0198V11.4908H14.0798C13.6898 11.7008 13.3198 11.9508 12.9798 12.2308H12.9898ZM12.9898 21.9008H4.0498V5.91078C4.0498 4.88078 4.8798 4.05078 5.9098 4.05078H15.5798C16.6098 4.05078 17.4398 4.88078 17.4398 5.91078V10.7508C17.3198 10.7508 17.1898 10.7408 17.0698 10.7408C16.9498 10.7408 16.8198 10.7408 16.6998 10.7508V5.91078C16.6998 5.30078 16.1998 4.79078 15.5798 4.79078H5.9098C5.2998 4.79078 4.7898 5.29078 4.7898 5.91078V21.1508H12.2398C12.4698 21.4208 12.7198 21.6708 12.9898 21.8908V21.9008ZM14.4598 8.51078H7.0198V7.77078H14.4598V8.51078ZM7.0198 15.2008H10.7398V15.9408H7.0198V15.2008Z" fill="#191919"/>
</svg>
