<svg width="25" height="25" viewBox="0 0 25 25" fill="none" xmlns="http://www.w3.org/2000/svg">
<path d="M21.1298 10.9071L19.6798 9.49711V5.89711C19.6798 4.86711 18.8398 4.03711 17.8198 4.03711H8.12979C7.09979 4.03711 6.26979 4.87711 6.26979 5.89711V9.49711L4.81979 10.9071C4.31979 11.3971 4.02979 12.0771 4.02979 12.7671V21.9171H21.9098V12.7671C21.9098 12.0671 21.6198 11.3871 21.1198 10.8971L21.1298 10.9071ZM20.6998 11.5471L19.6798 12.5671V10.5371C19.6798 10.5371 20.6698 11.5171 20.6998 11.5471ZM8.12979 4.78711H17.8198C18.4398 4.78711 18.9398 5.28711 18.9398 5.90711V13.3171L14.8198 17.4371C13.8298 18.4271 12.1198 18.4271 11.1298 17.4371L7.00979 13.3171V5.89711C7.00979 5.27711 7.50979 4.77711 8.12979 4.77711V4.78711ZM6.26979 10.5371V12.5671L5.24979 11.5471L6.26979 10.5371ZM21.1698 21.1771H4.77979V12.7771C4.77979 12.5871 4.81979 12.4071 4.86979 12.2271L10.5998 17.9571C11.2298 18.5871 12.0698 18.9371 12.9698 18.9371C13.8698 18.9371 14.7098 18.5871 15.3398 17.9571L21.0698 12.2271C21.1298 12.4071 21.1598 12.5871 21.1598 12.7771V21.1771H21.1698ZM11.4398 11.9071L8.98979 9.51711L9.50979 8.98711L11.9598 11.3771C12.1098 11.5271 12.3498 11.5271 12.4898 11.3771L16.4398 7.49711L16.9598 8.02711L13.0198 11.9071C12.7998 12.1271 12.5198 12.2371 12.2298 12.2371C11.9398 12.2371 11.6598 12.1271 11.4398 11.9071Z" fill="#191919"/>
</svg>
