<svg width="25" height="25" viewBox="0 0 25 25" fill="none" xmlns="http://www.w3.org/2000/svg">
<path d="M16.7498 11.6756L11.8898 9.01562C11.4198 8.75562 10.8698 8.75563 10.4098 9.02563C9.94977 9.29563 9.66977 9.77563 9.66977 10.3156V15.6356C9.66977 16.1656 9.94977 16.6556 10.4098 16.9256C10.6398 17.0656 10.8998 17.1356 11.1598 17.1356C11.4198 17.1356 11.6598 17.0756 11.8798 16.9456L16.7398 14.2856C17.2098 14.0156 17.4998 13.5356 17.4998 12.9856C17.4998 12.4356 17.2198 11.9556 16.7398 11.6856L16.7498 11.6756ZM16.3498 13.5456L11.4898 16.2056C11.2798 16.3256 11.0398 16.3156 10.8398 16.2056C10.6398 16.0856 10.5098 15.8756 10.5098 15.6356V10.3156C10.5098 10.0756 10.6298 9.86562 10.8398 9.74563C10.9398 9.68563 11.0598 9.65562 11.1698 9.65562C11.2798 9.65562 11.3898 9.68563 11.4998 9.74563L16.3598 12.4056C16.5698 12.5256 16.6998 12.7356 16.6998 12.9756C16.6998 13.2156 16.5698 13.4256 16.3698 13.5456H16.3498ZM12.9698 3.01562C7.47977 3.01562 3.00977 7.48563 3.00977 12.9756C3.00977 18.4656 7.47977 22.9356 12.9698 22.9356C18.4598 22.9356 22.9298 18.4656 22.9298 12.9756C22.9298 7.48563 18.4698 3.01562 12.9698 3.01562ZM12.9698 22.1156C7.93977 22.1156 3.83977 18.0156 3.83977 12.9756C3.83977 7.93563 7.93977 3.84562 12.9698 3.84562C17.9998 3.84562 22.0998 7.94562 22.0998 12.9756C22.0998 18.0056 17.9998 22.1056 12.9698 22.1056V22.1156Z" fill="#191919"/>
</svg>
