<svg width="25" height="25" viewBox="0 0 25 25" fill="none" xmlns="http://www.w3.org/2000/svg">
<path d="M16.3256 13.3956C16.4646 13.2986 16.5498 13.1459 16.5498 12.9756C16.5498 12.7936 16.4524 12.6318 16.2865 12.5365L11.4279 9.87731L16.3256 13.3956ZM16.3256 13.3956H16.3114L16.2777 13.414L11.4177 16.074L11.4177 16.074L11.4153 16.0754C11.2553 16.1668 11.0722 16.1613 10.9145 16.0755C10.7576 15.9803 10.6598 15.818 10.6598 15.6356V10.3156C10.6598 10.1289 10.7514 9.96886 10.9142 9.87586L10.9142 9.87589L10.9169 9.87425C10.9919 9.82924 11.0849 9.80562 11.1698 9.80562C11.2513 9.80562 11.3368 9.82761 11.4277 9.87721L16.3256 13.3956ZM16.8218 11.544L11.9624 8.88437C11.9623 8.8843 11.9621 8.88424 11.962 8.88417C11.4473 8.59959 10.841 8.5986 10.3338 8.89626C9.8285 9.19287 9.51977 9.72178 9.51977 10.3156V15.6356C9.51977 16.2185 9.82759 16.7573 10.3328 17.0544C10.5866 17.2086 10.8733 17.2856 11.1598 17.2856C11.4432 17.2856 11.7093 17.2201 11.9539 17.076L16.8118 14.4172L16.8118 14.4172L16.8145 14.4157C17.3294 14.1199 17.6498 13.5912 17.6498 12.9856C17.6498 12.4473 17.4043 11.9678 16.9777 11.6599L16.9974 11.6401L16.8218 11.544ZM12.8198 21.9644C7.94145 21.8839 3.98977 17.8827 3.98977 12.9756C3.98977 8.01857 8.0225 3.99563 12.9698 3.99563C17.9169 3.99563 21.9498 8.02847 21.9498 12.9756C21.9498 17.9228 17.9169 21.9556 12.9698 21.9556H12.8198V21.9644ZM12.9698 2.86562C7.39692 2.86562 2.85977 7.40278 2.85977 12.9756C2.85977 18.5485 7.39692 23.0856 12.9698 23.0856C18.5426 23.0856 23.0798 18.5485 23.0798 12.9756C23.0798 7.40288 18.5527 2.86562 12.9698 2.86562Z" fill="#191919" stroke="#191919" stroke-width="0.3"/>
</svg>
