<svg width="25" height="25" viewBox="0 0 25 25" fill="none" xmlns="http://www.w3.org/2000/svg">
<path d="M21.5934 17.1073L19.1334 19.5673L18.6034 19.0373L20.9434 16.6973H13.7134V15.9473H20.9434L18.6034 13.6073L19.1334 13.0773L21.5934 15.5373C22.0234 15.9673 22.0234 16.6673 21.5934 17.1073ZM4.77344 21.1773H18.9434V21.9273H4.02344V5.88734C4.02344 4.85734 4.85344 4.02734 5.88344 4.02734H13.4934L18.9234 9.45734V11.4773H18.1734V9.98734H12.9534V4.77734H5.88344C5.26344 4.77734 4.76344 5.27734 4.76344 5.89734V21.1773H4.77344ZM13.7134 9.24734H17.6534L13.7134 5.30734V9.24734Z" fill="#191919"/>
</svg>
