<svg width="25" height="25" viewBox="0 0 25 25" fill="none" xmlns="http://www.w3.org/2000/svg">
<path d="M21.6995 17.2134L21.7007 17.2122C22.187 16.7146 22.1887 15.9205 21.6995 15.4313L19.2395 12.9713L19.1334 12.8652L19.0274 12.9713L18.4974 13.5013L18.3913 13.6073L18.4974 13.7134L20.5813 15.7973H13.7134H13.5634V15.9473V16.6973V16.8473H13.7134H20.5813L18.4974 18.9313L18.3913 19.0373L18.4974 19.1434L19.0274 19.6734L19.1334 19.7795L19.2395 19.6734L21.6995 17.2134ZM19.0934 21.1773V21.0273H18.9434H4.91344V5.89734C4.91344 5.36019 5.34628 4.92734 5.88344 4.92734H12.8034V9.98734V10.1373H12.9534H18.0234V11.4773V11.6273H18.1734H18.9234H19.0734V11.4773V9.45734V9.39521L19.0295 9.35128L13.5995 3.92128L13.5556 3.87734H13.4934H5.88344C4.77059 3.87734 3.87344 4.7745 3.87344 5.88734V21.9273V22.0773H4.02344H18.9434H19.0934V21.9273V21.1773ZM13.8634 5.66948L17.2913 9.09734H13.8634V5.66948Z" fill="#191919" stroke="#191919" stroke-width="0.3"/>
</svg>
