<svg width="25" height="25" viewBox="0 0 25 25" fill="none" xmlns="http://www.w3.org/2000/svg">
<path d="M15.9395 15.2115V14.0915C15.9395 13.0615 16.7795 12.2215 17.8095 12.2215C18.7095 12.2215 19.4595 12.8615 19.6395 13.7115H20.3995C20.2195 12.4515 19.1295 11.4715 17.8195 11.4715C16.3795 11.4715 15.2095 12.6415 15.2095 14.0815V15.2015H13.7195V20.0515C13.7195 21.0815 14.5595 21.9215 15.5895 21.9215H20.0695C21.0995 21.9215 21.9395 21.0815 21.9395 20.0515V15.2015H15.9695L15.9395 15.2115ZM21.1595 20.0615C21.1595 20.6815 20.6595 21.1815 20.0395 21.1815H15.5595C14.9395 21.1815 14.4395 20.6815 14.4395 20.0615V15.9615H21.1495V20.0615H21.1595ZM7.72951 14.4715H12.2095V15.2215H7.72951C6.07951 15.2215 4.74951 16.5615 4.74951 18.2015V21.9315H3.99951V18.2015C3.99951 16.1415 5.66951 14.4715 7.72951 14.4715ZM9.96951 4.02148C7.49951 4.02148 5.48951 6.03148 5.48951 8.50148C5.48951 10.9715 7.49951 12.9815 9.96951 12.9815C12.4395 12.9815 14.4495 10.9715 14.4495 8.50148C14.4495 6.03148 12.4395 4.02148 9.96951 4.02148ZM9.96951 12.2315C7.90951 12.2315 6.23951 10.5615 6.23951 8.50148C6.23951 6.44148 7.90951 4.77148 9.96951 4.77148C12.0295 4.77148 13.6995 6.44148 13.6995 8.50148C13.6995 10.5615 12.0295 12.2315 9.96951 12.2315ZM18.1795 19.3115H17.4295V17.8215H18.1795V19.3115Z" fill="#191919"/>
</svg>
