<svg width="25" height="25" viewBox="0 0 25 25" fill="none" xmlns="http://www.w3.org/2000/svg">
<path d="M21.9395 15.0515H16.0895V14.0915C16.0895 13.1443 16.8624 12.3715 17.8095 12.3715C18.6363 12.3715 19.327 12.9596 19.4928 13.7426L19.518 13.8615H19.6395H20.3995H20.5725L20.548 13.6903C20.3577 12.3579 19.2057 11.3215 17.8195 11.3215C16.2967 11.3215 15.0595 12.5586 15.0595 14.0815V15.0515H13.7195H13.5695V15.2015V20.0515C13.5695 21.1643 14.4767 22.0715 15.5895 22.0715H20.0695C21.1824 22.0715 22.0895 21.1643 22.0895 20.0515V15.2015V15.0515H21.9395ZM20.9995 20.0615V20.2018C20.9319 20.6721 20.529 21.0315 20.0395 21.0315H15.5595C15.0224 21.0315 14.5895 20.5986 14.5895 20.0615V16.1115H20.9995V20.0615ZM12.3595 14.4715V14.3215H12.2095H7.72951C5.58667 14.3215 3.84951 16.0586 3.84951 18.2015V21.9315V22.0815H3.99951H4.74951H4.89951V21.9315V18.2015C4.89951 16.644 6.16268 15.3715 7.72951 15.3715H12.2095H12.3595V15.2215V14.4715ZM18.1795 19.4615H18.3295V19.3115V17.8215V17.6715H18.1795H17.4295H17.2795V17.8215V19.3115V19.4615H17.4295H18.1795ZM9.96951 3.87148C7.41667 3.87148 5.33951 5.94864 5.33951 8.50148C5.33951 11.0543 7.41667 13.1315 9.96951 13.1315C12.5224 13.1315 14.5995 11.0543 14.5995 8.50148C14.5995 5.94864 12.5224 3.87148 9.96951 3.87148ZM9.96951 12.0815C7.99235 12.0815 6.38951 10.4786 6.38951 8.50148C6.38951 6.52433 7.99235 4.92148 9.96951 4.92148C11.9467 4.92148 13.5495 6.52433 13.5495 8.50148C13.5495 10.4786 11.9467 12.0815 9.96951 12.0815Z" fill="#191919" stroke="#191919" stroke-width="0.3"/>
</svg>
