<svg width="25" height="25" viewBox="0 0 25 25" fill="none" xmlns="http://www.w3.org/2000/svg">
<path d="M22.0398 22.0364H21.8898H12.9698C7.96718 22.0364 3.8998 17.9795 3.8998 12.9764C3.8998 7.97334 7.96718 3.91641 12.9698 3.91641C17.9823 3.91641 22.05 7.97324 22.0398 12.9767M22.0398 22.0364V12.9767M22.0398 22.0364V21.8864M22.0398 22.0364V21.8864M22.0398 12.9767V21.8864M22.0398 12.9767V21.8864M20.9998 20.9864H12.9798C8.54217 20.9864 4.9398 17.3931 4.9398 12.9764C4.9398 8.55937 8.54253 4.95641 12.9698 4.95641C17.3972 4.95641 20.9998 8.54949 20.9998 12.9764V20.9864Z" fill="#191919" stroke="#191919" stroke-width="0.3"/>
<path d="M16.0275 9.83997L16.0193 9.79337L16.0087 9.78277C15.7706 8.56194 14.7619 7.56638 13.5259 7.34825L13.5253 7.34815C12.613 7.19086 11.6882 7.43194 10.9836 8.02088C10.2793 8.60957 9.87979 9.47184 9.87979 10.386V10.536H10.0298H10.7698H10.9198V10.386C10.9198 9.78056 11.19 9.20251 11.6563 8.81083L11.6565 8.81065C12.1303 8.41116 12.7249 8.26075 13.3544 8.36381C14.1814 8.51299 14.8531 9.19384 15.0021 10.0125C15.1609 10.9098 14.7505 11.7658 13.9677 12.1944L13.9677 12.1944L13.9668 12.1949C13.5408 12.4322 13.1655 12.8537 12.8974 13.3369C12.6288 13.8209 12.4598 14.3807 12.4598 14.906V15.546V15.696H12.6098H13.3498H13.4998V15.546V14.906C13.4998 14.5769 13.6128 14.1965 13.7965 13.8589C13.9809 13.52 14.2259 13.2437 14.4723 13.1073C15.6392 12.4658 16.2585 11.1522 16.0275 9.83997Z" fill="#191919" stroke="#191919" stroke-width="0.3"/>
<path d="M12.9797 18.6456C13.4713 18.6456 13.8697 18.2472 13.8697 17.7556C13.8697 17.2641 13.4713 16.8656 12.9797 16.8656C12.4882 16.8656 12.0897 17.2641 12.0897 17.7556C12.0897 18.2472 12.4882 18.6456 12.9797 18.6456Z" fill="#191919" stroke="#191919" stroke-width="0.3"/>
</svg>
