<svg width="25" height="25" viewBox="0 0 25 25" fill="none" xmlns="http://www.w3.org/2000/svg">
<path d="M12.9698 4.06641C8.0498 4.06641 4.0498 8.05641 4.0498 12.9764C4.0498 17.8964 8.0498 21.8864 12.9698 21.8864H21.8898V12.9764C21.8998 8.05641 17.8998 4.06641 12.9698 4.06641ZM21.1598 21.1364H12.9798C8.45981 21.1364 4.7898 17.4764 4.7898 12.9764C4.7898 8.47641 8.4598 4.80641 12.9698 4.80641C17.4798 4.80641 21.1498 8.46641 21.1498 12.9764V21.1464L21.1598 21.1364Z" fill="#191919"/>
<path d="M15.8798 9.86597C16.0998 11.116 15.5098 12.366 14.3998 12.976C13.8398 13.286 13.3498 14.186 13.3498 14.906V15.546H12.6098V14.906C12.6098 13.916 13.2498 12.766 14.0398 12.326C14.8798 11.866 15.3198 10.946 15.1498 9.98597C14.9898 9.10597 14.2698 8.37597 13.3798 8.21597C12.7098 8.10597 12.0698 8.26597 11.5598 8.69597C11.0598 9.11597 10.7698 9.73597 10.7698 10.386H10.0298C10.0298 9.51597 10.4098 8.69597 11.0798 8.13597C11.7498 7.57597 12.6298 7.34597 13.4998 7.49597C14.6898 7.70597 15.6598 8.67597 15.8698 9.85597L15.8798 9.86597Z" fill="#191919"/>
<path d="M12.9797 18.4956C13.3884 18.4956 13.7197 18.1643 13.7197 17.7556C13.7197 17.3469 13.3884 17.0156 12.9797 17.0156C12.5711 17.0156 12.2397 17.3469 12.2397 17.7556C12.2397 18.1643 12.5711 18.4956 12.9797 18.4956Z" fill="#191919"/>
</svg>
