<svg width="25" height="25" viewBox="0 0 25 25" fill="none" xmlns="http://www.w3.org/2000/svg">
<path d="M3.44463 10.6863H5.55338C5.66122 11.7502 6.08842 12.3688 6.648 12.7175C7.21649 13.0716 7.90526 13.1363 8.48463 13.1363C9.06435 13.1363 9.75301 13.069 10.3214 12.7136C10.8807 12.3639 11.3079 11.7455 11.4158 10.6863H22.4946C22.7999 10.6863 23.0446 10.4416 23.0446 10.1363C23.0446 9.8311 22.7999 9.58633 22.4946 9.58633H11.4159C11.308 8.52245 10.8808 7.90381 10.3213 7.5552C9.75277 7.20104 9.064 7.13633 8.48463 7.13633C7.90491 7.13633 7.21624 7.20364 6.64786 7.55904C6.08858 7.90875 5.66135 8.52715 5.55342 9.58633H3.44463C3.1394 9.58633 2.89463 9.8311 2.89463 10.1363C2.89463 10.4416 3.1394 10.6863 3.44463 10.6863ZM8.48463 8.23633C9.10153 8.23633 9.55577 8.31992 9.85874 8.5853C10.1587 8.84804 10.3346 9.31158 10.3346 10.1363C10.3346 10.9607 10.1564 11.4244 9.85513 11.6872C9.5508 11.9528 9.09634 12.0363 8.48463 12.0363C7.87292 12.0363 7.41846 11.9528 7.11413 11.6872C6.81289 11.4244 6.63463 10.9607 6.63463 10.1363C6.63463 9.31196 6.81289 8.8483 7.11413 8.58542C7.41846 8.31985 7.87292 8.23633 8.48463 8.23633Z" fill="#191919" stroke="#191919" stroke-width="0.2"/>
<path d="M23.0446 15.816C23.0446 15.5141 22.8052 15.2714 22.5046 15.2661V15.266H22.4946H20.3959C20.288 14.2021 19.8608 13.5835 19.3013 13.2349C18.7328 12.8807 18.044 12.816 17.4646 12.816C16.8849 12.816 16.1962 12.8833 15.6279 13.2387C15.0686 13.5884 14.6413 14.2068 14.5334 15.266H3.44463C3.1394 15.266 2.89463 15.5108 2.89463 15.816C2.89463 16.1212 3.1394 16.366 3.44463 16.366H14.5234C14.6312 17.4299 15.0584 18.0485 15.618 18.3971C16.1865 18.7513 16.8753 18.816 17.4546 18.816C18.0344 18.816 18.723 18.7487 19.2914 18.3933C19.8507 18.0436 20.2779 17.4252 20.3858 16.366H22.4946C22.7999 16.366 23.0446 16.1212 23.0446 15.816ZM17.4646 17.726C16.8477 17.726 16.3935 17.6424 16.0905 17.377C15.7906 17.1143 15.6146 16.6508 15.6146 15.826C15.6146 15.0016 15.7929 14.538 16.0941 14.2751C16.3985 14.0095 16.8529 13.926 17.4646 13.926C18.0763 13.926 18.5308 14.0095 18.8351 14.2751C19.1364 14.538 19.3146 15.0016 19.3146 15.826C19.3146 16.6504 19.1364 17.114 18.8351 17.3769C18.5308 17.6425 18.0763 17.726 17.4646 17.726Z" fill="#191919" stroke="#191919" stroke-width="0.2"/>
</svg>
