<svg width="25" height="25" viewBox="0 0 25 25" fill="none" xmlns="http://www.w3.org/2000/svg">
<path d="M3.44463 10.5863H5.64463C5.82463 12.7763 7.33463 13.0363 8.48463 13.0363C9.63463 13.0363 11.1446 12.7663 11.3246 10.5863H22.4946C22.7446 10.5863 22.9446 10.3863 22.9446 10.1363C22.9446 9.88633 22.7446 9.68633 22.4946 9.68633H11.3246C11.1446 7.49633 9.63463 7.23633 8.48463 7.23633C7.33463 7.23633 5.82463 7.50633 5.64463 9.68633H3.44463C3.19463 9.68633 2.99463 9.88633 2.99463 10.1363C2.99463 10.3863 3.19463 10.5863 3.44463 10.5863ZM8.48463 8.13633C9.72463 8.13633 10.4346 8.46633 10.4346 10.1363C10.4346 11.8063 9.71463 12.1363 8.48463 12.1363C7.25463 12.1363 6.53463 11.8063 6.53463 10.1363C6.53463 8.46633 7.25463 8.13633 8.48463 8.13633Z" fill="#191919"/>
<path d="M22.5046 15.366H20.3046C20.1246 13.176 18.6146 12.916 17.4646 12.916C16.3146 12.916 14.8046 13.186 14.6246 15.366H3.44463C3.19463 15.366 2.99463 15.566 2.99463 15.816C2.99463 16.066 3.19463 16.266 3.44463 16.266H14.6146C14.7946 18.456 16.3046 18.716 17.4546 18.716C18.6046 18.716 20.1146 18.446 20.2946 16.266H22.4946C22.7446 16.266 22.9446 16.066 22.9446 15.816C22.9446 15.566 22.7446 15.366 22.4946 15.366H22.5046ZM17.4646 17.826C16.2246 17.826 15.5146 17.496 15.5146 15.826C15.5146 14.156 16.2346 13.826 17.4646 13.826C18.6946 13.826 19.4146 14.156 19.4146 15.826C19.4146 17.496 18.6946 17.826 17.4646 17.826Z" fill="#191919"/>
</svg>
