<svg width="25" height="25" viewBox="0 0 25 25" fill="none" xmlns="http://www.w3.org/2000/svg">
<path d="M6.16042 22.0233L6.27656 22.1176L6.37115 22.0017L20.4911 4.70172L20.5863 4.58519L20.4695 4.49041L19.7795 3.93041L19.6633 3.83614L19.5687 3.95203L5.44873 21.252L5.35363 21.3686L5.47042 21.4633L6.16042 22.0233Z" fill="#191919" stroke="#191919" stroke-width="0.3"/>
<path d="M19.079 16.9899C20.4575 15.8506 21.3866 14.5949 21.7608 13.945L21.7758 13.96L21.8689 13.7739C22.1202 13.2712 22.1196 12.692 21.8695 12.1809L21.8689 12.1797C21.5837 11.6092 20.6098 10.2107 19.089 8.95368C17.5665 7.69519 15.4812 6.5668 12.9747 6.5668C10.4682 6.5668 8.38042 7.69775 6.85545 8.9574C5.33223 10.2156 4.35599 11.614 4.07081 12.1792L4.07056 12.1797C3.81945 12.6819 3.81945 13.2716 4.07056 13.7739C4.35585 14.3444 5.32978 15.7405 6.85053 16.995C8.37312 18.251 10.4583 19.3768 12.9647 19.3768C15.4712 19.3768 17.5565 18.2484 19.079 16.9899ZM12.9747 18.1868C10.7863 18.1868 8.95405 17.2002 7.6016 16.0812C6.2486 14.9618 5.39027 13.7216 5.14956 13.2411C5.06978 13.0726 5.06978 12.881 5.14956 12.7125C5.39027 12.232 6.2486 10.9918 7.6016 9.87237C8.95405 8.75335 10.7863 7.7668 12.9747 7.7668C15.1632 7.7668 16.9954 8.75335 18.3479 9.87237C19.7009 10.9918 20.5592 12.232 20.7999 12.7126C20.8797 12.881 20.8797 13.0726 20.7999 13.241C20.5592 13.7216 19.7009 14.9618 18.3479 16.0812C16.9954 17.2002 15.1632 18.1868 12.9747 18.1868ZM12.9747 10.1468C11.4119 10.1468 10.1447 11.414 10.1447 12.9768C10.1447 14.5396 11.4119 15.8068 12.9747 15.8068C14.5376 15.8068 15.8047 14.5396 15.8047 12.9768C15.8047 11.414 14.5376 10.1468 12.9747 10.1468ZM12.9747 14.6168C12.0676 14.6168 11.3347 13.884 11.3347 12.9768C11.3347 12.0696 12.0676 11.3368 12.9747 11.3368C13.8819 11.3368 14.6147 12.0696 14.6147 12.9768C14.6147 13.884 13.8819 14.6168 12.9747 14.6168Z" fill="#191919" stroke="#191919" stroke-width="0.3"/>
</svg>
