<svg width="25" height="25" viewBox="0 0 25 25" fill="none" xmlns="http://www.w3.org/2000/svg">
<path d="M6.25494 21.9069L5.56494 21.3469L19.6849 4.04688L20.3749 4.60688L6.25494 21.9069Z" fill="#191919"/>
<path d="M21.7347 13.7068C21.9647 13.2468 21.9647 12.7168 21.7347 12.2468C21.1847 11.1468 17.8947 6.7168 12.9747 6.7168C8.05473 6.7168 4.75473 11.1568 4.20473 12.2468C3.97473 12.7068 3.97473 13.2468 4.20473 13.7068C4.75473 14.8068 8.04473 19.2268 12.9647 19.2268C17.8847 19.2268 21.1747 14.7968 21.7247 13.6968L21.7347 13.7068ZM12.9747 18.3368C8.50473 18.3368 5.51473 14.3068 5.01473 13.3068C4.91473 13.0968 4.91473 12.8568 5.01473 12.6468C5.51473 11.6468 8.50473 7.6168 12.9747 7.6168C17.4447 7.6168 20.4347 11.6468 20.9347 12.6468C21.0347 12.8568 21.0347 13.0968 20.9347 13.3068C20.4347 14.3068 17.4447 18.3368 12.9747 18.3368ZM12.9747 10.2968C11.4947 10.2968 10.2947 11.4968 10.2947 12.9768C10.2947 14.4568 11.4947 15.6568 12.9747 15.6568C14.4547 15.6568 15.6547 14.4568 15.6547 12.9768C15.6547 11.4968 14.4547 10.2968 12.9747 10.2968ZM12.9747 14.7668C11.9847 14.7668 11.1847 13.9668 11.1847 12.9768C11.1847 11.9868 11.9847 11.1868 12.9747 11.1868C13.9647 11.1868 14.7647 11.9868 14.7647 12.9768C14.7647 13.9668 13.9647 14.7668 12.9747 14.7668Z" fill="#191919"/>
</svg>
