<svg width="25" height="25" viewBox="0 0 25 25" fill="none" xmlns="http://www.w3.org/2000/svg">
<path d="M3.84951 21.9489V22.0989H3.99951H21.9395H22.0895V21.9489V11.4689C22.0895 10.8423 21.8079 10.2689 21.312 9.88078L14.1928 4.29144C14.1927 4.29136 14.1926 4.29128 14.1925 4.2912C13.458 3.70815 12.4811 3.70814 11.7466 4.29116C11.7465 4.29126 11.7463 4.29135 11.7462 4.29144L4.62707 9.88078C4.62704 9.8808 4.62702 9.88082 4.62699 9.88084C4.1311 10.269 3.84951 10.8423 3.84951 11.4689V21.9489ZM21.0395 11.4689V21.0489H4.89951V11.4689C4.89951 11.1657 5.03777 10.8892 5.2716 10.7073L5.27214 10.7069L12.3918 5.11715C12.3919 5.11712 12.3919 5.11708 12.3919 5.11704C12.7476 4.83953 13.1914 4.83953 13.5471 5.11704C13.5471 5.11708 13.5472 5.11712 13.5472 5.11715L20.6669 10.7069L20.6674 10.7073C20.9007 10.8887 21.0395 11.1749 21.0395 11.4689ZM9.84951 17.4589V17.6089H9.99951H15.9395H16.0895V17.4589V11.4689V11.3189H15.9395H9.99951H9.84951V11.4689V17.4589ZM10.8995 12.3689H15.0395V16.5589H10.8995V12.3689Z" fill="#191919" stroke="#191919" stroke-width="0.3"/>
</svg>
