<svg width="25" height="25" viewBox="0 0 25 25" fill="none" xmlns="http://www.w3.org/2000/svg">
<mask id="path-1-inside-1_16546_40213" fill="white">
<path d="M21.2195 9.99891L14.0995 4.40891C13.4195 3.86891 12.5195 3.86891 11.8395 4.40891L4.71951 9.99891C4.25951 10.3589 3.99951 10.8889 3.99951 11.4689V21.9489H21.9395V11.4689C21.9395 10.8889 21.6795 10.3589 21.2195 9.99891ZM21.1895 21.1989H4.74951V11.4689C4.74951 11.1189 4.90951 10.7989 5.17951 10.5889L12.2995 4.99891C12.7095 4.67891 13.2295 4.67891 13.6395 4.99891L20.7595 10.5889C21.0295 10.7989 21.1895 11.1289 21.1895 11.4689V21.1989ZM9.99951 17.4589H15.9395V11.4689H9.99951V17.4589ZM10.7495 12.2189H15.1895V16.7089H10.7495V12.2189Z"/>
</mask>
<path d="M21.2195 9.99891L14.0995 4.40891C13.4195 3.86891 12.5195 3.86891 11.8395 4.40891L4.71951 9.99891C4.25951 10.3589 3.99951 10.8889 3.99951 11.4689V21.9489H21.9395V11.4689C21.9395 10.8889 21.6795 10.3589 21.2195 9.99891ZM21.1895 21.1989H4.74951V11.4689C4.74951 11.1189 4.90951 10.7989 5.17951 10.5889L12.2995 4.99891C12.7095 4.67891 13.2295 4.67891 13.6395 4.99891L20.7595 10.5889C21.0295 10.7989 21.1895 11.1289 21.1895 11.4689V21.1989ZM9.99951 17.4589H15.9395V11.4689H9.99951V17.4589ZM10.7495 12.2189H15.1895V16.7089H10.7495V12.2189Z" fill="#191919"/>
<path d="M21.2195 9.99891L20.602 10.7855L20.6032 10.7864L21.2195 9.99891ZM14.0995 4.40891L13.4776 5.19203L13.482 5.19545L14.0995 4.40891ZM11.8395 4.40891L12.4571 5.19547L12.4614 5.19202L11.8395 4.40891ZM4.71951 9.99891L5.33582 10.7864L5.33704 10.7855L4.71951 9.99891ZM3.99951 21.9489H2.99951V22.9489H3.99951V21.9489ZM21.9395 21.9489V22.9489H22.9395V21.9489H21.9395ZM21.1895 21.1989V22.1989H22.1895V21.1989H21.1895ZM4.74951 21.1989H3.74951V22.1989H4.74951V21.1989ZM5.17951 10.5889L5.79346 11.3783L5.79704 11.3755L5.17951 10.5889ZM12.2995 4.99891L11.6842 4.21059L11.682 4.21236L12.2995 4.99891ZM13.6395 4.99891L14.257 4.21235L14.2548 4.21059L13.6395 4.99891ZM20.7595 10.5889L20.142 11.3755L20.1456 11.3783L20.7595 10.5889ZM9.99951 17.4589H8.99951V18.4589H9.99951V17.4589ZM15.9395 17.4589V18.4589H16.9395V17.4589H15.9395ZM15.9395 11.4689H16.9395V10.4689H15.9395V11.4689ZM9.99951 11.4689V10.4689H8.99951V11.4689H9.99951ZM10.7495 12.2189V11.2189H9.74951V12.2189H10.7495ZM15.1895 12.2189H16.1895V11.2189H15.1895V12.2189ZM15.1895 16.7089V17.7089H16.1895V16.7089H15.1895ZM10.7495 16.7089H9.74951V17.7089H10.7495V16.7089ZM21.837 9.21236L14.717 3.62236L13.482 5.19545L20.602 10.7855L21.837 9.21236ZM14.7214 3.6258C13.6772 2.79661 12.2618 2.79661 11.2176 3.6258L12.4614 5.19202C12.7772 4.9412 13.1618 4.9412 13.4776 5.19202L14.7214 3.6258ZM11.222 3.62236L4.10198 9.21236L5.33704 10.7855L12.457 5.19545L11.222 3.62236ZM4.1032 9.2114C3.40364 9.75889 2.99951 10.5781 2.99951 11.4689H4.99951C4.99951 11.1998 5.11538 10.9589 5.33582 10.7864L4.1032 9.2114ZM2.99951 11.4689V21.9489H4.99951V11.4689H2.99951ZM3.99951 22.9489H21.9395V20.9489H3.99951V22.9489ZM22.9395 21.9489V11.4689H20.9395V21.9489H22.9395ZM22.9395 11.4689C22.9395 10.5781 22.5354 9.75888 21.8358 9.2114L20.6032 10.7864C20.8236 10.9589 20.9395 11.1998 20.9395 11.4689H22.9395ZM21.1895 20.1989H4.74951V22.1989H21.1895V20.1989ZM5.74951 21.1989V11.4689H3.74951V21.1989H5.74951ZM5.74951 11.4689C5.74951 11.4474 5.75417 11.4308 5.76066 11.4176C5.76728 11.4042 5.77766 11.3905 5.79345 11.3783L4.56557 9.79955C4.05443 10.1971 3.74951 10.8072 3.74951 11.4689H5.74951ZM5.79704 11.3755L12.917 5.78545L11.682 4.21236L4.56198 9.80236L5.79704 11.3755ZM12.9148 5.78722C12.9361 5.77059 12.9512 5.76397 12.9584 5.76141C12.9655 5.7589 12.9688 5.75891 12.9695 5.75891C12.9702 5.75891 12.9735 5.7589 12.9806 5.76141C12.9879 5.76397 13.0029 5.77059 13.0242 5.78722L14.2548 4.21059C13.4832 3.60834 12.4559 3.60834 11.6842 4.21059L12.9148 5.78722ZM13.022 5.78545L20.142 11.3755L21.377 9.80236L14.257 4.21236L13.022 5.78545ZM20.1456 11.3783C20.1706 11.3977 20.1895 11.4357 20.1895 11.4689H22.1895C22.1895 10.8221 21.8884 10.2001 21.3735 9.79955L20.1456 11.3783ZM20.1895 11.4689V21.1989H22.1895V11.4689H20.1895ZM9.99951 18.4589H15.9395V16.4589H9.99951V18.4589ZM16.9395 17.4589V11.4689H14.9395V17.4589H16.9395ZM15.9395 10.4689H9.99951V12.4689H15.9395V10.4689ZM8.99951 11.4689V17.4589H10.9995V11.4689H8.99951ZM10.7495 13.2189H15.1895V11.2189H10.7495V13.2189ZM14.1895 12.2189V16.7089H16.1895V12.2189H14.1895ZM15.1895 15.7089H10.7495V17.7089H15.1895V15.7089ZM11.7495 16.7089V12.2189H9.74951V16.7089H11.7495Z" fill="#191919" mask="url(#path-1-inside-1_16546_40213)"/>
</svg>
