<svg width="25" height="25" viewBox="0 0 25 25" fill="none" xmlns="http://www.w3.org/2000/svg">
<path d="M3.87979 21.9212V22.0712H4.02979H12.2298H12.3798V21.9212V13.7212C12.3798 12.8184 11.6426 12.0813 10.7398 12.0813H5.51979C4.61694 12.0813 3.87979 12.8184 3.87979 13.7212V21.9212ZM6.26979 14.3113H6.11979V14.4613V15.2113V15.3612H6.26979H9.99978H10.1498V15.2113V14.4613V14.3113H9.99978H6.26979ZM8.49978 16.5513H8.34978V16.7013V17.4513V17.6012H8.49978H9.98979H10.1398V17.4513V16.7013V16.5513H9.98979H8.49978ZM6.26979 16.5513H6.11979V16.7013V17.4513V17.6012H6.26979H7.75979H7.90979V17.4513V16.7013V16.5513H7.75979H6.26979ZM8.49978 18.7812H8.34978V18.9312V19.6812V19.8312H8.49978H9.98979H10.1398V19.6812V18.9312V18.7812H9.98979H8.49978ZM6.26979 18.7812H6.11979V18.9312V19.6812V19.8312H6.26979H7.75979H7.90979V19.6812V18.9312V18.7812H7.75979H6.26979ZM6.10979 10.7413V10.8913H6.25979H7.00979H7.15979V10.7413V6.27125C7.15979 5.53409 7.76263 4.93125 8.49978 4.93125C9.23694 4.93125 9.83979 5.53409 9.83979 6.27125V7.76125V7.91125H9.98979H18.7798V20.0513C18.7798 20.5884 18.3469 21.0212 17.8098 21.0212H13.7098H13.5598V21.1712V21.9212V22.0712H13.7098H17.8098C18.9232 22.0712 19.8198 21.1636 19.8198 20.0613V7.91125H21.9098H22.0598V7.76125V6.27125C22.0598 4.95884 20.9931 3.88125 19.6698 3.88125H8.49978C7.18738 3.88125 6.10979 4.94797 6.10979 6.27125V10.7413ZM11.3498 21.0212H4.92979V13.7212C4.92979 13.3928 5.19393 13.1212 5.52979 13.1212H10.7498C11.0782 13.1212 11.3498 13.3854 11.3498 13.7212V21.0212ZM21.0198 6.86125H10.8898V6.26125C10.8898 5.76458 10.7335 5.30448 10.4745 4.92125H19.6798C20.4169 4.92125 21.0198 5.52409 21.0198 6.26125V6.86125Z" fill="#191919" stroke="#191919" stroke-width="0.3"/>
</svg>
