<svg width="25" height="25" viewBox="0 0 25 25" fill="none" xmlns="http://www.w3.org/2000/svg">
<path d="M4.35039 10.3671C4.3286 11.088 4.71399 11.7247 5.42098 12.0292L5.43013 12.0332L5.43971 12.0359L12.0795 13.9033L14.0063 20.5433L14.0092 20.5534L14.0135 20.563C14.3089 21.2195 14.9354 21.6032 15.6549 21.5814L15.6549 21.5814L15.6571 21.5813C16.135 21.5596 16.5693 21.3638 16.9046 21.0393L16.9064 21.0375C17.1017 20.8423 17.2643 20.593 17.3621 20.3106L17.3624 20.3107L17.3652 20.3003L21.5852 4.56033L21.6527 4.30858L21.4011 4.3767L5.65038 8.64148H5.64032H5.61224L5.58606 8.65164C4.86291 8.93227 4.37224 9.59361 4.35039 10.3671ZM4.35039 10.3671C4.35039 10.367 4.35039 10.367 4.35039 10.3669L4.50032 10.3715L4.35038 10.3673C4.35038 10.3672 4.35039 10.3672 4.35039 10.3671ZM5.34027 10.3955L5.34032 10.3955V10.3915C5.34032 10.2117 5.4242 9.97974 5.59639 9.80755C5.6797 9.72424 5.77997 9.6563 5.90819 9.60393L19.2864 5.98326L12.3363 12.9333L5.76087 11.0871L5.74665 11.0831C5.48078 10.955 5.33206 10.6992 5.34027 10.3955ZM16.4055 20.0025L16.3902 20.0595C16.2472 20.3649 15.9569 20.5651 15.6149 20.5816C15.2942 20.5895 15.0451 20.433 14.9307 20.207L13.029 13.6349L19.9898 6.67412L16.4055 20.0025Z" fill="#191919" stroke="#191919" stroke-width="0.3"/>
</svg>
