<svg width="25" height="25" viewBox="0 0 25 25" fill="none" xmlns="http://www.w3.org/2000/svg">
<path d="M10.7398 12.2312H5.51979C4.69979 12.2312 4.02979 12.9012 4.02979 13.7212V21.9212H12.2298V13.7212C12.2298 12.9012 11.5598 12.2312 10.7398 12.2312ZM11.4798 21.1712H4.77979V13.7212C4.77979 13.3112 5.10979 12.9712 5.52979 12.9712H10.7498C11.1598 12.9712 11.4998 13.3012 11.4998 13.7212V21.1712H11.4798ZM6.26979 14.4613H9.99978V15.2113H6.26979V14.4613ZM8.49978 16.7013H9.98979V17.4513H8.49978V16.7013ZM6.26979 16.7013H7.75979V17.4513H6.26979V16.7013ZM8.49978 18.9312H9.98979V19.6812H8.49978V18.9312ZM6.26979 18.9312H7.75979V19.6812H6.26979V18.9312ZM21.9098 6.27125C21.9098 5.04125 20.9098 4.03125 19.6698 4.03125H8.49978C7.26978 4.03125 6.25979 5.03125 6.25979 6.27125V10.7413H7.00979V6.27125C7.00979 5.45125 7.67979 4.78125 8.49978 4.78125C9.31979 4.78125 9.98979 5.45125 9.98979 6.27125V7.76125H18.9298V20.0513C18.9298 20.6713 18.4298 21.1712 17.8098 21.1712H13.7098V21.9212H17.8098C18.8398 21.9212 19.6698 21.0813 19.6698 20.0613V7.76125H21.9098V6.27125ZM21.1698 7.01125H10.7398V6.26125C10.7398 5.69125 10.5198 5.17125 10.1698 4.77125H19.6798C20.4998 4.77125 21.1698 5.44125 21.1698 6.26125V7.01125Z" fill="#191919"/>
</svg>
