<svg width="25" height="25" viewBox="0 0 25 25" fill="none" xmlns="http://www.w3.org/2000/svg">
<path d="M21.7756 11.6218L21.7782 11.6198L20.2682 9.11979L20.206 9.01684L20.092 9.05516L12.9698 11.4491L5.83755 9.05514L5.72351 9.01686L5.66138 9.11986L4.17164 11.5894C4.1716 11.5895 4.17156 11.5896 4.17152 11.5896C3.83786 12.1387 3.77313 12.8067 3.99937 13.41C4.22501 14.0117 4.69877 14.4751 5.31238 14.6796L5.35982 14.6955V19.4273V19.5352L5.46204 19.5695L12.902 22.0695L12.9498 22.0856L12.9975 22.0695L20.4475 19.5696L20.5498 19.5352V19.4273V14.6973L20.635 14.6704L20.635 14.6704L20.638 14.6694C21.2399 14.4652 21.714 14.0129 21.9401 13.4104C22.1648 12.8216 22.1029 12.159 21.7756 11.6218ZM9.59805 15.0253L9.5979 15.0253L5.66846 13.6955C5.66834 13.6954 5.66822 13.6954 5.6681 13.6953C5.35828 13.589 5.11381 13.3604 5.00043 13.0551L4.96411 12.9573H4.95935C4.88555 12.6795 4.92875 12.3868 5.07858 12.1343C5.07865 12.1342 5.07872 12.134 5.07879 12.1339L6.19621 10.2779L12.1854 12.2902L10.8214 14.5698C10.8214 14.5699 10.8213 14.5699 10.8213 14.57C10.5666 14.9912 10.0594 15.182 9.59805 15.0253ZM6.41982 18.7896V15.0565L9.26168 16.0194L9.26238 16.0196C9.48872 16.0951 9.71483 16.1273 9.92982 16.1273C10.6513 16.1273 11.331 15.7606 11.7187 15.1041C11.7188 15.104 11.7189 15.1038 11.719 15.1036L12.4498 13.888V20.8219L6.41982 18.7896ZM16.6873 16.0196L16.6881 16.0194L19.5198 15.0568V18.7962L13.4898 20.8285V13.8934L14.2309 15.114C14.231 15.1142 14.2311 15.1144 14.2312 15.1146C14.738 15.9659 15.7518 16.3315 16.6873 16.0196ZM15.1282 14.5698L13.7645 12.3001L19.7533 10.2879L20.8812 12.1646L20.8819 12.1657C21.0219 12.3941 21.0629 12.6682 21.0072 12.9295L20.9597 13.0538C20.8457 13.3519 20.6093 13.5799 20.3108 13.6856C20.3105 13.6857 20.3102 13.6858 20.3099 13.6859L16.3517 15.0253L16.3516 15.0253C15.8902 15.182 15.383 14.9912 15.1283 14.57C15.1283 14.5699 15.1282 14.5698 15.1282 14.5698ZM7.83982 9.21734L7.85807 9.10618L7.92508 9.1742L11.849 5.30868L13.2367 6.69634L10.1147 9.76029L9.94043 9.93137L10.1718 10.0095L10.9718 10.2795L11.0593 10.309L11.125 10.2442L14.8401 6.58755L17.6149 9.30452L17.6806 9.36889L17.7678 9.33947L18.5678 9.06947L18.7985 8.99158L18.6252 8.82055L14.9552 5.20055L14.8491 5.09594L14.7437 5.20128L13.9998 5.94521L11.9759 3.92128L11.8705 3.81587L11.7644 3.92062L6.93441 8.69062L6.76124 8.86164L6.99185 8.93947L7.54602 9.1265L7.45381 9.21734H7.81982H7.83982Z" fill="#191919" stroke="#191919" stroke-width="0.3"/>
</svg>
