<svg width="25" height="25" viewBox="0 0 25 25" fill="none" xmlns="http://www.w3.org/2000/svg">
<path d="M21.6498 11.6973L20.1398 9.19734L12.9698 11.6073L5.78982 9.19734L4.29982 11.6673C3.98982 12.1773 3.92982 12.7973 4.13982 13.3573C4.34982 13.9173 4.78982 14.3473 5.35982 14.5373L5.50982 14.5873V19.4273L12.9498 21.9273L20.3998 19.4273V14.5873L20.5898 14.5273C21.1498 14.3373 21.5898 13.9173 21.7998 13.3573C22.0098 12.8073 21.9498 12.1873 21.6398 11.6873L21.6498 11.6973ZM4.84982 13.1073C4.71982 12.7573 4.75982 12.3773 4.94982 12.0573L6.12982 10.0973L12.4098 12.2073L10.9498 14.6473C10.6598 15.1273 10.0798 15.3473 9.54982 15.1673L5.61982 13.8373C5.26982 13.7173 4.98982 13.4573 4.85982 13.1073H4.84982ZM12.5898 21.0273L6.26982 18.8973V14.8473L9.30982 15.8773C9.51982 15.9473 9.72982 15.9773 9.92982 15.9773C10.5998 15.9773 11.2298 15.6373 11.5898 15.0273L12.5998 13.3473V21.0273H12.5898ZM19.6598 18.9073L13.3398 21.0373V13.3573L14.3598 15.0373C14.8298 15.8273 15.7698 16.1673 16.6398 15.8773L19.6698 14.8473V18.8973L19.6598 18.9073ZM21.0998 13.1073C20.9698 13.4473 20.6998 13.7073 20.3598 13.8273L16.3998 15.1673C15.8698 15.3473 15.2898 15.1273 14.9998 14.6473L13.5398 12.2173L19.8198 10.1073L21.0098 12.0873C21.1998 12.3973 21.2298 12.7773 21.1098 13.1173L21.0998 13.1073ZM7.83982 9.06734L7.03982 8.79734L11.8698 4.02734L13.9998 6.15734L14.8498 5.30734L18.5198 8.92734L17.7198 9.19734L14.8398 6.37734L11.0198 10.1373L10.2198 9.86734L13.4498 6.69734L11.8498 5.09734L7.81982 9.06734H7.83982Z" fill="#191919"/>
</svg>
