<svg width="25" height="25" viewBox="0 0 25 25" fill="none" xmlns="http://www.w3.org/2000/svg">
<path d="M10.4495 13.5715C13.1224 13.5715 15.2995 11.3943 15.2995 8.72148C15.2995 6.04864 13.1224 3.87148 10.4495 3.87148C7.77667 3.87148 5.59951 6.04864 5.59951 8.72148C5.59951 11.3943 7.77667 13.5715 10.4495 13.5715ZM10.4495 4.95148C12.5267 4.95148 14.2195 6.64433 14.2195 8.72148C14.2195 10.7986 12.5267 12.4915 10.4495 12.4915C8.37235 12.4915 6.67951 10.7986 6.67951 8.72148C6.67951 6.64433 8.37235 4.95148 10.4495 4.95148Z" fill="#191919" stroke="#191919" stroke-width="0.3"/>
<path d="M15.8696 13.7706H18.3096V16.2106V16.3606H18.4596H19.3596H19.5096V16.2106V13.7706H21.9396H22.0896V13.6206V12.7206V12.5706H21.9396H19.5096V10.1406V9.99062H19.3596H18.4596H18.3096V10.1406V12.5706H15.8696H15.7196V12.7206V13.6206V13.7706H15.8696Z" fill="#191919" stroke="#191919" stroke-width="0.3"/>
<path d="M3.84951 21.9303V22.0803H3.99951H4.79951H4.94951V21.9303V18.8817C4.97893 17.2568 6.05832 15.9796 7.63042 15.9603H13.5495V15.9606L13.5582 15.9601C14.8391 15.8858 16.2001 17.0831 16.2295 18.8815V21.9303V22.0803H16.3795H17.1795H17.3295V21.9303V18.8803C17.3295 16.6844 15.6591 14.9203 13.5495 14.9203H7.62951C5.51991 14.9203 3.84951 16.6844 3.84951 18.8803V21.9303Z" fill="#191919" stroke="#191919" stroke-width="0.3"/>
</svg>
