<svg width="25" height="25" viewBox="0 0 25 25" fill="none" xmlns="http://www.w3.org/2000/svg">
<path d="M9.39572 10.6245L9.39573 10.6245L9.39547 10.6234C9.29721 10.2085 9.03208 9.81322 8.60905 9.63029L8.60906 9.63027L8.60662 9.62927C8.41732 9.55132 8.22778 9.51797 8.03951 9.51797C7.40081 9.51797 6.83957 9.955 6.69346 10.5838C6.69344 10.5839 6.69342 10.584 6.6934 10.584L5.35353 16.2535L5.30993 16.438H5.49951H6.13951H6.26055L6.28612 16.3197L6.66055 14.588H9.38719L9.74258 16.3182L9.76719 16.438H9.88951H10.5395H10.7278L10.6857 16.2545L9.39572 10.6245ZM8.48429 10.8857L9.13052 13.658H6.92977L7.6034 10.8512C7.72363 10.5237 7.92729 10.458 8.03951 10.458C8.08002 10.458 8.1196 10.4642 8.16961 10.4855C8.1829 10.4914 8.19503 10.4963 8.20641 10.501C8.2469 10.5176 8.27783 10.5303 8.31699 10.5661C8.36473 10.6098 8.42988 10.697 8.48429 10.8857Z" fill="#191919" stroke="#191919" stroke-width="0.3"/>
<path d="M2.86953 19.5974V19.7474H3.01953H22.9195H23.0695V19.5974V8.42742C23.0695 7.20458 22.0724 6.20742 20.8495 6.20742H5.08953C3.86669 6.20742 2.86953 7.20458 2.86953 8.42742V19.5974ZM22.1495 8.43742V18.8174H13.3298L13.3493 7.14742H20.8595C21.153 7.14742 21.477 7.30953 21.7322 7.56474C21.9874 7.81995 22.1495 8.14398 22.1495 8.43742ZM3.79953 8.42742C3.79953 8.13926 3.96136 7.81514 4.21709 7.55825C4.47272 7.30145 4.7967 7.13742 5.08953 7.13742H12.3995V18.8074H3.79953V8.42742Z" fill="#191919" stroke="#191919" stroke-width="0.3"/>
<path d="M17.7294 9.51797H17.5794V9.66797V10.348H14.6294H14.4794V10.498V11.128V11.278H14.6294H19.5973C19.5404 11.6342 19.4106 12.1667 19.1784 12.724C18.9209 13.3422 18.5423 13.9796 18.0085 14.4432C17.505 14.0179 16.9591 13.3687 16.7451 12.9141L16.7046 12.828H16.6094H15.9194H15.6978L15.7801 13.0337C16.0243 13.6441 16.3989 14.3007 16.9685 14.8748C16.3602 15.1427 15.5943 15.318 14.6394 15.318H14.4894V15.468V16.098V16.248H14.6394C16.0491 16.248 17.1237 15.9323 17.959 15.443C18.7863 15.9326 19.8705 16.248 21.2794 16.248H21.4294V16.098V15.468V15.318H21.2794C20.3219 15.318 19.5559 15.1499 18.9486 14.8765C20.093 13.7174 20.4428 12.0761 20.5515 11.278H21.2794H21.4294V11.128V10.498V10.348H21.2794H18.5294V9.66797V9.51797H18.3794H18.3594H17.7294Z" fill="#191919" stroke="#191919" stroke-width="0.3"/>
</svg>
