<svg width="25" height="25" viewBox="0 0 25 25" fill="none" xmlns="http://www.w3.org/2000/svg">
<path d="M9.24951 10.658C9.15951 10.278 8.91951 9.92797 8.54951 9.76797C8.37951 9.69797 8.20951 9.66797 8.03951 9.66797C7.46951 9.66797 6.96951 10.058 6.83951 10.618L5.49951 16.288H6.13951L6.53951 14.438H9.50951L9.88951 16.288H10.5395L9.24951 10.658ZM6.73951 13.808L7.45951 10.808C7.59951 10.418 7.85951 10.308 8.03951 10.308C8.09951 10.308 8.15951 10.318 8.22951 10.348C8.31951 10.388 8.50951 10.428 8.62951 10.848L9.31951 13.808H6.73951Z" fill="#191919"/>
<path d="M20.8495 6.35742H5.08953C3.94953 6.35742 3.01953 7.28742 3.01953 8.42742V19.5974H22.9195V8.42742C22.9195 7.28742 21.9895 6.35742 20.8495 6.35742ZM3.64953 8.42742C3.64953 7.74742 4.39953 6.98742 5.08953 6.98742H12.5495V18.9574H3.64953V8.42742ZM22.2895 18.9674H13.1795L13.1995 6.99742H20.8595C21.5495 6.99742 22.2995 7.74742 22.2995 8.43742V18.9774L22.2895 18.9674Z" fill="#191919"/>
<path d="M18.3594 9.66797H17.7294V10.498H14.6294V11.128H19.7694C19.6894 11.838 19.2294 13.658 18.0094 14.638C17.4694 14.208 16.8494 13.488 16.6094 12.978H15.9194C16.1794 13.628 16.5894 14.328 17.2294 14.918C16.5694 15.248 15.7194 15.468 14.6394 15.468V16.098C16.0694 16.098 17.1394 15.768 17.9594 15.268C18.7694 15.768 19.8494 16.098 21.2794 16.098V15.468C20.1994 15.468 19.3494 15.258 18.6894 14.918C19.9894 13.728 20.3294 11.888 20.4194 11.128H21.2794V10.498H18.3794V9.66797H18.3594Z" fill="#191919"/>
</svg>
