<svg width="25" height="25" viewBox="0 0 25 25" fill="none" xmlns="http://www.w3.org/2000/svg">
<path d="M10.7246 17.612H10.8746V17.462V15.222V15.072H10.7246H9.97463H9.82463V15.222V17.462V17.612H9.97463H10.7246ZM22.0946 8.11195V7.96195H22.082C22.0027 5.68805 20.1273 3.85195 17.8246 3.85195C15.4718 3.85195 13.5646 5.75911 13.5646 8.11195V10.582H3.99463H3.84463V10.732V20.082C3.84463 21.1948 4.75179 22.102 5.86463 22.102H14.8246C15.9375 22.102 16.8446 21.1948 16.8446 20.082V10.732V10.582H16.6946H14.6046V8.11195C14.6046 6.3348 16.0475 4.89195 17.8246 4.89195C19.6018 4.89195 21.0446 6.3348 21.0446 8.11195V8.48195V8.63195H21.1946H21.9446H22.0946V8.48195V8.11195ZM4.89463 11.632H15.8046V20.082C15.8046 20.6191 15.3718 21.052 14.8346 21.052H5.86463C5.32747 21.052 4.89463 20.6191 4.89463 20.082V11.632Z" fill="#191919" stroke="#191919" stroke-width="0.3"/>
</svg>
