<svg width="25" height="25" viewBox="0 0 25 25" fill="none" xmlns="http://www.w3.org/2000/svg">
<path d="M10.7246 17.462H9.97463V15.222H10.7246V17.462ZM21.9446 8.11195V8.48195H21.1946V8.11195C21.1946 6.25195 19.6846 4.74195 17.8246 4.74195C15.9646 4.74195 14.4546 6.25195 14.4546 8.11195V10.732H16.6946V20.082C16.6946 21.112 15.8546 21.952 14.8246 21.952H5.86463C4.83463 21.952 3.99463 21.112 3.99463 20.082V10.732H13.7146V8.11195C13.7146 5.84195 15.5546 4.00195 17.8246 4.00195C20.0946 4.00195 21.9346 5.85195 21.9346 8.11195H21.9446ZM15.9646 11.482H4.74463V20.082C4.74463 20.702 5.24463 21.202 5.86463 21.202H14.8346C15.4546 21.202 15.9546 20.702 15.9546 20.082V11.482H15.9646Z" fill="#191919"/>
</svg>
