<svg width="25" height="25" viewBox="0 0 25 25" fill="none" xmlns="http://www.w3.org/2000/svg">
<path d="M20.8048 23.05H20.9548V22.9V19.16C20.9548 16.4669 18.8374 14.35 16.1348 14.35H9.80477C7.10213 14.35 4.98477 16.4669 4.98477 19.16V22.9V23.05H5.13477H5.96477H6.11477V22.9V19.16C6.11477 17.2128 7.85761 15.47 9.80477 15.47H16.1348C18.0819 15.47 19.8248 17.2128 19.8248 19.16V22.9V23.05H19.9748H20.8048Z" fill="#191919" stroke="#191919" stroke-width="0.3"/>
<path d="M12.8246 12.7185V12.7308H12.9746C15.6872 12.7308 17.8946 10.5238 17.8946 7.82078C17.8946 5.11814 15.6876 2.90078 12.9746 2.90078C10.262 2.90078 8.05459 5.10773 8.05459 7.81078C8.05459 10.4638 10.181 12.639 12.8246 12.7185ZM12.9746 3.99078C15.0822 3.99078 16.8046 5.70411 16.8046 7.81078C16.8046 9.91769 15.092 11.6308 12.9746 11.6308C10.8572 11.6308 9.14459 9.91769 9.14459 7.81078C9.14459 5.70411 10.8669 3.99078 12.9746 3.99078Z" fill="#191919" stroke="#191919" stroke-width="0.3"/>
</svg>
