<svg width="25" height="25" viewBox="0 0 25 25" fill="none" xmlns="http://www.w3.org/2000/svg">
<path d="M9.60977 13.7256C11.4598 13.7256 12.9698 12.2156 12.9698 10.3656C12.9698 8.51562 11.4598 7.00563 9.60977 7.00563C7.75977 7.00563 6.24977 8.51562 6.24977 10.3656C6.24977 12.2156 7.75977 13.7256 9.60977 13.7256ZM9.60977 7.74563C11.0498 7.74563 12.2198 8.91563 12.2198 10.3556C12.2198 11.7956 11.0498 12.9656 9.60977 12.9656C8.16977 12.9656 6.99977 11.7956 6.99977 10.3556C6.99977 8.91563 8.16977 7.74563 9.60977 7.74563ZM15.2098 18.5756V21.9356H14.4598V18.5756C14.4598 17.1356 13.2898 15.9656 11.8498 15.9656H7.36977C5.92977 15.9656 4.75977 17.1356 4.75977 18.5756V21.9356H4.00977V18.5756C4.00977 16.7256 5.51977 15.2156 7.36977 15.2156H11.8498C13.6998 15.2156 15.2098 16.7256 15.2098 18.5756ZM17.0798 10.7356C18.9298 10.7356 20.4398 9.22563 20.4398 7.37562C20.4398 5.52562 18.9298 4.01562 17.0798 4.01562C15.2298 4.01562 13.7198 5.52562 13.7198 7.37562C13.7198 9.22563 15.2298 10.7356 17.0798 10.7356ZM17.0798 4.76562C18.5198 4.76562 19.6898 5.93562 19.6898 7.37562C19.6898 8.81563 18.5198 9.98562 17.0798 9.98562C15.6398 9.98562 14.4698 8.81563 14.4698 7.37562C14.4698 5.93562 15.6398 4.76562 17.0798 4.76562ZM21.9298 15.5956V18.9556H21.1798V15.5956C21.1798 14.1556 20.0098 12.9856 18.5698 12.9856H14.0898C13.9498 12.9856 13.8098 13.0056 13.6698 13.0256C13.8298 12.7756 13.9798 12.5156 14.0898 12.2356H18.5698C20.4198 12.2356 21.9298 13.7456 21.9298 15.5956Z" fill="#191919"/>
</svg>
