<svg width="25" height="25" viewBox="0 0 25 25" fill="none" xmlns="http://www.w3.org/2000/svg">
<path d="M15.2098 22.0856H15.3598V21.9356V18.5756C15.3598 16.6428 13.7826 15.0656 11.8498 15.0656H7.36977C5.43692 15.0656 3.85977 16.6428 3.85977 18.5756V21.9356V22.0856H4.00977H4.75977H4.90977V21.9356V18.5756C4.90977 17.2185 6.01261 16.1156 7.36977 16.1156H11.8498C13.2069 16.1156 14.3098 17.2185 14.3098 18.5756V21.9356V22.0856H14.4598H15.2098ZM21.9298 19.1056H22.0798V18.9556V15.5956C22.0798 13.6628 20.5026 12.0856 18.5698 12.0856H14.0898H13.9875L13.9502 12.1808C13.8454 12.4475 13.7013 12.6981 13.5434 12.9448L13.367 13.2204L13.691 13.1741C13.8328 13.1539 13.9622 13.1356 14.0898 13.1356H18.5698C19.9269 13.1356 21.0298 14.2385 21.0298 15.5956V18.9556V19.1056H21.1798H21.9298ZM9.60977 13.8756C11.5426 13.8756 13.1198 12.2985 13.1198 10.3656C13.1198 8.43278 11.5426 6.85562 9.60977 6.85562C7.67692 6.85562 6.09977 8.43278 6.09977 10.3656C6.09977 12.2985 7.67692 13.8756 9.60977 13.8756ZM9.60977 7.89563C10.9669 7.89563 12.0698 8.99847 12.0698 10.3556C12.0698 11.7128 10.9669 12.8156 9.60977 12.8156C8.25261 12.8156 7.14977 11.7128 7.14977 10.3556C7.14977 8.99847 8.25261 7.89563 9.60977 7.89563ZM17.0798 10.8856C19.0126 10.8856 20.5898 9.30847 20.5898 7.37562C20.5898 5.44278 19.0126 3.86562 17.0798 3.86562C15.1469 3.86562 13.5698 5.44278 13.5698 7.37562C13.5698 9.30847 15.1469 10.8856 17.0798 10.8856ZM17.0798 4.91562C18.4369 4.91562 19.5398 6.01847 19.5398 7.37562C19.5398 8.73278 18.4369 9.83562 17.0798 9.83562C15.7226 9.83562 14.6198 8.73278 14.6198 7.37562C14.6198 6.01847 15.7226 4.91562 17.0798 4.91562Z" fill="#191919" stroke="#191919" stroke-width="0.3"/>
</svg>
