<svg width="25" height="25" viewBox="0 0 25 25" fill="none" xmlns="http://www.w3.org/2000/svg">
<path d="M20.9633 13.4274L20.9628 13.427L15.6857 21.1527C15.3819 21.6703 14.8522 22.0257 14.2372 22.1013L14.2375 22.1013L14.2189 21.9524L14.2372 22.1013L20.9633 13.4274ZM20.9633 13.4274L20.9699 13.4154C22.2483 11.1203 21.9442 8.2632 20.292 6.27951L21.176 5.37741L21.279 5.27232L21.1759 5.16733L20.6359 4.61733L20.5288 4.5082L20.4218 4.61744L19.5508 5.5064C17.4857 3.74769 14.554 3.52574 12.2373 5.02653L12.2373 5.02645L12.233 5.02947L4.794 10.2287C4.29755 10.5638 3.97351 11.104 3.91949 11.7091C3.86571 12.3114 4.07008 12.9049 4.49149 13.3371L4.49221 13.3379L6.93822 15.8128C6.46983 16.4181 6.19889 17.1511 6.19889 17.9324C6.19889 18.8516 6.5542 19.7194 7.19197 20.3676L7.19198 20.3676C7.83988 21.026 8.68827 21.3824 9.59889 21.3824C10.3701 21.3824 11.0932 21.112 11.689 20.6357L20.9633 13.4274ZM22.0064 16.9815L22.0848 16.855L21.9589 16.7756L21.3089 16.3656L21.1811 16.2849L21.1014 16.4134L18.1114 21.2334L18.0329 21.3599L18.1589 21.4393L18.8089 21.8493L18.9367 21.9299L19.0164 21.8015L22.0064 16.9815ZM9.68656 4.77075L9.81496 4.69303L9.73717 4.56468L9.33717 3.90468L9.25947 3.77647L9.13122 3.8541L4.19122 6.8441L4.06282 6.92181L4.14061 7.05017L4.54061 7.71017L4.61831 7.83837L4.74656 7.76075L9.68656 4.77075ZM12.5718 21.5275L12.5723 21.5279L12.6789 21.4224L12.5713 21.527C12.5715 21.5271 12.5717 21.5273 12.5718 21.5275ZM7.70465 16.5721L10.9365 19.8503C10.0443 20.4719 8.74841 20.3887 7.96556 19.597L7.96496 19.5964C7.52376 19.1552 7.27889 18.5536 7.27889 17.9224C7.27889 17.4345 7.42942 16.9688 7.70465 16.5721ZM20.0577 12.8598L20.0187 12.9302L14.7951 20.5677L14.7948 20.5675L14.7895 20.5766C14.6416 20.8289 14.3913 20.9995 14.1108 21.0335L14.1108 21.0334L14.1064 21.0341C13.8278 21.0763 13.5446 20.9758 13.3353 20.7667C13.3352 20.7666 13.3351 20.7665 13.335 20.7664L5.26574 12.5771L5.26496 12.5764C5.06809 12.3795 4.97209 12.104 4.99828 11.816C5.02419 11.531 5.1701 11.2814 5.41312 11.1165L5.41313 11.1166L5.41495 11.1153L12.8227 5.92685C13.6779 5.37355 14.6287 5.10242 15.5789 5.10242C16.8986 5.10242 18.2001 5.62619 19.2021 6.63773C20.8253 8.29033 21.1655 10.8579 20.0577 12.8598Z" fill="#191919" stroke="#191919" stroke-width="0.3"/>
</svg>
