<svg width="25" height="25" viewBox="0 0 25 25" fill="none" xmlns="http://www.w3.org/2000/svg">
<path d="M21.8789 16.9024L18.8889 21.7224L18.2389 21.3124L21.2289 16.4924L21.8789 16.9024ZM9.60889 4.64242L9.20889 3.98242L4.26889 6.97242L4.66889 7.63242L9.60889 4.64242ZM20.8389 13.3424L15.5589 21.0724C15.2789 21.5524 14.7889 21.8824 14.2189 21.9524C14.1389 21.9624 14.0589 21.9724 13.9789 21.9724C13.4889 21.9724 13.0289 21.7824 12.6789 21.4224L11.6989 20.4324C11.1089 20.9424 10.3789 21.2324 9.59889 21.2324C8.72889 21.2324 7.91889 20.8924 7.29889 20.2624C6.68889 19.6424 6.34889 18.8124 6.34889 17.9324C6.34889 17.1424 6.63889 16.4024 7.13889 15.8024L4.59889 13.2324C4.20889 12.8324 4.01889 12.2824 4.06889 11.7224C4.11889 11.1624 4.41889 10.6624 4.87889 10.3524L12.3189 5.15242C14.6189 3.66242 17.5389 3.91242 19.5589 5.71242L20.5289 4.72242L21.0689 5.27242L20.0889 6.27242C21.7789 8.21242 22.1089 11.0624 20.8389 13.3424ZM11.1689 19.8724L7.68889 16.3424C7.32889 16.7924 7.12889 17.3424 7.12889 17.9224C7.12889 18.5924 7.38889 19.2324 7.85889 19.7024C8.73889 20.5924 10.2189 20.6424 11.1689 19.8624V19.8724ZM20.1889 12.9324C21.3289 10.8724 20.9789 8.23242 19.3089 6.53242C18.2789 5.49242 16.9389 4.95242 15.5789 4.95242C14.5989 4.95242 13.6189 5.23242 12.7389 5.80242L5.32889 10.9924C5.04889 11.1824 4.87889 11.4724 4.84889 11.8024C4.81889 12.1324 4.92889 12.4524 5.15889 12.6824L13.2289 20.8724C13.4689 21.1124 13.7989 21.2324 14.1289 21.1824C14.4589 21.1424 14.7489 20.9424 14.9189 20.6524L20.1989 12.9324H20.1889Z" fill="#191919"/>
</svg>
