<svg width="25" height="25" viewBox="0 0 25 25" fill="none" xmlns="http://www.w3.org/2000/svg">
<path d="M16.2798 6.33594H9.63977C5.98977 6.33594 3.00977 9.31594 3.00977 12.9759C3.00977 16.6359 5.98977 19.6159 9.64977 19.6159H16.2898C19.9498 19.6159 22.9298 16.6359 22.9298 12.9759C22.9298 9.31594 19.9398 6.33594 16.2798 6.33594ZM16.2798 18.7759H9.63977C6.43977 18.7759 3.82977 16.1659 3.82977 12.9659C3.82977 9.76594 6.43977 7.16594 9.64977 7.16594H16.2898C19.4898 7.16594 22.0998 9.77594 22.0998 12.9759C22.0998 16.1759 19.4998 18.7859 16.2898 18.7859L16.2798 18.7759ZM9.64977 9.65594C7.81977 9.65594 6.32977 11.1459 6.32977 12.9759C6.32977 14.8059 7.81977 16.2959 9.64977 16.2959C11.4798 16.2959 12.9698 14.8059 12.9698 12.9759C12.9698 11.1459 11.4798 9.65594 9.64977 9.65594ZM9.64977 15.4559C8.27977 15.4559 7.15977 14.3359 7.15977 12.9659C7.15977 11.5959 8.27977 10.4759 9.64977 10.4759C11.0198 10.4759 12.1398 11.5959 12.1398 12.9659C12.1398 14.3359 11.0198 15.4559 9.64977 15.4559Z" fill="#191919"/>
</svg>
