<svg width="25" height="25" viewBox="0 0 25 25" fill="none" xmlns="http://www.w3.org/2000/svg">
<path d="M16.3516 18.6356L16.3419 18.6259H16.2798H9.63977C6.52261 18.6259 3.97977 16.0831 3.97977 12.9659C3.97977 9.84928 6.5221 7.31594 9.64977 7.31594H16.2898C19.4069 7.31594 21.9498 9.85878 21.9498 12.9759C21.9498 16.0727 19.4501 18.6024 16.3516 18.6356ZM16.2798 6.18594H9.63977C5.90678 6.18594 2.85977 9.23324 2.85977 12.9759C2.85977 16.7188 5.90692 19.7659 9.64977 19.7659H16.2898C20.0326 19.7659 23.0798 16.7188 23.0798 12.9759C23.0798 9.2328 20.0223 6.18594 16.2798 6.18594ZM9.64977 9.50594C7.73692 9.50594 6.17977 11.0631 6.17977 12.9759C6.17977 14.8888 7.73692 16.4459 9.64977 16.4459C11.5626 16.4459 13.1198 14.8888 13.1198 12.9759C13.1198 11.0631 11.5626 9.50594 9.64977 9.50594ZM9.64977 15.3059C8.36261 15.3059 7.30977 14.2531 7.30977 12.9659C7.30977 11.6788 8.36261 10.6259 9.64977 10.6259C10.9369 10.6259 11.9898 11.6788 11.9898 12.9659C11.9898 14.2531 10.9369 15.3059 9.64977 15.3059Z" fill="#191919" stroke="#191919" stroke-width="0.3"/>
</svg>
