<svg width="25" height="25" viewBox="0 0 25 25" fill="none" xmlns="http://www.w3.org/2000/svg">
<path d="M21.8796 21.0773H22.0296V20.9273V7.50734C22.0296 6.05372 20.8416 4.87734 19.3896 4.87734H6.54957C5.09751 4.87734 3.90957 6.05372 3.90957 7.50734V20.9273V21.0773H4.05957H21.8796ZM4.96957 19.5357V7.50734C4.96957 7.14926 5.16884 6.75528 5.47918 6.44611C5.78941 6.13707 6.186 5.93734 6.54957 5.93734H19.3896C19.7531 5.93734 20.1497 6.13707 20.46 6.44611C20.7703 6.75528 20.9696 7.14926 20.9696 7.50734V8.24437L14.2404 14.8464L11.0555 11.6711L10.9329 11.5489L10.8294 11.6876L4.96957 19.5357ZM14.1237 16.3236L14.2296 16.4292L14.3355 16.3236L20.9596 9.71873V20.0073H6.00345L10.958 13.1676L14.1237 16.3236ZM7.98957 8.85734C7.3587 8.85734 6.83957 9.36254 6.83957 9.99734C6.83957 10.6212 7.35771 11.1373 7.98957 11.1373C8.62143 11.1373 9.13957 10.6212 9.13957 9.99734C9.13957 9.37352 8.62143 8.85734 7.98957 8.85734Z" fill="#191919" stroke="#191919" stroke-width="0.3"/>
</svg>
