<svg width="25" height="25" viewBox="0 0 25 25" fill="none" xmlns="http://www.w3.org/2000/svg">
<path d="M6.98957 9.99734C6.98957 9.44734 7.43957 9.00734 7.98957 9.00734C8.53957 9.00734 8.98957 9.45734 8.98957 9.99734C8.98957 10.5373 8.53957 10.9873 7.98957 10.9873C7.43957 10.9873 6.98957 10.5373 6.98957 9.99734ZM21.8796 7.50734V20.9273H4.05957V7.50734C4.05957 6.13734 5.17957 5.02734 6.54957 5.02734H19.3896C20.7596 5.02734 21.8796 6.13734 21.8796 7.50734ZM4.81957 7.50734V19.9873L10.9496 11.7773L14.2396 15.0573L21.1196 8.30734V7.50734C21.1196 6.68734 20.2196 5.78734 19.3896 5.78734H6.54957C5.71957 5.78734 4.81957 6.68734 4.81957 7.50734ZM21.1096 20.1673V9.35734L14.2296 16.2173L10.9396 12.9373L5.70957 20.1573H21.2296H21.1096V20.1673Z" fill="#191919"/>
</svg>
