<svg width="25" height="25" viewBox="0 0 25 25" fill="none" xmlns="http://www.w3.org/2000/svg">
<path d="M16.7848 22.9359H9.1648C7.6548 22.9359 6.4248 21.7059 6.4248 20.1959V5.73586C6.4248 4.22586 7.6448 3.00586 9.1548 3.00586H16.7748C18.2848 3.00586 19.5148 4.23586 19.5148 5.74586V20.2159C19.5148 21.7259 18.2948 22.9459 16.7848 22.9459V22.9359ZM9.2048 3.69586C8.1748 3.69586 7.1148 4.76586 7.1148 5.80586V20.1259C7.1148 21.1659 8.1748 22.2259 9.2048 22.2259H16.6948C17.7248 22.2259 18.7948 21.1559 18.7948 20.1159V5.79586C18.7948 4.75586 17.7348 3.69586 16.7048 3.69586H9.2048ZM14.6348 20.1159C14.6348 19.9359 14.4448 19.7859 14.2148 19.7859H11.7148C11.4848 19.7859 11.2948 19.9359 11.2948 20.1159C11.2948 20.2959 11.4848 20.4459 11.7148 20.4459H14.2148C14.4448 20.4459 14.6348 20.2959 14.6348 20.1159Z" fill="#191919"/>
</svg>
