<svg width="25" height="25" viewBox="0 0 25 25" fill="none" xmlns="http://www.w3.org/2000/svg">
<path d="M20.6546 5.04688H5.28463C4.02463 5.04688 2.99463 6.07687 2.99463 7.33687V20.9069H22.9446V7.33687C22.9446 6.07687 21.9146 5.04688 20.6546 5.04688ZM5.18463 5.81687H20.7446C21.3746 5.81687 21.9146 6.54687 22.0746 7.14687L15.3346 13.4269C14.1246 14.6369 12.0046 14.5869 10.7946 13.3769L3.91463 7.02688C4.11463 6.52688 4.61463 5.81687 5.19463 5.81687H5.18463ZM3.76463 20.1469V8.02688L10.1646 13.9169C10.9446 14.6969 11.9846 15.1269 13.0846 15.1269C14.1846 15.1269 15.2246 14.6969 16.0046 13.9169L22.1846 8.23688V20.1469H3.76463Z" fill="#191919"/>
</svg>
