<svg width="25" height="25" viewBox="0 0 25 25" fill="none" xmlns="http://www.w3.org/2000/svg">
<path d="M2.84463 20.9069V21.0569H2.99463H22.9446H23.0946V20.9069V7.33687C23.0946 5.99403 21.9975 4.89687 20.6546 4.89687H5.28463C3.94179 4.89687 2.84463 5.99403 2.84463 7.33687V20.9069ZM4.52213 6.33635C4.73329 6.10859 4.96616 5.96687 5.19463 5.96687H20.7446C21.0005 5.96687 21.2558 6.11639 21.4748 6.3577C21.6702 6.57299 21.8221 6.84607 21.9045 7.10036L15.2324 13.3171L15.2323 13.3171L15.2286 13.3208C14.0801 14.4693 12.0551 14.4253 10.9007 13.2708L10.9008 13.2707L10.8964 13.2666L4.09418 6.98847C4.19191 6.77376 4.34097 6.53177 4.52213 6.33635ZM3.91463 19.9969V8.36878L10.0608 14.0252C10.8687 14.8319 11.9459 15.2769 13.0846 15.2769C14.2233 15.2769 15.3005 14.8319 16.1084 14.0252L22.0346 8.57847V19.9969H3.91463Z" fill="#191919" stroke="#191919" stroke-width="0.3"/>
</svg>
