<svg width="25" height="25" viewBox="0 0 25 25" fill="none" xmlns="http://www.w3.org/2000/svg">
<path d="M21.6937 20.686L18.1042 14.6269C18.1041 14.6268 18.104 14.6266 18.1039 14.6264C17.937 14.3407 17.6278 14.1625 17.2946 14.1625C16.9614 14.1625 16.6522 14.3407 16.4853 14.6265C16.4852 14.6266 16.4851 14.6268 16.485 14.6269L12.896 20.6853C12.8959 20.6855 12.8958 20.6856 12.8958 20.6857C12.7187 20.9811 12.7165 21.34 12.8955 21.6289C13.0643 21.9277 13.3754 22.0925 13.7046 22.0925H20.8746C21.208 22.0925 21.5173 21.9141 21.6842 21.6281L21.6842 21.6281L21.6855 21.6258C21.8094 21.4045 21.8411 21.1482 21.7781 20.9125H21.8278L21.6937 20.686ZM17.1137 15.6489L17.1137 15.6489L17.1152 15.6463C17.1492 15.5861 17.2168 15.55 17.2946 15.55C17.3725 15.55 17.44 15.5861 17.474 15.6463L17.474 15.6463L17.4755 15.6489L20.5141 20.7864C20.5359 20.8271 20.5572 20.8852 20.5667 20.9422C20.577 21.0045 20.5692 21.0392 20.5629 21.0507C20.5608 21.0546 20.5489 21.0706 20.5 21.0844C20.4531 21.0977 20.394 21.1025 20.3346 21.1025H14.2546C14.1954 21.1025 14.139 21.0977 14.0937 21.0846C14.0534 21.073 14.0339 21.0585 14.0244 21.0464C14.0186 21.0319 14.0132 20.9981 14.0226 20.9422C14.0321 20.8852 14.0533 20.8271 14.0752 20.7864L17.1137 15.6489ZM17.6146 19.3725H17.7646V19.2225V16.6825V16.5325H17.6146H17.0146H16.8646V16.6825V19.2225V19.3725H17.0146H17.6146ZM17.3046 20.6425C17.5875 20.6425 17.8146 20.4153 17.8146 20.1325C17.8146 19.8497 17.5875 19.6225 17.3046 19.6225C17.0218 19.6225 16.7946 19.8497 16.7946 20.1325C16.7946 20.4153 17.0218 20.6425 17.3046 20.6425Z" fill="#191919" stroke="#191919" stroke-width="0.3"/>
<path d="M11.2346 21.052H4.89463V10.882H21.0446V18.172V18.2412L21.0974 18.2861C21.2092 18.3814 21.327 18.5672 21.455 18.7873C21.4729 18.8183 21.4911 18.8499 21.5095 18.8819C21.6135 19.0626 21.7231 19.2532 21.8304 19.3792L22.0946 19.6894V19.282V7.37195C22.0946 6.25911 21.1875 5.35195 20.0746 5.35195H17.6046V4.00195V3.85195H17.4546H16.7046H16.5546V4.00195V5.35195H9.37463V4.00195V3.85195H9.22463H8.47463H8.32463V4.00195V5.35195H5.86463C4.75179 5.35195 3.84463 6.25911 3.84463 7.37195V21.952V22.102H3.99463H11.8346H12.1425L11.9528 21.8595C11.8878 21.7766 11.8039 21.6877 11.7237 21.6028C11.6875 21.5644 11.652 21.5269 11.6193 21.491C11.5066 21.3671 11.4177 21.2538 11.3735 21.1454L11.3355 21.052H11.2346ZM21.0446 9.83195H4.89463V7.36195C4.89463 6.8248 5.32747 6.39195 5.86463 6.39195H20.0746C20.6118 6.39195 21.0446 6.8248 21.0446 7.36195V9.83195Z" fill="#191919" stroke="#191919" stroke-width="0.3"/>
</svg>
