<svg width="25" height="25" viewBox="0 0 25 25" fill="none" xmlns="http://www.w3.org/2000/svg">
<path d="M22.9549 12.9759C22.9549 18.4759 18.4749 22.9459 12.9749 22.9459C7.47486 22.9459 2.98486 18.4659 2.98486 12.9759C2.98486 7.48586 7.46486 3.00586 12.9649 3.00586C18.4649 3.00586 22.9449 7.47586 22.9449 12.9759H22.9549ZM22.1249 12.9759C22.1249 7.93586 18.0149 3.83586 12.9649 3.83586C7.91486 3.83586 3.81486 7.93586 3.81486 12.9759C3.81486 18.0159 7.92486 22.1059 12.9649 22.1059C18.0049 22.1059 22.1149 18.0059 22.1149 12.9759H22.1249Z" fill="#191919"/>
<path d="M10.0347 8.80664C9.49469 8.80664 9.05469 9.24664 9.05469 9.78664C9.05469 10.3266 9.49469 10.7666 10.0347 10.7666C10.5747 10.7666 11.0147 10.3266 11.0147 9.78664C11.0147 9.24664 10.5747 8.80664 10.0347 8.80664ZM15.9147 14.6866C15.3747 14.6866 14.9347 15.1266 14.9347 15.6666C14.9347 16.2066 15.3747 16.6466 15.9147 16.6466C16.4547 16.6466 16.8947 16.2066 16.8947 15.6666C16.8947 15.1266 16.4547 14.6866 15.9147 14.6866ZM10.9347 16.9266L15.8347 9.57664C15.9847 9.34664 15.9247 9.04664 15.6947 8.89664C15.4747 8.74664 15.1647 8.80664 15.0147 9.03664L10.1147 16.3866C9.96469 16.6166 10.0247 16.9166 10.2547 17.0666C10.3347 17.1266 10.4347 17.1466 10.5247 17.1466C10.6847 17.1466 10.8347 17.0666 10.9347 16.9266Z" fill="#191919"/>
</svg>
