<svg width="25" height="25" viewBox="0 0 25 25" fill="none" xmlns="http://www.w3.org/2000/svg">
<path d="M21.5646 20.7625L17.9746 14.7025C17.8346 14.4625 17.5746 14.3125 17.2946 14.3125C17.0146 14.3125 16.7546 14.4625 16.6146 14.7025L13.0246 20.7625C12.8746 21.0125 12.8746 21.3125 13.0246 21.5525C13.1646 21.8025 13.4246 21.9425 13.7046 21.9425H20.8746C21.1546 21.9425 21.4146 21.7925 21.5546 21.5525C21.6946 21.3025 21.6946 21.0025 21.5546 20.7625H21.5646ZM20.6946 21.1225C20.6346 21.2325 20.4646 21.2525 20.3346 21.2525H14.2546C14.1246 21.2525 13.9646 21.2325 13.8946 21.1225C13.8346 21.0125 13.8846 20.8225 13.9446 20.7125L16.9846 15.5725C17.1146 15.3425 17.4746 15.3425 17.6046 15.5725L20.6446 20.7125C20.7046 20.8225 20.7546 21.0125 20.6946 21.1225ZM17.6146 19.2225H17.0146V16.6825H17.6146V19.2225ZM17.6646 20.1325C17.6646 20.3325 17.5046 20.4925 17.3046 20.4925C17.1046 20.4925 16.9446 20.3325 16.9446 20.1325C16.9446 19.9325 17.1046 19.7725 17.3046 19.7725C17.5046 19.7725 17.6646 19.9325 17.6646 20.1325Z" fill="#191919"/>
<path d="M20.0746 5.50195H17.4546V4.00195H16.7046V5.50195H9.22463V4.00195H8.47463V5.50195H5.86463C4.83463 5.50195 3.99463 6.34195 3.99463 7.37195V21.952H11.8346C11.6546 21.722 11.3446 21.472 11.2346 21.202H4.74463V10.732H21.1946V18.172C21.4646 18.402 21.7146 19.012 21.9446 19.282V7.37195C21.9446 6.34195 21.1046 5.50195 20.0746 5.50195ZM21.1946 9.98195H4.74463V7.36195C4.74463 6.74195 5.24463 6.24195 5.86463 6.24195H20.0746C20.6946 6.24195 21.1946 6.74195 21.1946 7.36195V9.98195Z" fill="#191919"/>
</svg>
