<svg width="25" height="25" viewBox="0 0 25 25" fill="none" xmlns="http://www.w3.org/2000/svg">
<path d="M21.6076 20.737L18.0178 14.6773C18.0178 14.6773 18.0178 14.6772 18.0177 14.6772C17.8688 14.4219 17.5924 14.2625 17.2946 14.2625C16.9969 14.2625 16.7205 14.4219 16.5715 14.6772C16.5715 14.6772 16.5714 14.6773 16.5714 14.6773L12.9817 20.7368C12.9817 20.7368 12.9817 20.7368 12.9817 20.7369C12.8226 21.002 12.8219 21.3216 12.9816 21.578C13.1312 21.8442 13.4082 21.9925 13.7046 21.9925H20.8746C21.1724 21.9925 21.4488 21.833 21.5978 21.5777L21.5982 21.5769C21.7323 21.3375 21.7456 21.0538 21.6366 20.8125H21.6523L21.6076 20.737ZM17.0276 15.598L17.0277 15.598L17.0281 15.5971C17.0828 15.5004 17.187 15.45 17.2946 15.45C17.4022 15.45 17.5064 15.5004 17.5611 15.5971L17.5611 15.5971L17.5616 15.598L20.6011 20.7372C20.6284 20.7874 20.6538 20.8568 20.6653 20.9257C20.6771 20.9965 20.6728 21.0581 20.6507 21.0986C20.63 21.1365 20.5877 21.1635 20.5272 21.1806C20.4675 21.1976 20.3977 21.2025 20.3346 21.2025H14.2546C14.1915 21.2025 14.1244 21.1976 14.066 21.1807C14.0082 21.164 13.9639 21.1372 13.9377 21.0971C13.9163 21.0566 13.9123 20.9956 13.9239 20.9257C13.9354 20.8568 13.9608 20.7874 13.9881 20.7372L17.0276 15.598ZM17.6146 19.2725H17.6646V19.2225V16.6825V16.6325H17.6146H17.0146H16.9646V16.6825V19.2225V19.2725H17.0146H17.6146ZM17.3046 20.5425C17.5322 20.5425 17.7146 20.3601 17.7146 20.1325C17.7146 19.9049 17.5322 19.7225 17.3046 19.7225C17.077 19.7225 16.8946 19.9049 16.8946 20.1325C16.8946 20.3601 17.077 20.5425 17.3046 20.5425Z" fill="#191919" stroke="#191919" stroke-width="0.1"/>
<path d="M11.2346 21.152H4.79463V10.782H21.1446V18.172V18.195L21.1622 18.21C21.2895 18.3184 21.4154 18.5204 21.5414 18.7371C21.5601 18.7692 21.5787 18.8016 21.5974 18.834C21.7018 19.0155 21.8058 19.1961 21.9066 19.3144L21.9946 19.4178V19.282V7.37195C21.9946 6.31434 21.1322 5.45195 20.0746 5.45195H17.5046V4.00195V3.95195H17.4546H16.7046H16.6546V4.00195V5.45195H9.27463V4.00195V3.95195H9.22463H8.47463H8.42463V4.00195V5.45195H5.86463C4.80701 5.45195 3.94463 6.31434 3.94463 7.37195V21.952V22.002H3.99463H11.8346H11.9373L11.874 21.9211C11.812 21.8419 11.7338 21.7592 11.6554 21.6762C11.6182 21.6368 11.581 21.5974 11.5454 21.5583C11.4319 21.4337 11.3323 21.3092 11.2809 21.1831L11.2682 21.152H11.2346ZM21.1446 9.93195H4.79463V7.36195C4.79463 6.76957 5.27224 6.29195 5.86463 6.29195H20.0746C20.667 6.29195 21.1446 6.76957 21.1446 7.36195V9.93195Z" fill="#191919" stroke="#191919" stroke-width="0.1"/>
</svg>
