<svg width="25" height="25" viewBox="0 0 25 25" fill="none" xmlns="http://www.w3.org/2000/svg">
<path d="M18.6746 15.342C19.1446 14.862 19.7046 14.132 19.7046 13.352V12.982H15.9646V13.352C15.9646 14.132 16.5246 14.862 16.9946 15.342C15.2446 15.832 13.7246 17.752 13.7246 19.712C13.7246 20.942 14.7346 21.942 15.9646 21.942H19.7046C20.9446 21.942 21.9446 20.942 21.9446 19.712C21.9446 17.752 20.4246 15.832 18.6746 15.342ZM16.7746 13.722H18.8846C18.7046 14.252 18.1846 14.792 17.8346 15.112C17.4746 14.802 16.9646 14.262 16.7846 13.722H16.7746ZM19.7046 21.202H15.9646C15.1446 21.202 14.4646 20.532 14.4646 19.712C14.4646 17.902 16.2046 16.052 17.8346 15.962C19.4646 16.042 21.2046 17.892 21.2046 19.712C21.2046 20.532 20.5346 21.202 19.7046 21.202ZM20.0746 5.50195H17.4546V4.00195H16.7046V5.50195H9.22463V4.00195H8.47463V5.50195H5.86463C4.83463 5.50195 3.99463 6.34195 3.99463 7.37195V21.952H12.9846C12.8046 21.722 12.6546 21.472 12.5346 21.202H4.74463V10.732H21.1946V15.072C21.4646 15.302 21.7146 15.552 21.9446 15.832V7.37195C21.9446 6.34195 21.1046 5.50195 20.0746 5.50195ZM21.1946 9.98195H4.74463V7.36195C4.74463 6.74195 5.24463 6.24195 5.86463 6.24195H20.0746C20.6946 6.24195 21.1946 6.74195 21.1946 7.36195V9.98195Z" fill="#191919"/>
</svg>
