<svg width="25" height="25" viewBox="0 0 25 25" fill="none" xmlns="http://www.w3.org/2000/svg">
<path d="M21.0852 16.8848C20.5229 16.1464 19.7694 15.5609 18.9474 15.271C19.3834 14.7882 19.8546 14.1001 19.8546 13.352V12.982V12.832H19.7046H15.9646H15.8146V12.982V13.352C15.8146 14.1001 16.2859 14.7882 16.7219 15.271C15.8999 15.5609 15.1464 16.1464 14.584 16.8848C13.9689 17.6927 13.5746 18.6938 13.5746 19.712C13.5746 21.0257 14.6527 22.092 15.9646 22.092H19.7046C21.027 22.092 22.0946 21.0252 22.0946 19.712C22.0946 18.6938 21.7004 17.6927 21.0852 16.8848ZM17.8321 14.9092C17.5404 14.6426 17.1962 14.2609 17.008 13.872H18.659C18.5703 14.05 18.4463 14.2299 18.307 14.401C18.152 14.5916 17.9826 14.7661 17.8321 14.9092ZM12.5346 21.052H4.89463V10.882H21.0446V15.072V15.1412L21.0974 15.1861C21.3612 15.4109 21.6049 15.6546 21.8287 15.9272L22.0946 16.2509V15.832V7.37195C22.0946 6.25911 21.1875 5.35195 20.0746 5.35195H17.6046V4.00195V3.85195H17.4546H16.7046H16.5546V4.00195V5.35195H9.37463V4.00195V3.85195H9.22463H8.47463H8.32463V4.00195V5.35195H5.86463C4.75179 5.35195 3.84463 6.25911 3.84463 7.37195V21.952V22.102H3.99463H12.9846H13.2925L13.1028 21.8595C12.9304 21.6393 12.7868 21.3999 12.6717 21.141L12.6321 21.052H12.5346ZM15.9646 21.052C15.2262 21.052 14.6146 20.4478 14.6146 19.712C14.6146 18.8533 15.0289 17.9728 15.6492 17.2931C16.2682 16.6147 17.073 16.1571 17.8351 16.1122C18.5967 16.1524 19.4012 16.6073 20.0201 17.2856C20.6402 17.9651 21.0546 18.8481 21.0546 19.712C21.0546 20.4485 20.4524 21.052 19.7046 21.052H15.9646ZM21.0446 9.83195H4.89463V7.36195C4.89463 6.8248 5.32747 6.39195 5.86463 6.39195H20.0746C20.6118 6.39195 21.0446 6.8248 21.0446 7.36195V9.83195Z" fill="#191919" stroke="#191919" stroke-width="0.3"/>
</svg>
