<svg width="25" height="25" viewBox="0 0 25 25" fill="none" xmlns="http://www.w3.org/2000/svg">
<path d="M8.91469 17.6373L7.05469 19.4973L8.91469 21.3573L8.34469 21.9273L6.48469 20.0673L4.62469 21.9273L4.05469 21.3573L5.91469 19.4973L4.05469 17.6373L4.62469 17.0673L6.48469 18.9273L8.34469 17.0673L8.91469 17.6373ZM14.8147 17.0773L12.9647 18.9173L11.1147 17.0773L10.5447 17.6473L12.3947 19.4873L10.5447 21.3273L11.1147 21.8973L12.9647 20.0573L14.8147 21.8973L15.3847 21.3273L13.5347 19.4873L15.3847 17.6473L14.8147 17.0773ZM15.8047 15.4173H10.1347C9.01469 15.4173 8.10469 14.5073 8.10469 13.3973V7.32734H10.1347V6.11734C10.1347 4.55734 11.4047 4.02734 12.9747 4.02734C14.5447 4.02734 15.8147 4.55734 15.8147 6.11734V7.32734H17.8447V13.3973C17.8447 14.5073 16.9347 15.4173 15.8147 15.4173H15.8047ZM10.9347 7.32734H14.9847V6.11734C14.9847 5.00734 14.0747 4.83734 12.9547 4.83734C11.8347 4.83734 10.9247 5.00734 10.9247 6.11734V7.32734H10.9347ZM17.0147 8.13734H8.91469V13.3973C8.91469 14.0673 9.46469 14.6073 10.1347 14.6073H15.8047C16.4747 14.6073 17.0247 14.0673 17.0247 13.3973V8.13734H17.0147ZM13.3647 10.5673H12.5547V12.1873H13.3647V10.5673ZM21.8847 17.6373L21.3147 17.0673L19.4547 18.9273L17.5947 17.0673L17.0247 17.6373L18.8847 19.4973L17.0247 21.3573L17.5947 21.9273L19.4547 20.0673L21.3147 21.9273L21.8847 21.3573L20.0247 19.4973L21.8847 17.6373Z" fill="#191919"/>
</svg>
