<svg width="25" height="25" viewBox="0 0 25 25" fill="none" xmlns="http://www.w3.org/2000/svg">
<path d="M9.02075 17.7434L9.12682 17.6373L9.02075 17.5313L8.45075 16.9613L8.34469 16.8552L8.23862 16.9613L6.48469 18.7152L4.73075 16.9613L4.62469 16.8552L4.51862 16.9613L3.94862 17.5313L3.84256 17.6373L3.94862 17.7434L5.70256 19.4973L3.94862 21.2513L3.84256 21.3573L3.94862 21.4634L4.51862 22.0334L4.62469 22.1395L4.73075 22.0334L6.48469 20.2795L8.23862 22.0334L8.34469 22.1395L8.45075 22.0334L9.02075 21.4634L9.12682 21.3573L9.02075 21.2513L7.26682 19.4973L9.02075 17.7434ZM14.9208 16.9713L14.815 16.8655L14.7089 16.971L12.9647 18.7058L11.2205 16.971L11.1144 16.8655L11.0086 16.9713L10.4386 17.5413L10.3323 17.6476L10.4389 17.7537L12.182 19.4873L10.4389 21.221L10.3323 21.3271L10.4386 21.4334L11.0086 22.0034L11.1144 22.1092L11.2205 22.0037L12.9647 20.2689L14.7089 22.0037L14.815 22.1092L14.9208 22.0034L15.4908 21.4334L15.5971 21.3271L15.4905 21.221L13.7474 19.4873L15.4905 17.7537L15.5971 17.6476L15.4908 17.5413L14.9208 16.9713ZM8.10469 7.17734H7.95469V7.32734V13.3973C7.95469 14.5907 8.93233 15.5673 10.1347 15.5673H15.8047H15.8147C17.017 15.5673 17.9947 14.5907 17.9947 13.3973V7.32734V7.17734H17.8447H15.9647V6.11734C15.9647 5.28873 15.6232 4.71729 15.0641 4.36086C14.5155 4.01118 13.7721 3.87734 12.9747 3.87734C12.1772 3.87734 11.4338 4.01118 10.8853 4.36086C10.3262 4.71729 9.98469 5.28873 9.98469 6.11734V7.17734H8.10469ZM13.5147 10.5673V10.4173H13.3647H12.5547H12.4047V10.5673V12.1873V12.3373H12.5547H13.3647H13.5147V12.1873V10.5673ZM21.9908 17.7434L22.0968 17.6373L21.9908 17.5313L21.4208 16.9613L21.3147 16.8552L21.2086 16.9613L19.4547 18.7152L17.7008 16.9613L17.5947 16.8552L17.4886 16.9613L16.9186 17.5313L16.8126 17.6373L16.9186 17.7434L18.6726 19.4973L16.9186 21.2513L16.8126 21.3573L16.9186 21.4634L17.4886 22.0334L17.5947 22.1395L17.7008 22.0334L19.4547 20.2795L21.2086 22.0334L21.3147 22.1395L21.4208 22.0334L21.9908 21.4634L22.0968 21.3573L21.9908 21.2513L20.2368 19.4973L21.9908 17.7434ZM14.8347 6.11734V7.17734H11.0747V6.11734C11.0747 5.86041 11.1272 5.66975 11.2131 5.52601C11.2986 5.38293 11.4235 5.27579 11.586 5.19562C11.9192 5.0313 12.3949 4.98734 12.9547 4.98734C13.5145 4.98734 13.9902 5.0313 14.3233 5.19562C14.4859 5.27579 14.6107 5.38293 14.6962 5.52601C14.7821 5.66975 14.8347 5.86041 14.8347 6.11734ZM9.06469 8.28734H16.8747V13.3973C16.8747 13.9829 16.3935 14.4573 15.8047 14.4573H10.1347C9.54592 14.4573 9.06469 13.9829 9.06469 13.3973V8.28734Z" fill="#191919" stroke="#191919" stroke-width="0.3"/>
</svg>
