<svg width="25" height="25" viewBox="0 0 25 25" fill="none" xmlns="http://www.w3.org/2000/svg">
<path d="M15.5846 15.0656H15.4346V15.2156V15.9656V16.1156H15.5846H18.5746H18.7246V15.9656V15.2156V15.0656H18.5746H15.5846ZM21.9446 22.0856H22.0946V21.9356V14.1056V14.0956H22.0946C22.0892 12.9874 21.1841 12.0856 20.0746 12.0856H18.3546V5.88563C18.3546 4.77278 17.4475 3.86562 16.3346 3.86562H9.60463C8.49179 3.86562 7.58463 4.77278 7.58463 5.88563V12.0756H5.86463C4.75179 12.0756 3.84463 12.9828 3.84463 14.0956V21.9356V22.0856H3.99463H21.9446ZM17.3146 5.88563V12.0756H8.64463V5.88563C8.64463 5.34847 9.07747 4.91562 9.61463 4.91562H16.3446C16.8818 4.91562 17.3146 5.34847 17.3146 5.88563ZM7.36463 15.0656H7.21463V15.2156V15.9656V16.1156H7.36463H10.3546H10.5046V15.9656V15.2156V15.0656H10.3546H7.36463ZM11.3246 7.74563V7.89563H11.4746H14.4646H14.6146V7.74563V6.99563V6.84562H14.4646H11.4746H11.3246V6.99563V7.74563ZM12.4446 13.1256V21.0356H4.89463V14.0956C4.89463 13.5585 5.32747 13.1256 5.86463 13.1256H12.4446ZM20.0746 13.1256C20.6118 13.1256 21.0446 13.5585 21.0446 14.0956V21.0356H13.4946V13.1256H20.0746Z" fill="#191919" stroke="#191919" stroke-width="0.3"/>
</svg>
