<svg width="25" height="25" viewBox="0 0 25 25" fill="none" xmlns="http://www.w3.org/2000/svg">
<path d="M15.5846 15.2156H18.5746V15.9656H15.5846V15.2156ZM21.9446 14.0956V21.9356H3.99463V14.0956C3.99463 13.0656 4.83463 12.2256 5.86463 12.2256H7.73463V5.88563C7.73463 4.85563 8.57463 4.01562 9.60463 4.01562H16.3346C17.3646 4.01562 18.2046 4.85563 18.2046 5.88563V12.2356H20.0746C21.1046 12.2356 21.9446 13.0756 21.9446 14.1056V14.0956ZM8.48463 12.2256H17.4646V5.88563C17.4646 5.26562 16.9646 4.76562 16.3446 4.76562H9.61463C8.99463 4.76562 8.49463 5.26562 8.49463 5.88563V12.2356L8.48463 12.2256ZM4.74463 21.1856H12.5946V12.9756H5.86463C5.24463 12.9756 4.74463 13.4756 4.74463 14.0956V21.1856ZM21.1946 14.0956C21.1946 13.4756 20.6946 12.9756 20.0746 12.9756H13.3446V21.1856H21.1946V14.0956ZM7.36463 15.2156V15.9656H10.3546V15.2156H7.36463ZM11.4746 7.74563H14.4646V6.99563H11.4746V7.74563Z" fill="#191919"/>
</svg>
