<svg width="25" height="25" viewBox="0 0 25 25" fill="none" xmlns="http://www.w3.org/2000/svg">
<path d="M20.8048 19.16V22.9H19.9748V19.16C19.9748 17.13 18.1648 15.32 16.1348 15.32H9.80477C7.77477 15.32 5.96477 17.13 5.96477 19.16V22.9H5.13477V19.16C5.13477 16.55 7.18477 14.5 9.80477 14.5H16.1348C18.7548 14.5 20.8048 16.55 20.8048 19.16Z" fill="#191919"/>
<path d="M12.9746 12.5808C15.6046 12.5808 17.7446 10.4408 17.7446 7.82078C17.7446 5.20078 15.6046 3.05078 12.9746 3.05078C10.3446 3.05078 8.20459 5.19078 8.20459 7.81078C8.20459 10.4308 10.3446 12.5708 12.9746 12.5708V12.5808ZM12.9746 3.84078C15.1646 3.84078 16.9546 5.62078 16.9546 7.81078C16.9546 10.0008 15.1746 11.7808 12.9746 11.7808C10.7746 11.7808 8.99459 10.0008 8.99459 7.81078C8.99459 5.62078 10.7846 3.84078 12.9746 3.84078Z" fill="#191919"/>
</svg>
