<svg width="25" height="25" viewBox="0 0 25 25" fill="none" xmlns="http://www.w3.org/2000/svg">
<path d="M11.0995 15.4308L8.18953 18.3408L11.0995 21.2508L10.4695 21.8808L7.55953 18.9708L4.64953 21.8808L4.01953 21.2508L6.92953 18.3408L4.01953 15.4308L4.64953 14.8008L7.55953 17.7108L10.4695 14.8008L11.0995 15.4308Z" fill="#191919"/>
<path d="M21.9195 6.27125C21.9195 5.04125 20.9195 4.03125 19.6795 4.03125H8.50953C7.27953 4.03125 6.26953 5.03125 6.26953 6.27125V13.2413H7.01953V6.27125C7.01953 5.45125 7.68953 4.78125 8.50953 4.78125C9.32953 4.78125 9.99953 5.45125 9.99953 6.27125V7.76125H18.9395V20.0513C18.9395 20.6713 18.4395 21.1712 17.8195 21.1712H13.2195V21.9212H17.8195C18.8495 21.9212 19.6795 21.0813 19.6795 20.0613V7.76125H21.9195V6.27125ZM21.1795 7.01125H10.7495V6.26125C10.7495 5.69125 10.5295 5.17125 10.1795 4.77125H19.6895C20.5095 4.77125 21.1795 5.44125 21.1795 6.26125V7.01125Z" fill="#191919"/>
</svg>
