<svg width="25" height="25" viewBox="0 0 25 25" fill="none" xmlns="http://www.w3.org/2000/svg">
<path d="M11.2056 15.5368L11.3117 15.4308L11.2056 15.3247L10.5756 14.6947L10.4695 14.5886L10.3635 14.6947L7.55953 17.4986L4.7556 14.6947L4.64953 14.5886L4.54347 14.6947L3.91347 15.3247L3.8074 15.4308L3.91347 15.5368L6.7174 18.3408L3.91347 21.1447L3.8074 21.2508L3.91347 21.3568L4.54347 21.9868L4.64953 22.0929L4.7556 21.9868L7.55953 19.1829L10.3635 21.9868L10.4695 22.0929L10.5756 21.9868L11.2056 21.3568L11.3117 21.2508L11.2056 21.1447L8.40166 18.3408L11.2056 15.5368Z" fill="#191919" stroke="#191919" stroke-width="0.3"/>
<path d="M6.11953 13.2413V13.3912H6.26953H7.01953H7.16953V13.2413V6.27125C7.16953 5.53409 7.77237 4.93125 8.50953 4.93125C9.24669 4.93125 9.84953 5.53409 9.84953 6.27125V7.76125V7.91125H9.99953H18.7895V20.0513C18.7895 20.5884 18.3567 21.0212 17.8195 21.0212H13.2195H13.0695V21.1712V21.9212V22.0712H13.2195H17.8195C18.9329 22.0712 19.8295 21.1636 19.8295 20.0613V7.91125H21.9195H22.0695V7.76125V6.27125C22.0695 4.95884 21.0028 3.88125 19.6795 3.88125H8.50953C7.19712 3.88125 6.11953 4.94797 6.11953 6.27125V13.2413ZM21.0295 6.86125H10.8995V6.26125C10.8995 5.76458 10.7432 5.30448 10.4842 4.92125H19.6895C20.4267 4.92125 21.0295 5.52409 21.0295 6.26125V6.86125Z" fill="#191919" stroke="#191919" stroke-width="0.3"/>
</svg>
