<svg width="25" height="25" viewBox="0 0 25 25" fill="none" xmlns="http://www.w3.org/2000/svg">
<path d="M21.7797 21.2516L16.9397 16.4216C18.1197 15.1216 18.8497 13.4016 18.8497 11.5116C18.8397 7.47164 15.5497 4.18164 11.4997 4.18164C7.44967 4.18164 4.15967 7.47164 4.15967 11.5116C4.15967 15.5516 7.44967 18.8416 11.4997 18.8416C13.3897 18.8416 15.1097 18.1216 16.4197 16.9416L21.2597 21.7716L21.7797 21.2516ZM4.88967 11.5116C4.88967 7.87164 7.85967 4.91164 11.4997 4.91164C15.1397 4.91164 18.1097 7.87164 18.1097 11.5016C18.1097 15.1316 15.1497 18.0916 11.4997 18.0916C7.84967 18.0916 4.88967 15.1416 4.88967 11.5116Z" fill="#191919"/>
<path d="M11.4997 15.1615C11.3497 15.1615 11.2197 15.1115 11.1097 15.0015C10.9997 14.8915 10.9497 14.7615 10.9497 14.6115C10.9497 14.4615 10.9997 14.3215 11.1097 14.2215C11.2197 14.1215 11.3497 14.0615 11.4997 14.0615C11.6497 14.0615 11.7797 14.1115 11.8897 14.2215C11.9997 14.3315 12.0497 14.4615 12.0497 14.6115C12.0497 14.7115 12.0197 14.8015 11.9697 14.8915C11.9197 14.9815 11.8497 15.0415 11.7697 15.0915C11.6897 15.1415 11.5897 15.1715 11.4897 15.1715L11.4997 15.1615ZM11.8897 7.77148L11.8397 13.4115H11.1597L11.1097 7.77148H11.8897Z" fill="#191919"/>
</svg>
