<svg width="25" height="25" viewBox="0 0 25 25" fill="none" xmlns="http://www.w3.org/2000/svg">
<path d="M21.8857 21.3577L21.9919 21.2515L21.8856 21.1455L17.1459 16.4156C18.2935 15.1029 18.9997 13.3897 18.9997 11.5116L18.9997 11.5113C18.9895 7.38866 15.6325 4.03164 11.4997 4.03164C7.36696 4.03164 4.00967 7.38866 4.00967 11.5116C4.00967 15.6346 7.36696 18.9916 11.4997 18.9916C13.3778 18.9916 15.0913 18.2948 16.4135 17.1474L21.1537 21.8778L21.2598 21.9837L21.3657 21.8777L21.8857 21.3577ZM5.03967 11.5116C5.03967 7.95478 7.94221 5.06164 11.4997 5.06164C15.0573 5.06164 17.9597 7.95493 17.9597 11.5016C17.9597 15.0485 15.0671 17.9416 11.4997 17.9416C7.93192 17.9416 5.03967 15.0582 5.03967 11.5116Z" fill="#191919" stroke="#191919" stroke-width="0.3"/>
<path d="M11.2013 15.2478L11.1276 15.3215H11.4897C11.6183 15.3215 11.7458 15.2833 11.8492 15.2187C11.9422 15.1605 12.0344 15.0839 12.1008 14.9643C12.1594 14.8589 12.1997 14.7438 12.1997 14.6115C12.1997 14.4236 12.1352 14.2549 11.9958 14.1154C11.8563 13.9759 11.6875 13.9115 11.4997 13.9115C11.3059 13.9115 11.1412 13.9901 11.0088 14.1105C10.8615 14.2444 10.7997 14.4282 10.7997 14.6115C10.7997 14.7993 10.8642 14.9681 11.0036 15.1075C11.0643 15.1682 11.1304 15.2146 11.2013 15.2478ZM12.0397 7.77281L12.041 7.62148H11.8897H11.1097H10.9584L10.9597 7.77281L11.0097 13.4128L11.011 13.5615H11.1597H11.8397H11.9884L11.9897 13.4128L12.0397 7.77281Z" fill="#191919" stroke="#191919" stroke-width="0.3"/>
</svg>
