<svg width="25" height="25" viewBox="0 0 25 25" fill="none" xmlns="http://www.w3.org/2000/svg">
<path d="M22.0746 19.262C22.0746 17.9176 21.1088 16.7926 19.8246 16.553V8.82203C19.8246 7.70866 18.917 6.81203 17.8146 6.81203H13.4868L15.5807 4.7181L15.6868 4.61203L15.5807 4.50597L15.0507 3.97597L14.9446 3.8699L14.8386 3.97597L12.4086 6.40597C11.92 6.89454 11.92 7.69952 12.4086 8.1881L14.8386 10.6181L14.9446 10.7242L15.0507 10.6181L15.5807 10.0881L15.6868 9.98203L15.5807 9.87597L13.5568 7.85203H17.8246C18.3618 7.85203 18.7946 8.28487 18.7946 8.82203V16.5551C17.5249 16.7989 16.5546 17.9209 16.5546 19.262C16.5546 20.7849 17.7918 22.022 19.3146 22.022C20.8375 22.022 22.0746 20.7849 22.0746 19.262ZM9.38465 7.33203C9.38465 5.80919 8.14749 4.57203 6.62465 4.57203C5.10181 4.57203 3.86465 5.80919 3.86465 7.33203C3.86465 8.67301 4.82546 9.7956 6.10465 10.0391V16.5551C4.83485 16.7989 3.86465 17.9209 3.86465 19.262C3.86465 20.7849 5.10181 22.022 6.62465 22.022C8.14749 22.022 9.38465 20.7849 9.38465 19.262C9.38465 17.9211 8.42383 16.7985 7.14465 16.5549V10.039C8.41444 9.79515 9.38465 8.6732 9.38465 7.33203ZM4.91465 7.33203C4.91465 6.3854 5.68697 5.62203 6.62465 5.62203C7.56181 5.62203 8.33465 6.39487 8.33465 7.33203C8.33465 8.26919 7.56181 9.04203 6.62465 9.04203C5.68749 9.04203 4.91465 8.26919 4.91465 7.33203ZM8.34465 19.262C8.34465 20.2087 7.57233 20.972 6.63465 20.972C5.69749 20.972 4.92465 20.1992 4.92465 19.262C4.92465 18.3249 5.69749 17.552 6.63465 17.552C7.57181 17.552 8.34465 18.3249 8.34465 19.262ZM19.3046 20.972C18.358 20.972 17.5946 20.1997 17.5946 19.262C17.5946 18.3249 18.3675 17.552 19.3046 17.552C20.2418 17.552 21.0146 18.3249 21.0146 19.262C21.0146 20.1992 20.2418 20.972 19.3046 20.972Z" fill="#191919" stroke="#191919" stroke-width="0.3"/>
</svg>
