<svg width="25" height="25" viewBox="0 0 25 25" fill="none" xmlns="http://www.w3.org/2000/svg">
<path d="M9.23465 7.33203C9.23465 5.89203 8.06465 4.72203 6.62465 4.72203C5.18465 4.72203 4.01465 5.89203 4.01465 7.33203C4.01465 8.64203 4.98465 9.73203 6.25465 9.91203V16.682C4.99465 16.862 4.01465 17.952 4.01465 19.262C4.01465 20.702 5.18465 21.872 6.62465 21.872C8.06465 21.872 9.23465 20.702 9.23465 19.262C9.23465 17.952 8.26465 16.862 6.99465 16.682V9.91203C8.25465 9.73203 9.23465 8.64203 9.23465 7.33203ZM4.76465 7.33203C4.76465 6.30203 5.60465 5.47203 6.62465 5.47203C7.64465 5.47203 8.48465 6.31203 8.48465 7.33203C8.48465 8.35203 7.64465 9.19203 6.62465 9.19203C5.60465 9.19203 4.76465 8.35203 4.76465 7.33203ZM8.49465 19.262C8.49465 20.292 7.65465 21.122 6.63465 21.122C5.61465 21.122 4.77465 20.282 4.77465 19.262C4.77465 18.242 5.61465 17.402 6.63465 17.402C7.65465 17.402 8.49465 18.242 8.49465 19.262ZM19.6746 16.682V8.82203C19.6746 7.79203 18.8346 6.96203 17.8146 6.96203H13.1246L15.4746 4.61203L14.9446 4.08203L12.5146 6.51203C12.0846 6.94203 12.0846 7.65203 12.5146 8.08203L14.9446 10.512L15.4746 9.98203L13.1946 7.70203H17.8246C18.4446 7.70203 18.9446 8.20203 18.9446 8.82203V16.682C17.6846 16.862 16.7046 17.952 16.7046 19.262C16.7046 20.702 17.8746 21.872 19.3146 21.872C20.7546 21.872 21.9246 20.702 21.9246 19.262C21.9246 17.952 20.9546 16.862 19.6846 16.682H19.6746ZM19.3046 21.122C18.2746 21.122 17.4446 20.282 17.4446 19.262C17.4446 18.242 18.2846 17.402 19.3046 17.402C20.3246 17.402 21.1646 18.242 21.1646 19.262C21.1646 20.282 20.3246 21.122 19.3046 21.122Z" fill="#191919"/>
</svg>
