<svg width="25" height="25" viewBox="0 0 25 25" fill="none" xmlns="http://www.w3.org/2000/svg">
<path d="M16.4697 4.79148C16.2597 3.78148 15.3697 3.02148 14.2997 3.02148H11.6397C10.5697 3.02148 9.67975 3.78148 9.46975 4.79148H4.98975V20.7115C4.98975 21.9315 5.97975 22.9315 7.20975 22.9315H18.7297C19.9497 22.9315 20.9497 21.9415 20.9497 20.7115V4.79148H16.4697ZM20.0497 20.7115C20.0497 21.4415 19.4497 22.0415 18.7197 22.0415H7.20975C6.47975 22.0415 5.87975 21.4415 5.87975 20.7115V5.68148H10.3097V5.24148C10.3097 4.51148 10.9097 3.91148 11.6397 3.91148H14.2997C15.0297 3.91148 15.6297 4.51148 15.6297 5.24148V5.68148H20.0597V20.7115H20.0497ZM15.1797 14.5715C16.3997 14.5715 17.3997 15.5615 17.3997 16.7915V19.0115H16.5097V16.7915C16.5097 16.0615 15.9097 15.4615 15.1797 15.4615H10.7497C10.0197 15.4615 9.41975 16.0615 9.41975 16.7915V19.0115H8.52975V16.7915C8.52975 15.5715 9.51975 14.5715 10.7497 14.5715H15.1797ZM12.9697 13.6815C14.4397 13.6815 15.6297 12.4915 15.6297 11.0215C15.6297 9.55148 14.4397 8.36148 12.9697 8.36148C11.4997 8.36148 10.3097 9.55148 10.3097 11.0215C10.3097 12.4915 11.4997 13.6815 12.9697 13.6815ZM12.9697 9.25148C13.9497 9.25148 14.7397 10.0415 14.7397 11.0215C14.7397 12.0015 13.9497 12.7915 12.9697 12.7915C11.9897 12.7915 11.1997 12.0015 11.1997 11.0215C11.1997 10.0415 11.9897 9.25148 12.9697 9.25148Z" fill="#191919"/>
</svg>
