<svg width="25" height="25" viewBox="0 0 25 25" fill="none" xmlns="http://www.w3.org/2000/svg">
<path d="M4.98975 4.64148H4.83975V4.79148V20.7115C4.83975 22.0139 5.89646 23.0815 7.20975 23.0815H18.7297C20.0321 23.0815 21.0997 22.0248 21.0997 20.7115V4.79148V4.64148H20.9497H16.5885C16.3214 3.62394 15.4002 2.87148 14.2997 2.87148H11.6397C10.5393 2.87148 9.61806 3.62394 9.35097 4.64148H4.98975ZM19.9097 20.5615H19.8997V20.7115C19.8997 21.3586 19.3669 21.8915 18.7197 21.8915H7.20975C6.56259 21.8915 6.02975 21.3586 6.02975 20.7115V5.83148H10.3097H10.4597V5.68148V5.24148C10.4597 4.59433 10.9926 4.06148 11.6397 4.06148H14.2997C14.9469 4.06148 15.4797 4.59433 15.4797 5.24148V5.68148V5.83148H15.6297H19.9097V20.5615ZM17.3997 19.1615H17.5497V19.0115V16.7915C17.5497 15.4782 16.4821 14.4215 15.1797 14.4215H10.7497C9.43646 14.4215 8.37975 15.4891 8.37975 16.7915V19.0115V19.1615H8.52975H9.41975H9.56975V19.0115V16.7915C9.56975 16.1443 10.1026 15.6115 10.7497 15.6115H15.1797C15.8269 15.6115 16.3597 16.1443 16.3597 16.7915V19.0115V19.1615H16.5097H17.3997ZM12.9697 13.8315C14.5226 13.8315 15.7797 12.5743 15.7797 11.0215C15.7797 9.46864 14.5226 8.21148 12.9697 8.21148C11.4169 8.21148 10.1597 9.46864 10.1597 11.0215C10.1597 12.5743 11.4169 13.8315 12.9697 13.8315ZM12.9697 9.40148C13.8669 9.40148 14.5897 10.1243 14.5897 11.0215C14.5897 11.9186 13.8669 12.6415 12.9697 12.6415C12.0726 12.6415 11.3497 11.9186 11.3497 11.0215C11.3497 10.1243 12.0726 9.40148 12.9697 9.40148Z" fill="#191919" stroke="#191919" stroke-width="0.3"/>
</svg>
