<svg width="25" height="25" viewBox="0 0 25 25" fill="none" xmlns="http://www.w3.org/2000/svg">
<path d="M4.03467 12.2266H21.9047V12.9666H4.03467V12.2266ZM4.77467 5.91664C4.77467 5.30664 5.27467 4.80664 5.89467 4.80664H9.24467V4.06664H5.89467C4.87467 4.05664 4.03467 4.88664 4.03467 5.91664V9.25664H4.77467V5.91664ZM4.77467 20.0366V16.6966H4.03467V20.0366C4.03467 21.0566 4.87467 21.8966 5.89467 21.8966H9.24467V21.1566H5.89467C5.27467 21.1566 4.77467 20.6566 4.77467 20.0466V20.0366ZM21.1547 20.0366C21.1547 20.6466 20.6547 21.1466 20.0347 21.1466H16.6847V21.8866H20.0347C21.0647 21.8866 21.8947 21.0566 21.8947 20.0266V16.6866H21.1547V20.0266V20.0366ZM20.0447 4.05664H16.6947V4.79664H20.0447C20.6647 4.79664 21.1647 5.29664 21.1647 5.90664V9.24664H21.9047V5.91664C21.9047 4.89664 21.0647 4.05664 20.0447 4.05664Z" fill="#191919"/>
</svg>
