<svg width="25" height="25" viewBox="0 0 25 25" fill="none" xmlns="http://www.w3.org/2000/svg">
<path d="M21.7548 21.237L16.8148 16.317C17.9848 15.027 18.7048 13.327 18.7048 11.457C18.7048 7.45703 15.4448 4.20703 11.4348 4.20703C7.4248 4.20703 4.1748 7.45703 4.1748 11.457C4.1748 15.457 7.4348 18.707 11.4448 18.707C13.3148 18.707 15.0248 17.987 16.3148 16.827L21.2548 21.747L21.7648 21.237H21.7548ZM4.9048 11.457C4.9048 7.85703 7.8348 4.93703 11.4448 4.93703C15.0548 4.93703 17.9848 7.86703 17.9848 11.467C17.9848 15.067 15.0548 17.997 11.4448 17.997C7.8348 17.997 4.9048 15.057 4.9048 11.457Z" fill="#191919"/>
</svg>
