<svg width="25" height="25" viewBox="0 0 25 25" fill="none" xmlns="http://www.w3.org/2000/svg">
<path d="M21.8168 21.087L17.0211 16.3108C18.1584 15.0085 18.8548 13.3152 18.8548 11.457C18.8548 7.37379 15.5272 4.05703 11.4348 4.05703C7.3421 4.05703 4.0248 7.37405 4.0248 11.457C4.0248 15.5403 7.35237 18.857 11.4448 18.857C13.3029 18.857 15.0057 18.1607 16.3086 17.0325L21.149 21.8533L21.255 21.959L21.3609 21.8531L21.8709 21.3431L22.1269 21.087H21.8168ZM5.0548 11.457C5.0548 7.94032 7.9172 5.08703 11.4448 5.08703C14.9721 5.08703 17.8348 7.95002 17.8348 11.467C17.8348 14.984 14.9721 17.847 11.4448 17.847C7.9178 17.847 5.0548 14.9743 5.0548 11.457Z" fill="#191919" stroke="#191919" stroke-width="0.3"/>
</svg>
