<svg width="25" height="25" viewBox="0 0 25 25" fill="none" xmlns="http://www.w3.org/2000/svg">
<path d="M21.8157 13.8568H21.8274L21.8689 13.7739C22.1202 13.2712 22.1196 12.692 21.8695 12.1809L21.8689 12.1797C21.5837 11.6092 20.6098 10.2107 19.089 8.95368C17.5665 7.69519 15.4812 6.5668 12.9747 6.5668C10.4682 6.5668 8.38039 7.69776 6.85539 8.9587C5.3322 10.2181 4.35582 11.6192 4.07056 12.1897C3.81945 12.6919 3.81945 13.2816 4.07056 13.7839C4.35585 14.3544 5.32978 15.7505 6.85053 17.005C8.37312 18.261 10.4583 19.3868 12.9647 19.3868C15.4712 19.3868 17.5565 18.2584 19.079 16.9999C20.5306 15.8001 21.4839 14.4713 21.8157 13.8568ZM12.6026 18.1868L12.6031 18.1873C10.5783 18.0833 8.87422 17.1437 7.59662 16.0862C6.24107 14.9642 5.38025 13.7216 5.13956 13.2411C5.05978 13.0726 5.05978 12.881 5.13956 12.7125C5.38027 12.232 6.2386 10.9918 7.5916 9.87237C8.94405 8.75335 10.7763 7.7668 12.9647 7.7668C15.1532 7.7668 16.9854 8.75335 18.3379 9.87237C19.6909 10.9918 20.5492 12.232 20.7899 12.7126C20.8697 12.881 20.8697 13.0726 20.7899 13.241C20.5492 13.7216 19.6909 14.9618 18.3379 16.0812C16.9854 17.2002 15.1532 18.1868 12.9647 18.1868H12.6026ZM12.9747 10.1468C11.4119 10.1468 10.1447 11.414 10.1447 12.9768C10.1447 14.5396 11.4119 15.8068 12.9747 15.8068C14.5376 15.8068 15.8047 14.5396 15.8047 12.9768C15.8047 11.414 14.5376 10.1468 12.9747 10.1468ZM12.9747 14.6168C12.0676 14.6168 11.3347 13.884 11.3347 12.9768C11.3347 12.0696 12.0676 11.3368 12.9747 11.3368C13.8819 11.3368 14.6147 12.0696 14.6147 12.9768C14.6147 13.884 13.8819 14.6168 12.9747 14.6168Z" fill="#191919" stroke="#191919" stroke-width="0.3"/>
</svg>
