<svg width="25" height="25" viewBox="0 0 25 25" fill="none" xmlns="http://www.w3.org/2000/svg">
<path d="M21.7347 13.7068C21.9647 13.2468 21.9647 12.7168 21.7347 12.2468C21.1847 11.1468 17.8947 6.7168 12.9747 6.7168C8.05473 6.7168 4.75473 11.1568 4.20473 12.2568C3.97473 12.7168 3.97473 13.2568 4.20473 13.7168C4.75473 14.8168 8.04473 19.2368 12.9647 19.2368C17.8847 19.2368 21.1747 14.8068 21.7247 13.7068H21.7347ZM12.9747 18.3468C8.50473 18.3468 5.50473 14.3068 5.00473 13.3068C4.90473 13.0968 4.90473 12.8568 5.00473 12.6468C5.50473 11.6468 8.49473 7.6168 12.9647 7.6168C17.4347 7.6168 20.4247 11.6468 20.9247 12.6468C21.0247 12.8568 21.0247 13.0968 20.9247 13.3068C20.4247 14.3068 17.4347 18.3368 12.9647 18.3368L12.9747 18.3468ZM12.9747 10.2968C11.4947 10.2968 10.2947 11.4968 10.2947 12.9768C10.2947 14.4568 11.4947 15.6568 12.9747 15.6568C14.4547 15.6568 15.6547 14.4568 15.6547 12.9768C15.6547 11.4968 14.4547 10.2968 12.9747 10.2968ZM12.9747 14.7668C11.9847 14.7668 11.1847 13.9668 11.1847 12.9768C11.1847 11.9868 11.9847 11.1868 12.9747 11.1868C13.9647 11.1868 14.7647 11.9868 14.7647 12.9768C14.7647 13.9668 13.9647 14.7668 12.9747 14.7668Z" fill="#191919"/>
</svg>
