<svg width="25" height="25" viewBox="0 0 25 25" fill="none" xmlns="http://www.w3.org/2000/svg">
<path d="M9.12953 13.6023H8.97953V13.7523V14.5723V14.7223H9.12953H16.7995H16.9495V14.5723V13.7523V13.6023H16.7995H9.12953ZM8.97953 17.8523V18.0023H9.12953H14.3295H14.4795V17.8523V17.0323V16.8823H14.3295H9.12953H8.97953V17.0323V17.8523ZM21.0695 9.06227V9.00006L21.0255 8.95611L15.0255 2.96611L14.9816 2.92227H14.9195H7.07953C5.85716 2.92227 4.86953 3.90895 4.86953 5.12227V22.8823V23.0323H5.01953H20.9195H21.0695V22.8823V9.06227ZM14.1895 9.64227V9.79227H14.3395H19.9495V21.9123H5.99953V5.12227C5.99953 4.52511 6.48237 4.04227 7.07953 4.04227H14.1895V9.64227ZM15.3095 4.83381L19.1568 8.67227H15.3095V4.83381Z" fill="#191919" stroke="#191919" stroke-width="0.3"/>
</svg>
