<svg width="25" height="25" viewBox="0 0 25 25" fill="none" xmlns="http://www.w3.org/2000/svg">
<path d="M21.2246 10.7901L19.8298 9.43374V5.89711C19.8298 4.78374 18.9221 3.88711 17.8198 3.88711H8.12979C7.01642 3.88711 6.11979 4.79479 6.11979 5.89711V9.43374L4.71521 10.7996L4.7148 10.8C4.18668 11.3175 3.87979 12.0359 3.87979 12.7671V21.9171V22.0671H4.02979H21.9098H22.0598V21.9171V12.7671C22.0598 12.0262 21.7531 11.3078 21.2248 10.79L21.2246 10.7901ZM7.98945 4.93711H8.12979H17.8198C18.3569 4.93711 18.7898 5.36995 18.7898 5.90711V13.255L14.7137 17.331C13.7823 18.2625 12.1673 18.2625 11.2359 17.331L7.15979 13.255V5.89711C7.15979 5.40763 7.5192 5.00477 7.98945 4.93711ZM21.0098 21.0271H4.92979V12.7771C4.92979 12.692 4.93878 12.6081 4.95394 12.5234L10.4937 18.0632C11.1518 18.7213 12.03 19.0871 12.9698 19.0871C13.9096 19.0871 14.7877 18.7213 15.4459 18.0632L20.9889 12.5202C21.0028 12.6043 21.0098 12.6895 21.0098 12.7771V21.0271ZM8.88271 9.41206L8.77736 9.51944L8.88504 9.62448L11.3344 12.0139C11.5828 12.2619 11.9009 12.3871 12.2298 12.3871C12.5588 12.3871 12.8769 12.2618 13.1254 12.0136C13.1255 12.0135 13.1257 12.0133 13.1259 12.0132L17.065 8.13399L17.1717 8.02893L17.0669 7.92206L16.5469 7.39206L16.4417 7.28492L16.3347 7.3901L12.3847 11.2701L12.3846 11.27L12.3801 11.2748C12.3014 11.3591 12.1594 11.3646 12.0659 11.271L12.0659 11.271L12.0645 11.2697L9.61453 8.87974L9.50746 8.77529L9.40271 8.88206L8.88271 9.41206ZM20.073 11.1375L20.4871 11.5476L19.8298 12.205V10.8967L20.073 11.1375ZM6.11979 10.8967V12.205L5.46244 11.5476L6.11979 10.8967Z" fill="#191919" stroke="#191919" stroke-width="0.3"/>
</svg>
