<svg width="25" height="25" viewBox="0 0 25 25" fill="none" xmlns="http://www.w3.org/2000/svg">
<path d="M5.67032 8.79148H5.64032C4.97032 9.05148 4.52032 9.66148 4.50032 10.3715C4.48032 11.0315 4.83032 11.6115 5.48032 11.8915L12.2003 13.7815L14.1503 20.5015C14.4203 21.1015 14.9903 21.4515 15.6503 21.4315C16.0903 21.4115 16.4903 21.2315 16.8003 20.9315C16.9803 20.7515 17.1303 20.5215 17.2203 20.2615L21.4403 4.52148L5.67032 8.79148ZM5.71032 11.2315C5.37032 11.0815 5.18032 10.7615 5.19032 10.3915C5.19032 10.1715 5.29032 9.90148 5.49032 9.70148C5.59032 9.60148 5.71032 9.52148 5.86032 9.46148L19.7903 5.69148L12.3803 13.1015L5.72032 11.2315H5.71032ZM16.5603 20.0415C16.4103 20.4415 16.0503 20.7115 15.6203 20.7315C15.2403 20.7415 14.9303 20.5515 14.7903 20.2615L12.8603 13.5915L20.2803 6.17148L16.5503 20.0415H16.5603Z" fill="#191919"/>
</svg>
