<svg width="25" height="25" viewBox="0 0 25 25" fill="none" xmlns="http://www.w3.org/2000/svg">
<path d="M18.7332 14.7895L18.5998 14.7725V14.7625V14.4943L18.6577 14.5299L18.6746 14.4649L18.6751 14.4628L18.6752 14.4628C18.8113 13.967 18.8698 13.4704 18.8698 12.9825C18.8698 12.4966 18.8018 11.9992 18.6745 11.4999C18.6745 11.4998 18.6745 11.4997 18.6745 11.4996L18.6046 11.2301L18.5768 11.1228L18.6713 11.0647L20.6431 9.85345L19.2109 7.53857L17.2383 8.75031L17.1452 8.80753L17.0622 8.73639L16.8522 8.55639L16.8509 8.55528C16.2169 7.9993 15.4956 7.59965 14.7056 7.35583L14.4457 7.27587L14.3398 7.24329V7.1325V4.9725H11.6098V7.1125V7.22329L11.5039 7.25587L11.244 7.33583L18.7332 14.7895ZM18.7332 14.7895L18.6713 14.8903L20.6431 16.1015L19.2109 18.4164L17.2383 17.2047L17.1452 17.1475L17.0622 17.2186L16.8522 17.3986L16.8519 17.3989C16.2166 17.9462 15.4946 18.3556 14.7056 18.5992L14.4457 18.6791L14.3398 18.7117V18.8225V20.9625H11.6098V18.8225V18.7117L11.5039 18.6791L11.244 18.5992C10.454 18.3553 9.73271 17.9557 9.0987 17.3997L9.09742 17.3986L8.88742 17.2186L8.80443 17.1475L8.71129 17.2047L6.7387 18.4164L5.30654 16.1015L7.27832 14.8903L7.37285 14.8322L7.345 14.7249L7.27516 14.4555C7.27513 14.4553 7.2751 14.4552 7.27507 14.4551C7.14783 13.9558 7.0798 13.4584 7.0798 12.9725C7.0798 12.4846 7.13835 11.988 7.27445 11.4922L7.27447 11.4922L7.275 11.4901L7.345 11.2201L7.37285 11.1128L7.27832 11.0547L5.30631 9.84332L6.73892 7.51871L8.71129 8.73031L8.80443 8.78753L8.88742 8.71639L9.09742 8.53639L9.09771 8.53614C9.73299 7.98882 10.4549 7.57941 11.2439 7.33587L18.7332 14.7895ZM19.7907 14.3417C19.8861 13.8799 19.9298 13.4268 19.9298 12.9825C19.9298 12.5363 19.8857 12.0721 19.7892 11.6143L21.9685 10.2702L22.0961 10.1915L22.0176 10.0639L19.6376 6.19392L19.5589 6.06599L19.4311 6.14483L17.2505 7.48968C16.678 7.04364 16.055 6.69895 15.3898 6.44798V4.0625V3.9125H15.2398H10.6998H10.5498V4.0625V6.43752C9.87604 6.68874 9.26071 7.03374 8.6891 7.47966L6.50854 6.13483L6.38071 6.05599L6.30203 6.18392L3.92203 10.0539L3.84356 10.1815L3.97106 10.2602L6.15077 11.6045C6.05407 12.0693 6.0098 12.5253 6.0098 12.9725C6.0098 13.4187 6.05387 13.8829 6.15043 14.3407L3.97106 15.6848L3.84356 15.7635L3.92203 15.8911L6.30203 19.7611L6.38071 19.889L6.50854 19.8102L8.68913 18.4653C9.26166 18.9114 9.88462 19.2561 10.5498 19.507V21.8925V22.0425H10.6998H15.2398H15.3898V21.8925V19.5075C16.0636 19.2563 16.6789 18.9113 17.2505 18.4653L19.4311 19.8102L19.5589 19.889L19.6376 19.7611L22.0176 15.8911L22.0961 15.7635L21.9685 15.6848L19.7907 14.3417Z" fill="#191919" stroke="#191919" stroke-width="0.3"/>
<path d="M9.05996 12.9827C9.05996 15.1352 10.8069 16.8927 12.97 16.8927C15.1228 16.8927 16.88 15.1355 16.88 12.9827C16.88 10.8298 15.1228 9.07266 12.97 9.07266C10.8171 9.07266 9.05996 10.8298 9.05996 12.9827ZM10.04 12.9727C10.04 11.3555 11.3528 10.0427 12.97 10.0427C14.5871 10.0427 15.9 11.3555 15.9 12.9727C15.9 14.5898 14.5871 15.9027 12.97 15.9027C11.3528 15.9027 10.04 14.5898 10.04 12.9727Z" fill="#191919" stroke="#191919" stroke-width="0.3"/>
</svg>
