<svg width="25" height="25" viewBox="0 0 25 25" fill="none" xmlns="http://www.w3.org/2000/svg">
<path d="M19.6198 14.4125L21.8898 15.8125L19.5098 19.6825L17.2398 18.2825C16.6298 18.7725 15.9698 19.1425 15.2398 19.4025V21.8925H10.6998V19.4025C9.9798 19.1425 9.3098 18.7725 8.6998 18.2825L6.4298 19.6825L4.0498 15.8125L6.3198 14.4125C6.2098 13.9325 6.1598 13.4425 6.1598 12.9725C6.1598 12.5025 6.2098 12.0225 6.3198 11.5325L4.0498 10.1325L6.4298 6.2625L8.6998 7.6625C9.3098 7.1725 9.9698 6.8025 10.6998 6.5425V4.0625H15.2398V6.5525C15.9598 6.8125 16.6298 7.1825 17.2398 7.6725L19.5098 6.2725L21.8898 10.1425L19.6198 11.5425C19.7298 12.0225 19.7798 12.5125 19.7798 12.9825C19.7798 13.4525 19.7298 13.9325 19.6198 14.4225V14.4125ZM18.7498 14.7725L18.8198 14.5025C18.9598 13.9925 19.0198 13.4825 19.0198 12.9825C19.0198 12.4825 18.9498 11.9725 18.8198 11.4625L18.7498 11.1925L20.8498 9.9025L19.2598 7.3325L17.1598 8.6225L16.9498 8.4425C16.2998 7.8725 15.5598 7.4625 14.7498 7.2125L14.4898 7.1325V4.8225H11.4598V7.1125L11.1998 7.1925C10.3898 7.4425 9.6498 7.8625 8.9998 8.4225L8.7898 8.6025L6.6898 7.3125L5.0998 9.8925L7.1998 11.1825L7.1298 11.4525C6.9898 11.9625 6.9298 12.4725 6.9298 12.9725C6.9298 13.4725 6.9998 13.9825 7.1298 14.4925L7.1998 14.7625L5.0998 16.0525L6.6898 18.6225L8.7898 17.3325L8.9998 17.5125C9.6498 18.0825 10.3898 18.4925 11.1998 18.7425L11.4598 18.8225V21.1125H14.4898V18.8225L14.7498 18.7425C15.5598 18.4925 16.2998 18.0725 16.9498 17.5125L17.1598 17.3325L19.2598 18.6225L20.8498 16.0525L18.7498 14.7625V14.7725Z" fill="#191919"/>
<path d="M12.97 16.7427C10.89 16.7427 9.20996 15.0527 9.20996 12.9827C9.20996 10.9127 10.9 9.22266 12.97 9.22266C15.04 9.22266 16.73 10.9127 16.73 12.9827C16.73 15.0527 15.04 16.7427 12.97 16.7427ZM12.97 9.89266C11.27 9.89266 9.88996 11.2727 9.88996 12.9727C9.88996 14.6727 11.27 16.0527 12.97 16.0527C14.67 16.0527 16.05 14.6727 16.05 12.9727C16.05 11.2727 14.67 9.89266 12.97 9.89266Z" fill="#191919"/>
</svg>
