<svg width="25" height="25" viewBox="0 0 25 25" fill="none" xmlns="http://www.w3.org/2000/svg">
<path d="M6.99488 13.7256H9.23488V14.4756H6.99488V13.7256ZM6.99488 17.4556H9.23488V16.7056H6.99488V17.4556ZM10.7249 17.4556H12.9649V16.7056H10.7249V17.4556ZM6.99488 8.49563H9.23488V7.74563H6.99488V8.49563ZM6.99488 11.4856H9.23488V10.7356H6.99488V11.4856ZM10.7249 14.4656H12.9649V13.7156H10.7249V14.4656ZM10.7249 8.49563H12.9649V7.74563H10.7249V8.49563ZM10.7249 11.4856H12.9649V10.7356H10.7249V11.4856ZM17.4449 17.4556H18.9349V16.7056H17.4449V17.4556ZM17.4449 11.4856H18.9349V10.7356H17.4449V11.4856ZM17.4449 14.4656H18.9349V13.7156H17.4449V14.4656ZM21.9249 9.61562V21.9356H4.00488V5.88563C4.00488 4.85563 4.84488 4.01562 5.87488 4.01562H14.0849C15.1149 4.01562 15.9549 4.85563 15.9549 5.88563V7.75563H20.0649C21.0949 7.75563 21.9349 8.59562 21.9349 9.62563L21.9249 9.61562ZM15.2049 5.88563C15.2049 5.26562 14.7049 4.76562 14.0849 4.76562H5.87488C5.25488 4.76562 4.75488 5.26562 4.75488 5.88563V21.1956H15.2049V5.88563ZM21.1749 9.61562C21.1749 8.99563 20.6749 8.49563 20.0549 8.49563H15.9449V21.1856H21.1749V9.61562Z" fill="#191919"/>
</svg>
