<svg width="25" height="25" viewBox="0 0 25 25" fill="none" xmlns="http://www.w3.org/2000/svg">
<path d="M15.9449 11.4908C17.1749 11.4908 18.1749 10.4908 18.1749 9.26078C18.1749 8.03078 17.1749 7.03078 15.9449 7.03078C14.7149 7.03078 13.7149 8.03078 13.7149 9.26078C13.7149 9.52078 13.7649 9.77078 13.8449 10.0008L10.9949 11.5808C10.5849 11.0708 9.95492 10.7408 9.25492 10.7408C8.02492 10.7408 7.02492 11.7408 7.02492 12.9708C7.02492 14.2008 8.02492 15.2008 9.25492 15.2008C9.95492 15.2008 10.5849 14.8708 10.9949 14.3608L13.8449 15.9408C13.7649 16.1708 13.7149 16.4208 13.7149 16.6808C13.7149 17.9108 14.7149 18.9108 15.9449 18.9108C17.1749 18.9108 18.1749 17.9108 18.1749 16.6808C18.1749 15.4508 17.1749 14.4508 15.9449 14.4508C15.2449 14.4508 14.6149 14.7808 14.2049 15.2908L11.3549 13.7108C11.4349 13.4808 11.4849 13.2308 11.4849 12.9708C11.4849 12.7108 11.4349 12.4608 11.3549 12.2308L14.2049 10.6508C14.6149 11.1608 15.2449 11.4908 15.9449 11.4908ZM15.9449 15.2008C16.7649 15.2008 17.4349 15.8708 17.4349 16.6908C17.4349 17.5108 16.7649 18.1808 15.9449 18.1808C15.1249 18.1808 14.4549 17.5108 14.4549 16.6908C14.4549 15.6808 15.3949 15.2008 15.9449 15.2008ZM9.25492 14.4608C8.43492 14.4608 7.76492 13.7908 7.76492 12.9708C7.76492 12.1508 8.43492 11.4808 9.25492 11.4808C10.0749 11.4808 10.7449 12.1508 10.7449 12.9708C10.7449 13.7908 10.0749 14.4608 9.25492 14.4608ZM15.9449 7.77078C16.7649 7.77078 17.4349 8.44078 17.4349 9.26078C17.4349 10.0808 16.7649 10.7508 15.9449 10.7508C15.1249 10.7508 14.4549 10.0108 14.4549 9.26078C14.4549 8.44078 15.1249 7.77078 15.9449 7.77078ZM18.5449 4.05078H7.39492C5.54492 4.05078 4.04492 5.55078 4.04492 7.40078V18.5508C4.04492 20.3908 5.54492 21.9008 7.39492 21.9008H18.5449C20.3849 21.9008 21.8949 20.4008 21.8949 18.5508V7.40078C21.8949 5.56078 20.3949 4.05078 18.5449 4.05078ZM21.1449 18.5508C21.1449 19.9908 19.9749 21.1508 18.5449 21.1508H7.39492C5.95492 21.1508 4.79492 19.9808 4.79492 18.5508V7.40078C4.78492 5.96078 5.95492 4.79078 7.39492 4.79078H18.5449C19.9849 4.79078 21.1449 5.96078 21.1449 7.39078V18.5408V18.5508Z" fill="#191919"/>
</svg>
