<svg width="25" height="25" viewBox="0 0 25 25" fill="none" xmlns="http://www.w3.org/2000/svg">
<path d="M4.94493 7.40078L4.94492 7.39974C4.9355 6.0436 6.03756 4.94078 7.39492 4.94078H18.5449C19.9017 4.94078 20.9949 6.04325 20.9949 7.39078V18.5408V18.5508C20.9949 19.9076 19.8925 21.0008 18.5449 21.0008H7.39492C6.03814 21.0008 4.94492 19.8983 4.94492 18.5508L4.94493 7.40078ZM15.9449 11.6408C17.2578 11.6408 18.3249 10.5736 18.3249 9.26078C18.3249 7.94794 17.2578 6.88078 15.9449 6.88078C14.6321 6.88078 13.5649 7.94794 13.5649 9.26078C13.5649 9.49452 13.6025 9.71948 13.6644 9.92933L11.0297 11.39C10.5931 10.9019 9.95753 10.5908 9.25492 10.5908C7.94208 10.5908 6.87492 11.6579 6.87492 12.9708C6.87492 14.2836 7.94208 15.3508 9.25492 15.3508C9.95753 15.3508 10.5931 15.0396 11.0297 14.5516L13.6644 16.0122C13.6025 16.2221 13.5649 16.447 13.5649 16.6808C13.5649 17.9936 14.6321 19.0608 15.9449 19.0608C17.2578 19.0608 18.3249 17.9936 18.3249 16.6808C18.3249 15.3679 17.2578 14.3008 15.9449 14.3008C15.2423 14.3008 14.6067 14.6119 14.1701 15.1L11.5354 13.6393C11.5973 13.4295 11.6349 13.2045 11.6349 12.9708C11.6349 12.737 11.5973 12.5121 11.5354 12.3022L14.1701 10.8416C14.6067 11.3296 15.2423 11.6408 15.9449 11.6408ZM15.9449 15.3508C16.6821 15.3508 17.2849 15.9536 17.2849 16.6908C17.2849 17.4279 16.6821 18.0308 15.9449 18.0308C15.2078 18.0308 14.6049 17.4279 14.6049 16.6908C14.6049 16.238 14.8137 15.906 15.0881 15.6836C15.3671 15.4574 15.7067 15.3508 15.9449 15.3508ZM9.25492 14.3108C8.51776 14.3108 7.91492 13.7079 7.91492 12.9708C7.91492 12.2336 8.51776 11.6308 9.25492 11.6308C9.99208 11.6308 10.5949 12.2336 10.5949 12.9708C10.5949 13.7079 9.99208 14.3108 9.25492 14.3108ZM15.9449 7.92078C16.6821 7.92078 17.2849 8.52362 17.2849 9.26078C17.2849 9.99794 16.6821 10.6008 15.9449 10.6008C15.2122 10.6008 14.6049 9.93248 14.6049 9.26078C14.6049 8.52362 15.2078 7.92078 15.9449 7.92078ZM18.5449 3.90078H7.39492C5.46208 3.90078 3.89492 5.46794 3.89492 7.40078V18.5508C3.89492 20.4733 5.46179 22.0508 7.39492 22.0508H18.5449C20.4675 22.0508 22.0449 20.4839 22.0449 18.5508V7.40078C22.0449 5.47823 20.4781 3.90078 18.5449 3.90078Z" fill="#191919" stroke="#191919" stroke-width="0.3"/>
</svg>
