<svg width="25" height="25" viewBox="0 0 25 25" fill="none" xmlns="http://www.w3.org/2000/svg">
<path d="M10.9298 14.4215V14.2715H10.7798H7.39977H7.38977V14.2715C5.44179 14.2769 3.85977 15.8617 3.85977 17.8015V21.9315V22.0815H4.00977H4.75977H4.90977V21.9315V17.8015C4.90977 16.4343 6.02261 15.3215 7.38977 15.3215H10.7798H10.9298V15.1715V14.4215ZM21.4749 13.5915L20.2696 14.2854C19.6514 13.4949 18.7413 12.9393 17.6998 12.7981V11.4115V11.2615H17.5498H16.7998H16.6498V11.4115V12.7981C15.6083 12.9393 14.6981 13.4949 14.0799 14.2854L12.8746 13.5915L12.7455 13.5171L12.6703 13.6458L12.2903 14.2958L12.2141 14.4261L12.3449 14.5015L13.5496 15.1951C13.3644 15.6501 13.2598 16.1477 13.2598 16.6715C13.2598 17.1953 13.3644 17.6928 13.5496 18.1479L12.3449 18.8415L12.2141 18.9168L12.2903 19.0472L12.6703 19.6972L12.7455 19.8258L12.8746 19.7515L14.0799 19.0575C14.6981 19.8481 15.6083 20.4036 16.6498 20.5448V21.9315V22.0815H16.7998H17.5498H17.6998V21.9315V20.5448C18.7413 20.4036 19.6514 19.8481 20.2696 19.0575L21.4749 19.7515L21.6041 19.8258L21.6793 19.6972L22.0593 19.0472L22.1355 18.9168L22.0046 18.8415L20.8 18.1479C20.9851 17.6928 21.0898 17.1953 21.0898 16.6715C21.0898 16.1477 20.9851 15.6501 20.8 15.1951L22.0046 14.5015L22.1355 14.4261L22.0593 14.2958L21.6793 13.6458L21.6041 13.5171L21.4749 13.5915ZM10.7598 13.2315C13.3422 13.2315 15.4498 11.1348 15.4498 8.55148C15.4498 5.96821 13.3422 3.87148 10.7598 3.87148C8.17735 3.87148 6.06977 5.96821 6.06977 8.55148C6.06977 11.1345 8.16714 13.2315 10.7598 13.2315ZM10.7598 4.92148C12.7669 4.92148 14.3898 6.54433 14.3898 8.55148C14.3898 10.5584 12.7572 12.1815 10.7598 12.1815C8.76235 12.1815 7.12977 10.5584 7.12977 8.55148C7.12977 6.54433 8.75261 4.92148 10.7598 4.92148ZM17.1698 19.5315C15.5926 19.5315 14.3098 18.2486 14.3098 16.6715C14.3098 15.0943 15.5926 13.8115 17.1698 13.8115C18.7469 13.8115 20.0298 15.0943 20.0298 16.6715C20.0298 18.2486 18.7469 19.5315 17.1698 19.5315Z" fill="#191919" stroke="#191919" stroke-width="0.3"/>
</svg>
