<svg width="25" height="25" viewBox="0 0 25 25" fill="none" xmlns="http://www.w3.org/2000/svg">
<path d="M21.0195 12.5973V12.8951V21.0173H4.91953V9.51992L10.4834 15.0933L10.4835 15.0934C11.1627 15.7727 12.0614 16.1173 12.9595 16.1173C13.8577 16.1173 14.7563 15.7727 15.4356 15.0934L15.4356 15.0934L15.4375 15.0914L16.7675 13.7114L16.9547 13.5172L16.691 13.4607C16.4184 13.4023 16.1559 13.3245 15.9034 13.2273L15.8105 13.1916L15.7415 13.2633L14.6925 14.3523C13.731 15.3127 12.1767 15.3124 11.2156 14.3513L5.13467 8.27035C5.30659 8.05685 5.57591 7.91734 5.87953 7.91734H12.2195H12.3695V7.76734V7.01734V6.86734H12.2195H5.87953C4.77721 6.86734 3.86953 7.76398 3.86953 8.87734V21.9273V22.0773H4.01953H21.9195H22.0695V21.9273V11.9273V11.554L21.8112 11.8236C21.5855 12.0591 21.3418 12.283 21.0802 12.4768L21.1621 12.5873H21.0195V12.5973ZM15.7995 8.49734V8.64734H15.9495H17.2895V9.98734V10.1373H17.4395H18.1895H18.3395V9.98734V8.64734H19.6795H19.8295V8.49734V7.74734V7.59734H19.6795H18.3395V6.25734V6.10734H18.1895H17.4395H17.2895V6.25734V7.59734H15.9495H15.7995V7.74734V8.49734ZM17.8095 12.3773C18.9494 12.3773 20.0175 11.9315 20.8156 11.1334C21.6137 10.3354 22.0595 9.26723 22.0595 8.12734C22.0595 6.98746 21.6137 5.91934 20.8156 5.12128C20.0175 4.32322 18.9494 3.87734 17.8095 3.87734C16.6696 3.87734 15.6015 4.32322 14.8035 5.12128C14.0054 5.91934 13.5595 6.98746 13.5595 8.12734C13.5595 9.26723 14.0054 10.3354 14.8035 11.1334C15.6015 11.9315 16.6696 12.3773 17.8095 12.3773ZM15.5456 5.86341C16.1473 5.26169 16.9591 4.92734 17.8095 4.92734C18.66 4.92734 19.4717 5.26169 20.0735 5.86341C20.6752 6.46513 21.0095 7.27691 21.0095 8.12734C21.0095 8.97778 20.6752 9.78956 20.0735 10.3913C19.4717 10.993 18.66 11.3273 17.8095 11.3273C16.9591 11.3273 16.1473 10.993 15.5456 10.3913C14.9439 9.78956 14.6095 8.97778 14.6095 8.12734C14.6095 7.27691 14.9439 6.46513 15.5456 5.86341Z" fill="#191919" stroke="#191919" stroke-width="0.3"/>
</svg>
