<svg width="25" height="25" viewBox="0 0 25 25" fill="none" xmlns="http://www.w3.org/2000/svg">
<path d="M17.8095 12.2273C18.9095 12.2273 19.9395 11.7973 20.7095 11.0273C21.4795 10.2573 21.9095 9.22734 21.9095 8.12734C21.9095 7.02734 21.4795 5.99734 20.7095 5.22734C19.9395 4.45734 18.9095 4.02734 17.8095 4.02734C16.7095 4.02734 15.6795 4.45734 14.9095 5.22734C14.1395 5.99734 13.7095 7.02734 13.7095 8.12734C13.7095 9.22734 14.1395 10.2573 14.9095 11.0273C15.6795 11.7973 16.7095 12.2273 17.8095 12.2273ZM15.4395 5.75734C16.0695 5.12734 16.9195 4.77734 17.8095 4.77734C18.6995 4.77734 19.5495 5.12734 20.1795 5.75734C20.8095 6.38734 21.1595 7.23734 21.1595 8.12734C21.1595 9.01734 20.8095 9.86734 20.1795 10.4973C19.5495 11.1273 18.6995 11.4773 17.8095 11.4773C16.9195 11.4773 16.0695 11.1273 15.4395 10.4973C14.8095 9.86734 14.4595 9.01734 14.4595 8.12734C14.4595 7.23734 14.8095 6.38734 15.4395 5.75734ZM21.1695 12.5973C21.4395 12.3973 21.6895 12.1673 21.9195 11.9273V21.9273H4.01953V8.87734C4.01953 7.84734 4.85953 7.01734 5.87953 7.01734H12.2195V7.76734H5.87953C5.47953 7.76734 5.12953 7.97734 4.93953 8.28734L11.1095 14.4573C12.1295 15.4773 13.7795 15.4773 14.7995 14.4573L15.8495 13.3673C16.1095 13.4673 16.3795 13.5473 16.6595 13.6073L15.3295 14.9873C14.6795 15.6373 13.8195 15.9673 12.9595 15.9673C12.0995 15.9673 11.2395 15.6373 10.5895 14.9873L4.76953 9.15734V21.1673H21.1695V12.5873V12.5973ZM17.4395 8.49734H15.9495V7.74734H17.4395V6.25734H18.1895V7.74734H19.6795V8.49734H18.1895V9.98734H17.4395V8.49734Z" fill="#191919"/>
</svg>
