<svg width="25" height="25" viewBox="0 0 25 25" fill="none" xmlns="http://www.w3.org/2000/svg">
<path d="M18.9395 15.2073C19.3495 15.2073 19.6895 15.5373 19.6895 15.9573C19.6895 16.3773 19.3595 16.7073 18.9395 16.7073C18.5195 16.7073 18.1895 16.3773 18.1895 15.9573C18.1895 15.5373 18.5195 15.2073 18.9395 15.2073ZM20.4295 9.98734V10.7373H21.1795V21.1773H6.25953C5.43953 21.1773 4.76953 20.5073 4.76953 19.6873V10.3573C5.07953 10.5973 5.46953 10.7373 5.88953 10.7373H16.6995V9.98734H5.87953C5.25953 9.98734 4.75953 9.48734 4.75953 8.86734C4.75953 8.24734 5.25953 7.74734 5.87953 7.74734H13.7095V6.99734H5.87953C4.97953 7.00734 4.22953 7.64734 4.05953 8.49734H4.01953V19.6873C4.01953 20.9173 5.01953 21.9273 6.25953 21.9273H21.9195V9.98734H20.4295ZM18.1895 4.97734V10.7373H18.9395V5.00734L21.1895 7.25734L21.7195 6.72734L19.3395 4.35734C18.8995 3.91734 18.1895 3.91734 17.7595 4.35734L15.3895 6.72734L15.9195 7.25734L18.1995 4.97734H18.1895Z" fill="#191919"/>
</svg>
