<svg width="25" height="25" viewBox="0 0 25 25" fill="none" xmlns="http://www.w3.org/2000/svg">
<path d="M9.87041 4.69995L9.86998 4.70052L8.23499 6.87078H7.37979C5.44694 6.87078 3.87979 8.43794 3.87979 10.3708V18.5508C3.87979 20.4733 5.44665 22.0508 7.37979 22.0508H18.5598C20.4926 22.0508 22.0598 20.4836 22.0598 18.5508V10.3708C22.0598 8.44823 20.4929 6.87078 18.5598 6.87078H17.7046L16.0701 4.70119C16.07 4.70106 16.0699 4.70093 16.0698 4.7008C15.6905 4.19168 15.0853 3.90078 14.4598 3.90078H11.4798C10.8526 3.90078 10.2486 4.20294 9.87041 4.69995ZM9.54046 6.87078L10.6546 5.39078H10.6648L10.7098 5.33078C10.8923 5.08738 11.1785 4.94078 11.4798 4.94078H14.4598C14.7611 4.94078 15.0472 5.08738 15.2298 5.33078L15.2299 5.331L16.3891 6.87078H9.54046ZM12.9698 9.85078C10.4172 9.85078 8.34978 11.9177 8.34978 14.4608C8.34978 17.0038 10.4172 19.0708 12.9698 19.0708C15.5224 19.0708 17.5898 17.0038 17.5898 14.4608C17.5898 11.9177 15.5224 9.85078 12.9698 9.85078ZM12.9698 18.0308C11.0021 18.0308 9.38979 16.4274 9.38979 14.4608C9.38979 12.4939 10.9924 10.8908 12.9698 10.8908C14.9472 10.8908 16.5498 12.4939 16.5498 14.4608C16.5498 16.4277 14.9472 18.0308 12.9698 18.0308ZM21.0198 18.5508C21.0198 19.9072 19.9177 21.0008 18.5598 21.0008H7.37979C6.02225 21.0008 4.91979 19.8976 4.91979 18.5508V10.3708C4.91979 9.01437 6.02188 7.92078 7.37979 7.92078H18.5598C19.9173 7.92078 21.0198 9.024 21.0198 10.3708V18.5508Z" fill="#191919" stroke="#191919" stroke-width="0.3"/>
</svg>
