<svg width="25" height="25" viewBox="0 0 25 25" fill="none" xmlns="http://www.w3.org/2000/svg">
<path d="M7.87982 12.2769H9.98982V12.9769H8.57982V14.3869H7.87982V12.2769ZM8.57982 16.4969H7.87982V18.6069H9.98982V17.9069H8.57982V16.4969ZM17.3598 17.8969H15.9498V18.5969H18.0598V16.4869H17.3598V17.8969ZM15.9598 12.9769H17.3698V14.3869H18.0698V12.2769H15.9598V12.9769ZM7.87982 8.66687H11.3898V7.96688H7.87982V8.66687ZM20.8698 8.16687V22.9069H5.06982V4.80687C5.06982 3.83687 5.85982 3.04688 6.82982 3.04688H15.7498L20.8698 8.16687ZM15.9598 7.96688H19.6798L15.9598 4.24688V7.96688ZM20.1698 22.2069V8.66687H15.2498V3.74687H6.82982C6.24982 3.74687 5.77982 4.21688 5.77982 4.79688V22.2069H20.1798H20.1698Z" fill="#191919"/>
</svg>
