<svg width="25" height="25" viewBox="0 0 25 25" fill="none" xmlns="http://www.w3.org/2000/svg">
<path d="M7.87982 12.1269H7.72982V12.2769V14.3869V14.5369H7.87982H8.57982H8.72982V14.3869V13.1269H9.98982H10.1398V12.9769V12.2769V12.1269H9.98982H7.87982ZM8.72982 16.4969V16.3469H8.57982H7.87982H7.72982V16.4969V18.6069V18.7569H7.87982H9.98982H10.1398V18.6069V17.9069V17.7569H9.98982H8.72982V16.4969ZM17.2098 16.4869V17.7469H15.9498H15.7998V17.8969V18.5969V18.7469H15.9498H18.0598H18.2098V18.5969V16.4869V16.3369H18.0598H17.3598H17.2098V16.4869ZM15.8098 12.9769V13.1269H15.9598H17.2198V14.3869V14.5369H17.3698H18.0698H18.2198V14.3869V12.2769V12.1269H18.0698H15.9598H15.8098V12.2769V12.9769ZM7.72982 8.66687V8.81687H7.87982H11.3898H11.5398V8.66687V7.96688V7.81687H11.3898H7.87982H7.72982V7.96688V8.66687ZM21.0198 8.16687V8.10474L20.9759 8.06081L15.8559 2.94081L15.812 2.89687H15.7498H6.82982C5.77698 2.89687 4.91982 3.75403 4.91982 4.80687V22.9069V23.0569H5.06982H20.8698H21.0198V22.9069V8.16687ZM20.0198 22.0569H5.92982V4.79688C5.92982 4.29972 6.33267 3.89688 6.82982 3.89688H15.0998V8.66687V8.81687H15.2498H20.0198V22.0569ZM16.1098 4.60901L19.3177 7.81687H16.1098V4.60901Z" fill="#191919" stroke="#191919" stroke-width="0.3"/>
</svg>
