<svg width="25" height="25" viewBox="0 0 25 25" fill="none" xmlns="http://www.w3.org/2000/svg">
<path d="M3.99951 15.3659H5.34863C6.13494 17.8671 8.08776 19.8202 10.5795 20.6066V21.9459V22.0959H10.7295H15.2095H15.3595V21.9459V20.607C17.8515 19.8297 19.8137 17.8673 20.5908 15.3659H21.9395H22.0895V15.2159V10.7359V10.5859H21.9395H21.9295H20.5804C19.7941 8.08466 17.8413 6.13157 15.3495 5.34511V4.00586V3.85586H15.1995H10.7195H10.5695V4.00586V5.3447C8.07749 6.12197 6.11534 8.0844 5.33823 10.5859H3.99951H3.84951V10.7359V15.2159V15.3659H3.99951ZM15.3595 19.495V17.4559V17.3059H15.2095H10.7295H10.5795V17.4559V19.4941C8.66424 18.7883 7.15705 17.2811 6.45124 15.3659H8.47951H8.62951V15.2159V10.7359V10.5859H8.47951H6.45033C7.14795 8.67 8.66365 7.15429 10.5795 6.45668V8.49586V8.64586H10.7295H15.2095H15.3595V8.49586V6.45759C17.2748 7.1634 18.782 8.67059 19.4878 10.5859H17.4595H17.3095V10.7359V15.2159V15.3659H17.4595H19.4887C18.7911 17.2817 17.2754 18.7974 15.3595 19.495ZM11.6195 4.90586H14.3095V7.59586H11.6195V4.90586ZM4.89951 11.6259H7.58951V14.3159H4.89951V11.6259ZM14.3095 21.0459H11.6195V18.3559H14.3095V21.0459ZM21.0395 14.3159H18.3495V11.6259H21.0395V14.3159Z" fill="#191919" stroke="#191919" stroke-width="0.3"/>
</svg>
