<svg width="25" height="25" viewBox="0 0 25 25" fill="none" xmlns="http://www.w3.org/2000/svg">
<path d="M21.9295 10.7359H20.4695C19.7095 8.19586 17.7295 6.21586 15.1995 5.45586V4.00586H10.7195V5.45586C8.18951 6.20586 6.19951 8.19586 5.44951 10.7359H3.99951V15.2159H5.45951C6.21951 17.7559 8.19951 19.7359 10.7295 20.4959V21.9459H15.2095V20.4959C17.7395 19.7459 19.7295 17.7559 20.4795 15.2159H21.9395V10.7359H21.9295ZM11.4695 4.75586H14.4595V7.74586H11.4695V4.75586ZM4.74951 11.4759H7.73951V14.4659H4.74951V11.4759ZM14.4595 21.1959H11.4695V18.2059H14.4595V21.1959ZM15.2095 19.7059V17.4559H10.7295V19.7059C8.60951 18.9959 6.94951 17.3359 6.23951 15.2159H8.47951V10.7359H6.23951C6.93951 8.61586 8.60951 6.94586 10.7295 6.24586V8.49586H15.2095V6.24586C17.3295 6.95586 18.9895 8.61586 19.6995 10.7359H17.4595V15.2159H19.6995C18.9995 17.3359 17.3295 19.0059 15.2095 19.7059ZM21.1895 14.4659H18.1995V11.4759H21.1895V14.4659Z" fill="#191919"/>
</svg>
