<svg width="25" height="25" viewBox="0 0 25 25" fill="none" xmlns="http://www.w3.org/2000/svg">
<path d="M17.0549 12.2256C14.3749 12.2256 12.1949 14.4056 12.1949 17.0756C12.1949 19.7456 14.3749 21.9256 17.0549 21.9256C19.7349 21.9256 21.9149 19.7456 21.9149 17.0756C21.9149 14.4056 19.7349 12.2256 17.0549 12.2256ZM17.0549 21.3256C14.6049 21.3656 12.6949 19.3556 12.7949 17.0656C12.9049 14.4356 14.7949 12.8056 17.0549 12.8056C19.3149 12.8056 21.3549 14.7956 21.3149 17.0656C21.2749 19.3356 19.1749 21.2856 17.0549 21.3256ZM19.4449 15.8056L19.7749 16.1456L17.1949 18.6856C17.0349 18.8456 16.8149 18.9356 16.5849 18.9356C16.3549 18.9356 16.1349 18.8456 15.9649 18.6756L14.5849 17.3356L14.9149 16.7956L16.4949 18.3256C16.5649 18.3956 16.6149 18.3956 16.6749 18.3256L19.3549 15.6756L19.4549 15.7856L19.4449 15.8056ZM13.1249 12.0356H7.0149V11.4756H13.9949C13.6049 11.6856 13.4649 11.7456 13.1249 12.0356ZM13.0149 21.9256H4.0249V5.88563C4.0249 4.85563 4.8649 4.01562 5.8949 4.01562H15.6149C16.6449 4.01562 17.4849 4.85563 17.4849 5.88563V10.7456C17.3649 10.7456 17.2349 10.7356 17.1149 10.7356C16.9949 10.7356 17.0549 10.7356 16.9349 10.7456V5.88563C16.9349 5.26562 16.2449 4.57563 15.6249 4.57563H5.8949C5.2749 4.57563 4.5849 5.26562 4.5849 5.88563L4.7749 21.3756H12.3749C12.6049 21.6456 12.7449 21.7056 13.0149 21.9356V21.9256ZM14.4949 8.30562H7.0149V7.74563H14.4949V8.30562ZM7.0149 15.2056H10.7549V15.7656H7.0149V15.2056Z" fill="#191919"/>
</svg>
