<svg width="25" height="25" viewBox="0 0 25 25" fill="none" xmlns="http://www.w3.org/2000/svg">
<path d="M12.9448 17.0722L12.9448 17.0719C13.0514 14.5224 14.8751 12.9556 17.0549 12.9556C19.2347 12.9556 21.2034 14.8805 21.1649 17.063C21.1457 18.1521 20.6318 19.171 19.8601 19.9246C19.088 20.6784 18.0683 21.1564 17.0525 21.1756C14.6872 21.2143 12.8486 19.2742 12.9448 17.0722ZM19.8801 16.2525L19.9863 16.148L19.8825 16.0412L19.6267 15.7775L19.635 15.7608L19.5659 15.6847L19.4659 15.5747L19.3607 15.459L19.2494 15.569L16.5847 18.2038L15.0192 16.6879L14.8846 16.5575L14.7869 16.7174L14.4569 17.2574L14.3944 17.3597L14.4804 17.4432L15.8597 18.7825C16.0574 18.9798 16.3151 19.0856 16.5849 19.0856C16.8536 19.0856 17.1118 18.9806 17.3005 18.7922C17.3006 18.792 17.3008 18.7919 17.301 18.7917L19.8801 16.2525ZM13.1249 12.1856H13.1802L13.2222 12.1498C13.5092 11.905 13.6414 11.8345 13.9357 11.6775C13.9759 11.656 14.019 11.633 14.066 11.6077L13.9949 11.3256H7.0149H6.8649V11.4756V12.0356V12.1856H7.0149H13.1249ZM13.1649 21.9256V21.7756H13.0576C12.9802 21.7116 12.9163 21.6629 12.859 21.6193C12.7286 21.5199 12.6324 21.4466 12.4891 21.2784L12.4442 21.2256H12.3749H4.92307L4.7349 5.88563C4.7349 5.88533 4.7349 5.88504 4.7349 5.88475C4.73523 5.62729 4.88155 5.33611 5.11347 5.10419C5.34565 4.87201 5.63722 4.72563 5.8949 4.72563H15.6249C15.8826 4.72563 16.1742 4.87201 16.4063 5.10419C16.6385 5.33638 16.7849 5.62794 16.7849 5.88563V10.7456V10.9086L16.9474 10.8951C16.9785 10.8925 16.9984 10.8905 17.0128 10.889C17.0197 10.8882 17.0242 10.8877 17.0275 10.8874C17.0321 10.8869 17.0343 10.8866 17.0374 10.8864C17.0444 10.8858 17.051 10.8856 17.1149 10.8856C17.1714 10.8856 17.2308 10.888 17.2939 10.8905L17.2954 10.8906C17.3569 10.893 17.4219 10.8956 17.4849 10.8956H17.6349V10.7456V5.88563C17.6349 4.77278 16.7277 3.86562 15.6149 3.86562H5.8949C4.78206 3.86562 3.8749 4.77278 3.8749 5.88563V21.9256V22.0756H4.0249H12.9479L13.1649 22.2604V21.9356V21.9256ZM14.4949 8.45563H14.6449V8.30562V7.74563V7.59562H14.4949H7.0149H6.8649V7.74563V8.30562V8.45563H7.0149H14.4949ZM7.0149 15.0556H6.8649V15.2056V15.7656V15.9156H7.0149H10.7549H10.9049V15.7656V15.2056V15.0556H10.7549H7.0149ZM17.0549 12.0756C14.2923 12.0756 12.0449 14.3226 12.0449 17.0756C12.0449 19.8287 14.2923 22.0756 17.0549 22.0756C19.8175 22.0756 22.0649 19.8287 22.0649 17.0756C22.0649 14.3226 19.8175 12.0756 17.0549 12.0756Z" fill="#191919" stroke="#191919" stroke-width="0.3"/>
</svg>
