<svg width="25" height="25" viewBox="0 0 25 25" fill="none" xmlns="http://www.w3.org/2000/svg">
<path d="M12.9698 3.01562C7.47977 3.01562 3.00977 7.48563 3.00977 12.9756C3.00977 18.4656 7.47977 22.9356 12.9698 22.9356C18.4598 22.9356 22.9298 18.4656 22.9298 12.9756C22.9298 7.48563 18.4598 3.01562 12.9698 3.01562ZM13.3798 22.0856V20.0256C13.3798 19.7956 13.1898 19.6156 12.9698 19.6156C12.7498 19.6156 12.5598 19.8056 12.5598 20.0256V22.0856C7.85977 21.8756 4.06977 18.0856 3.85977 13.3856H5.91977C6.14977 13.3856 6.32977 13.1956 6.32977 12.9756C6.32977 12.7556 6.13977 12.5656 5.91977 12.5656H3.84977C4.05977 7.85563 7.84977 4.06562 12.5498 3.85562V5.91563C12.5498 6.14563 12.7398 6.32562 12.9598 6.32562C13.1798 6.32562 13.3698 6.13563 13.3698 5.91563V3.85562C18.0698 4.06562 21.8598 7.85563 22.0698 12.5556H20.0098C19.7798 12.5556 19.5998 12.7456 19.5998 12.9656C19.5998 13.1856 19.7898 13.3756 20.0098 13.3756H22.0698C21.8598 18.0756 18.0698 21.8656 13.3698 22.0756L13.3798 22.0856ZM16.2898 12.9756C16.2898 13.2056 16.0998 13.3856 15.8798 13.3856H13.3898V15.8756C13.3898 16.1056 13.1998 16.2856 12.9798 16.2856C12.7598 16.2856 12.5698 16.0956 12.5698 15.8756V13.3856H10.0798C9.84977 13.3856 9.66977 13.1956 9.66977 12.9756C9.66977 12.7556 9.85977 12.5656 10.0798 12.5656H12.5698V10.0756C12.5698 9.84562 12.7598 9.66563 12.9798 9.66563C13.1998 9.66563 13.3898 9.85563 13.3898 10.0756V12.5656H15.8798C16.1098 12.5656 16.2898 12.7556 16.2898 12.9756Z" fill="#191919"/>
</svg>
