<svg width="25" height="25" viewBox="0 0 25 25" fill="none" xmlns="http://www.w3.org/2000/svg">
<path d="M21.9298 12.9756H21.1798C21.1898 8.44562 17.4998 4.76562 12.9698 4.76562C10.1998 4.76562 7.61977 6.19563 6.09977 8.49563H9.22977V9.24563H5.87977C5.25977 9.24563 4.75977 8.74563 4.75977 8.12563V4.76562H5.50977V8.05562C7.14977 5.55562 9.95977 4.01562 12.9698 4.01562C17.9098 4.01562 21.9298 8.03562 21.9298 12.9756ZM20.0698 16.7156H16.7098V17.4656H19.8398C18.3298 19.7756 15.7498 21.1956 12.9698 21.1956C8.43977 21.1956 4.75977 17.5056 4.75977 12.9756H4.00977C4.00977 17.9156 8.02977 21.9356 12.9698 21.9356C15.9798 21.9356 18.7898 20.3956 20.4398 17.8956V21.1856H21.1898V17.8256C21.1898 17.2056 20.6898 16.7056 20.0698 16.7056V16.7156Z" fill="#191919"/>
</svg>
