<svg width="25" height="25" viewBox="0 0 25 25" fill="none" xmlns="http://www.w3.org/2000/svg">
<path d="M12.4098 20.0256V21.9274C7.91217 21.6479 4.29746 18.0332 4.01798 13.5356H5.91977C6.23498 13.5356 6.47977 13.2761 6.47977 12.9756C6.47977 12.6728 6.22261 12.4156 5.91977 12.4156H4.00796C4.28729 7.90823 7.90215 4.29332 12.3998 4.01384V5.91563C12.3998 6.23083 12.6593 6.47563 12.9598 6.47563C13.2626 6.47563 13.5198 6.21847 13.5198 5.91563V4.01384C18.0174 4.29332 21.6321 7.90803 21.9115 12.4056H20.0098C19.6946 12.4056 19.4498 12.6652 19.4498 12.9656C19.4498 13.2685 19.7069 13.5256 20.0098 13.5256H21.9115C21.6323 18.0199 18.0227 21.6326 13.5298 21.9168V20.0256C13.5298 19.7104 13.2702 19.4656 12.9698 19.4656C12.6669 19.4656 12.4098 19.7228 12.4098 20.0256ZM12.9698 2.86562C7.39692 2.86562 2.85977 7.40278 2.85977 12.9756C2.85977 18.5485 7.39692 23.0856 12.9698 23.0856C18.5426 23.0856 23.0798 18.5485 23.0798 12.9756C23.0798 7.40278 18.5426 2.86562 12.9698 2.86562ZM15.8798 13.5356C16.1802 13.5356 16.4398 13.2908 16.4398 12.9756C16.4398 12.6752 16.195 12.4156 15.8798 12.4156H13.5398V10.0756C13.5398 9.77278 13.2826 9.51562 12.9798 9.51562C12.6793 9.51562 12.4198 9.76042 12.4198 10.0756V12.4156H10.0798C9.77692 12.4156 9.51977 12.6728 9.51977 12.9756C9.51977 13.2761 9.76456 13.5356 10.0798 13.5356H12.4198V15.8756C12.4198 16.1785 12.6769 16.4356 12.9798 16.4356C13.2802 16.4356 13.5398 16.1908 13.5398 15.8756V13.5356H15.8798Z" fill="#191919" stroke="#191919" stroke-width="0.3"/>
</svg>
