<svg width="25" height="25" viewBox="0 0 25 25" fill="none" xmlns="http://www.w3.org/2000/svg">
<path d="M21.9298 13.1256H22.0798V12.9756C22.0798 7.95278 17.9926 3.86562 12.9698 3.86562C10.0711 3.86562 7.3556 5.26975 5.65977 7.57694V4.76562V4.61563H5.50977H4.75977H4.60977V4.76562V8.12563C4.60977 8.82847 5.17692 9.39563 5.87977 9.39563H9.22977H9.37977V9.24563V8.49563V8.34562H9.22977H6.38451C7.89449 6.22316 10.3462 4.91562 12.9698 4.91562C17.4172 4.91562 21.0396 8.5287 21.0298 12.9753L21.0294 13.1256H21.1798H21.9298ZM16.7098 17.6156H19.5567C18.0562 19.7465 15.6041 21.0456 12.9698 21.0456C8.52285 21.0456 4.90977 17.423 4.90977 12.9756V12.8256H4.75977H4.00977H3.85977V12.9756C3.85977 17.9985 7.94692 22.0856 12.9698 22.0856C15.8695 22.0856 18.5856 20.6805 20.2898 18.3723V21.1856V21.3356H20.4398H21.1898H21.3398V21.1856V17.8256C21.3398 17.1228 20.7726 16.5556 20.0698 16.5556H19.9198V16.5656H16.7098H16.5598V16.7156V17.4656V17.6156H16.7098Z" fill="#191919" stroke="#191919" stroke-width="0.3"/>
</svg>
