<svg width="25" height="25" viewBox="0 0 25 25" fill="none" xmlns="http://www.w3.org/2000/svg">
<path d="M19.0895 5.36948L21.0835 7.36341L21.1895 7.46948L21.2956 7.36341L21.8256 6.83341L21.9319 6.72712L21.8254 6.62105L19.4456 4.25128C19.4455 4.2512 19.4454 4.25113 19.4454 4.25105M19.0895 5.36948L19.4454 4.25105M19.0895 5.36948V10.7373V10.8873H18.9395H18.1895H18.0395V10.7373V5.34948L16.0256 7.36341L15.9195 7.46948L15.8135 7.36341L15.2835 6.83341L15.1774 6.72734L15.2835 6.62128L17.6523 4.2525C17.6525 4.25229 17.6527 4.25208 17.6529 4.25187C18.1424 3.75168 18.9477 3.75359 19.4454 4.25105M19.0895 5.36948L19.4454 4.25105M20.4295 9.83734H20.2795V9.98734V10.7373V10.8873H20.4295H21.0295V21.0273H6.25953C5.52237 21.0273 4.91953 20.4245 4.91953 19.6873V10.636C5.2072 10.797 5.53896 10.8873 5.88953 10.8873H16.6995H16.8495V10.7373V9.98734V9.83734H16.6995H5.87953C5.34237 9.83734 4.90953 9.4045 4.90953 8.86734C4.90953 8.33019 5.34237 7.89734 5.87953 7.89734H13.7095H13.8595V7.74734V6.99734V6.84734H13.7095H5.87953V6.84733L5.87786 6.84735C4.94943 6.85767 4.16824 7.48917 3.94047 8.34734H3.86953V8.49734V19.6873C3.86953 20.9998 4.93625 22.0773 6.25953 22.0773H21.9195H22.0695V21.9273V9.98734V9.83734H21.9195H20.4295ZM19.8395 15.9573C19.8395 15.4532 19.4311 15.0573 18.9395 15.0573C18.4367 15.0573 18.0395 15.4545 18.0395 15.9573C18.0395 16.4602 18.4367 16.8573 18.9395 16.8573C19.4424 16.8573 19.8395 16.4602 19.8395 15.9573Z" fill="#191919" stroke="#191919" stroke-width="0.3"/>
</svg>
