<svg width="25" height="25" viewBox="0 0 25 25" fill="none" xmlns="http://www.w3.org/2000/svg">
<path d="M5.19 21.9069L4.5 21.3469L18.63 4.04688L19.31 4.60688L5.19 21.9069Z" fill="#191919"/>
<path d="M12.9698 15.9573C11.3298 15.9573 9.98979 14.6173 9.98979 12.9773C9.98979 11.3373 11.3298 9.99734 12.9698 9.99734C14.6098 9.99734 15.9498 11.3373 15.9498 12.9773C15.9498 14.6173 14.6098 15.9573 12.9698 15.9573ZM12.9698 10.7373C11.7398 10.7373 10.7298 11.7373 10.7298 12.9773C10.7298 14.2173 11.7298 15.2173 12.9698 15.2173C14.2098 15.2173 15.2098 14.2173 15.2098 12.9773C15.2098 11.7373 14.2098 10.7373 12.9698 10.7373ZM7.75979 9.24734C7.34979 9.24734 7.00979 9.57734 7.00979 9.99734C7.00979 10.4173 7.33979 10.7473 7.75979 10.7473C8.17979 10.7473 8.50979 10.4173 8.50979 9.99734C8.50979 9.57734 8.17979 9.24734 7.75979 9.24734ZM17.4498 11.4873C17.4498 11.8973 17.7798 12.2373 18.1998 12.2373C18.6198 12.2373 18.9498 11.9073 18.9498 11.4873C18.9498 11.0673 18.6198 10.7373 18.1998 10.7373C17.7798 10.7373 17.4498 11.0673 17.4498 11.4873ZM7.75979 13.7273C7.34979 13.7273 7.00979 14.0573 7.00979 14.4773C7.00979 14.8973 7.33979 15.2273 7.75979 15.2273C8.17979 15.2273 8.50979 14.8973 8.50979 14.4773C8.50979 14.0573 8.17979 13.7273 7.75979 13.7273ZM17.4498 15.9573C17.4498 16.3673 17.7798 16.7073 18.1998 16.7073C18.6198 16.7073 18.9498 16.3773 18.9498 15.9573C18.9498 15.5373 18.6198 15.2073 18.1998 15.2073C17.7798 15.2073 17.4498 15.5373 17.4498 15.9573ZM16.8698 19.6873C15.6498 19.6873 14.2398 19.2973 12.8798 18.9273C11.5598 18.5673 10.1998 18.1973 9.07979 18.1973C6.84979 18.1973 4.57979 19.1873 4.54979 19.1973L4.02979 19.4273V9.10734C4.02979 8.37734 4.42979 7.72734 5.06979 7.39734C6.05979 6.88734 7.55979 6.27734 9.07979 6.27734C10.3098 6.27734 11.5198 6.66734 12.6998 7.03734C13.8698 7.40734 14.9798 7.76734 16.0898 7.76734C17.2998 7.76734 18.2398 7.48734 18.9998 7.25734C19.1798 7.20734 19.3498 7.15734 19.4998 7.11734C20.0798 6.96734 20.6798 7.08734 21.1498 7.44734C21.6298 7.81734 21.9098 8.37734 21.9098 8.98734V18.4973L21.6898 18.5973C21.5898 18.6373 19.2498 19.6873 16.8598 19.6873H16.8698ZM9.07979 17.4473C10.2998 17.4473 11.7098 17.8373 13.0698 18.2073C14.3898 18.5673 15.7498 18.9373 16.8698 18.9373C18.6898 18.9373 20.5498 18.2573 21.1698 18.0073V8.97734C21.1698 8.60734 20.9998 8.25734 20.6998 8.02734C20.4098 7.80734 20.0398 7.72734 19.6898 7.82734C19.5398 7.86734 19.3798 7.91734 19.2098 7.96734C18.4498 8.19734 17.3998 8.50734 16.0798 8.50734C14.8498 8.50734 13.6398 8.11734 12.4598 7.74734C11.2898 7.37734 10.1798 7.01734 9.06979 7.01734C7.69979 7.01734 6.31979 7.57734 5.39979 8.05734C5.00979 8.25734 4.76979 8.66734 4.76979 9.10734V18.3073C5.60979 17.9973 7.32979 17.4573 9.06979 17.4573L9.07979 17.4473Z" fill="#191919"/>
</svg>
