<svg width="25" height="25" viewBox="0 0 25 25" fill="none" xmlns="http://www.w3.org/2000/svg">
<path d="M5.09547 22.0233L5.21162 22.1176L5.30621 22.0017L19.4262 4.70172L19.5206 4.58602L19.4054 4.49109L18.7254 3.93109L18.6091 3.83534L18.5138 3.95199L4.38383 21.252L4.28864 21.3685L4.40547 21.4633L5.09547 22.0233Z" fill="#191919" stroke="#191919" stroke-width="0.3"/>
<path d="M12.8404 19.0721L12.8403 19.0721C11.5139 18.7103 10.1754 18.3473 9.07979 18.3473C7.01329 18.3473 4.91302 19.2101 4.62894 19.3268C4.62151 19.3299 4.61533 19.3324 4.61042 19.3344L4.61046 19.3345L4.09046 19.5645L3.87979 19.6577V19.4273V9.10734C3.87979 8.32108 4.31124 7.6197 5.00104 7.26402L5.00109 7.264C5.99854 6.75016 7.52411 6.12734 9.07979 6.12734C10.3012 6.12734 11.4997 6.50348 12.6439 6.86259C12.6775 6.87315 12.7111 6.88369 12.7447 6.89421L12.745 6.89432C12.7698 6.90217 12.7946 6.91 12.8193 6.91782C13.9669 7.28091 15.0304 7.61734 16.0898 7.61734C17.276 7.61734 18.1977 7.34336 18.9563 7.11377L18.9596 7.11278L18.9596 7.11282C19.029 7.09354 19.0981 7.07391 19.1656 7.05475C19.2697 7.0252 19.3699 6.99675 19.4611 6.97241L19.4622 6.97212C20.0863 6.81073 20.7339 6.93982 21.241 7.32826L21.2414 7.32854C21.7577 7.72656 22.0598 8.33021 22.0598 8.98734V18.4973V18.5939L21.9719 18.6339L21.7519 18.7339L21.7456 18.7368L21.7455 18.7366C21.741 18.7384 21.7315 18.7425 21.7171 18.7486C21.4274 18.8724 19.1755 19.8346 16.8698 19.8373L12.8404 19.0721ZM12.8404 19.0721C12.8693 19.08 12.8983 19.0878 12.9273 19.0957C14.2514 19.4561 15.6444 19.8353 16.8598 19.8373L12.8404 19.0721ZM16.8652 19.5373C19.1024 19.5358 21.2988 18.6007 21.6023 18.4715C21.615 18.4661 21.6244 18.4621 21.6303 18.4596L21.7598 18.4008V8.98734C21.7598 8.42457 21.5019 7.9083 21.0584 7.56632C20.6257 7.23495 20.0736 7.12404 19.5379 7.26243C19.4483 7.28632 19.3531 7.31336 19.2517 7.34217C19.1844 7.36128 19.1145 7.38116 19.0416 7.40141C18.2805 7.63174 17.3227 7.91734 16.0898 7.91734C14.9832 7.91734 13.8806 7.56838 12.7502 7.21062C12.7183 7.20054 12.6865 7.19045 12.6546 7.18036L12.6998 7.03734C12.7283 7.04635 12.7567 7.05536 12.7852 7.06435C13.9238 7.42466 15.0068 7.76734 16.0898 7.76734L16.8652 19.5373ZM16.8652 19.5373C15.6892 19.5364 14.3271 19.1657 12.983 18.8L12.9193 18.7826L16.8652 19.5373ZM9.07979 17.2973H9.01765L9.00743 17.3076C7.39305 17.3192 5.80957 17.7806 4.91979 18.0938V9.10734C4.91979 8.72099 5.13059 8.36397 5.46823 8.19082L5.46823 8.19082L5.46917 8.19033C6.3815 7.71433 7.73576 7.16734 9.06979 7.16734C10.1292 7.16734 11.1926 7.50378 12.3403 7.86687C12.365 7.87469 12.3898 7.88252 12.4146 7.89036L12.4149 7.89047C12.4485 7.90099 12.4821 7.91154 12.5157 7.9221C13.6599 8.28121 14.8584 8.65734 16.0798 8.65734C17.4231 8.65734 18.4909 8.34162 19.2527 8.11108C19.3051 8.09566 19.3559 8.08045 19.4053 8.06566C19.5191 8.03159 19.6256 7.99969 19.7284 7.97228L19.7284 7.9723L19.731 7.97157C20.0324 7.88547 20.3538 7.9533 20.6089 8.14665C20.8715 8.34815 21.0198 8.65394 21.0198 8.97734V17.9056C20.3264 18.1777 18.5763 18.7873 16.8698 18.7873C15.7742 18.7873 14.4356 18.4244 13.1093 18.0626L13.1092 18.0626C13.0802 18.0547 13.0513 18.0468 13.0223 18.039C11.6945 17.6776 10.2975 17.2973 9.07979 17.2973ZM9.83979 12.9773C9.83979 14.7002 11.2469 16.1073 12.9698 16.1073C14.6926 16.1073 16.0998 14.7002 16.0998 12.9773C16.0998 11.2545 14.6926 9.84734 12.9698 9.84734C11.2469 9.84734 9.83979 11.2545 9.83979 12.9773ZM10.8798 12.9773C10.8798 11.8206 11.8222 10.8873 12.9698 10.8873C14.1269 10.8873 15.0598 11.8202 15.0598 12.9773C15.0598 14.1345 14.1269 15.0673 12.9698 15.0673C11.8126 15.0673 10.8798 14.1345 10.8798 12.9773ZM7.75979 9.09734C7.26825 9.09734 6.85979 9.4932 6.85979 9.99734C6.85979 10.5002 7.25694 10.8973 7.75979 10.8973C8.26263 10.8973 8.65979 10.5002 8.65979 9.99734C8.65979 9.4945 8.26263 9.09734 7.75979 9.09734ZM17.2998 11.4873C17.2998 11.9789 17.6956 12.3873 18.1998 12.3873C18.7026 12.3873 19.0998 11.9902 19.0998 11.4873C19.0998 10.9845 18.7026 10.5873 18.1998 10.5873C17.6969 10.5873 17.2998 10.9845 17.2998 11.4873ZM7.75979 13.5773C7.26825 13.5773 6.85979 13.9732 6.85979 14.4773C6.85979 14.9802 7.25694 15.3773 7.75979 15.3773C8.26263 15.3773 8.65979 14.9802 8.65979 14.4773C8.65979 13.9745 8.26263 13.5773 7.75979 13.5773ZM17.2998 15.9573C17.2998 16.4489 17.6956 16.8573 18.1998 16.8573C18.7026 16.8573 19.0998 16.4602 19.0998 15.9573C19.0998 15.4545 18.7026 15.0573 18.1998 15.0573C17.6969 15.0573 17.2998 15.4545 17.2998 15.9573Z" fill="#191919" stroke="#191919" stroke-width="0.3"/>
</svg>
