<svg width="25" height="25" viewBox="0 0 25 25" fill="none" xmlns="http://www.w3.org/2000/svg">
<path d="M21.9146 7.01125V15.2113C21.9146 14.3813 21.6346 13.6213 21.1646 13.0013V7.76125H5.87465C5.45465 7.76125 5.06465 7.61125 4.75465 7.38125V17.0813C4.75465 17.7013 5.25465 18.2013 5.87465 18.2013H13.5446C13.3846 18.4312 13.2546 18.6812 13.1646 18.9513H5.87465C4.84465 18.9513 4.01465 18.1112 4.01465 17.0913V5.89125C4.01465 4.87125 4.85465 4.03125 5.87465 4.03125H21.5346V4.78125H5.87465C5.25465 4.78125 4.75465 5.28125 4.75465 5.90125C4.75465 6.52125 5.25465 7.02125 5.87465 7.02125H21.9046L21.9146 7.01125ZM20.0446 18.2013H16.3146C15.2846 18.2013 14.4546 19.0413 14.4546 20.0613V21.9212H15.2046V20.0613C15.2046 19.4413 15.7046 18.9412 16.3246 18.9412H20.0546C20.6747 18.9412 21.1746 19.4413 21.1746 20.0613V21.9212H21.9246V20.0613C21.9246 19.0313 21.0846 18.2013 20.0646 18.2013H20.0446ZM15.9446 15.2212C15.9446 13.9912 16.9446 12.9812 18.1846 12.9812C19.4246 12.9812 20.4246 13.9812 20.4246 15.2212C20.4246 16.4612 19.4246 17.4613 18.1846 17.4613C16.9446 17.4613 15.9446 16.4612 15.9446 15.2212ZM16.6946 15.2212C16.6946 16.0412 17.3646 16.7113 18.1846 16.7113C19.0046 16.7113 19.6746 16.0412 19.6746 15.2212C19.6746 14.4012 19.0046 13.7312 18.1846 13.7312C17.3646 13.7312 16.6946 14.4012 16.6946 15.2212Z" fill="#191919"/>
</svg>
