<svg width="25" height="25" viewBox="0 0 25 25" fill="none" xmlns="http://www.w3.org/2000/svg">
<path d="M22.0646 7.01125V6.64912L21.8425 6.87125H5.87465C5.33749 6.87125 4.90465 6.43841 4.90465 5.90125C4.90465 5.36409 5.33749 4.93125 5.87465 4.93125H21.5346H21.6846V4.78125V4.03125V3.88125H21.5346H5.87465C4.77181 3.88125 3.86465 4.78841 3.86465 5.89125V17.0913C3.86465 18.1936 4.76128 19.1012 5.87465 19.1012H13.1646H13.2728L13.307 18.9987C13.392 18.7436 13.5152 18.5063 13.6678 18.2869L13.8317 18.0513H13.5446H5.87465C5.33749 18.0513 4.90465 17.6184 4.90465 17.0813V7.65578C5.19064 7.81398 5.52213 7.91125 5.87465 7.91125H21.0146V13.0013V13.0517L21.0451 13.0919C21.4966 13.6874 21.7646 14.4159 21.7646 15.2113H21.9146H22.0646V7.01125ZM14.3046 21.9212V22.0712H14.4546H15.2046H15.3546V21.9212V20.0613C15.3546 19.5241 15.7875 19.0912 16.3246 19.0912H20.0546C20.5918 19.0912 21.0246 19.5241 21.0246 20.0613V21.9212V22.0712H21.1746H21.9246H22.0746V21.9212V20.0613C22.0746 18.9479 21.167 18.0513 20.0646 18.0513H20.0446H16.3146C15.2013 18.0513 14.3046 18.9589 14.3046 20.0613V21.9212ZM18.1846 12.8313C16.8614 12.8313 15.7946 13.9088 15.7946 15.2212C15.7946 16.5441 16.8618 17.6112 18.1846 17.6112C19.5075 17.6112 20.5746 16.5441 20.5746 15.2212C20.5746 13.8984 19.5075 12.8313 18.1846 12.8313ZM18.1846 16.5613C17.4475 16.5613 16.8446 15.9584 16.8446 15.2212C16.8446 14.4841 17.4475 13.8812 18.1846 13.8812C18.9218 13.8812 19.5246 14.4841 19.5246 15.2212C19.5246 15.9584 18.9218 16.5613 18.1846 16.5613Z" fill="#191919" stroke="#191919" stroke-width="0.3"/>
</svg>
