<svg width="25" height="25" viewBox="0 0 25 25" fill="none" xmlns="http://www.w3.org/2000/svg">
<path d="M17.5249 8.83711C17.2949 8.83711 17.1149 8.64711 17.1149 8.42711C17.1149 8.20711 17.3049 8.01711 17.5249 8.01711H20.5849C18.9049 5.44711 16.0449 3.86711 12.9649 3.86711C7.9449 3.86711 3.8549 7.95711 3.8549 12.9771C3.8549 17.9971 7.9449 22.0871 12.9649 22.0871C14.2049 22.0871 14.8649 21.9071 15.3649 21.7671C15.5949 21.7071 15.8149 21.8371 15.8749 22.0571C15.9349 22.2771 15.8049 22.5071 15.5849 22.5671C15.0349 22.7171 14.2049 22.9171 12.9649 22.9171C7.4849 22.9171 3.0249 18.4571 3.0249 12.9771C3.0249 7.49711 7.4849 3.03711 12.9649 3.03711C16.3149 3.03711 19.4149 4.74711 21.2549 7.52711V4.27711C21.2549 4.04711 21.4449 3.86711 21.6649 3.86711C21.8849 3.86711 22.0749 4.05711 22.0749 4.27711V7.58711C22.0749 8.27711 21.5149 8.82711 20.8349 8.82711H17.5249V8.83711ZM22.4949 12.5671C22.2649 12.5671 22.0849 12.7571 22.0849 12.9771C22.0849 13.5071 22.0349 14.0371 21.9449 14.5571C21.9049 14.7871 22.0549 14.9971 22.2849 15.0371C22.3049 15.0371 22.3349 15.0371 22.3549 15.0371C22.5549 15.0371 22.7249 14.8971 22.7649 14.6971C22.8649 14.1371 22.9149 13.5571 22.9149 12.9771C22.9149 12.7471 22.7249 12.5671 22.5049 12.5671H22.4949ZM21.7849 16.6171C21.5749 16.5171 21.3349 16.6171 21.2349 16.8171C21.0149 17.2971 20.7449 17.7571 20.4449 18.1871C20.3149 18.3771 20.3549 18.6371 20.5449 18.7671C20.6149 18.8171 20.6949 18.8371 20.7849 18.8371C20.9149 18.8371 21.0449 18.7771 21.1249 18.6571C21.4549 18.1871 21.7449 17.6771 21.9849 17.1571C22.0849 16.9471 21.9849 16.7071 21.7849 16.6071V16.6171ZM18.8449 19.9471C18.4449 20.2871 18.0049 20.5971 17.5549 20.8571C17.3549 20.9771 17.2949 21.2271 17.4049 21.4271C17.4849 21.5571 17.6249 21.6371 17.7649 21.6371C17.8349 21.6371 17.9049 21.6171 17.9749 21.5771C18.4749 21.2871 18.9449 20.9571 19.3849 20.5771C19.5549 20.4271 19.5849 20.1671 19.4349 19.9971C19.2849 19.8271 19.0249 19.8071 18.8549 19.9471H18.8449ZM16.8949 14.6871L13.3849 12.7671V7.59711C13.3849 7.36711 13.1949 7.18711 12.9749 7.18711C12.7549 7.18711 12.5649 7.37711 12.5649 7.59711V13.0171C12.5649 13.1671 12.6449 13.3071 12.7849 13.3771L16.5149 15.4171C16.5749 15.4471 16.6449 15.4671 16.7149 15.4671C16.8649 15.4671 17.0049 15.3871 17.0749 15.2471C17.1849 15.0471 17.1149 14.7971 16.9149 14.6871H16.8949Z" fill="#191919"/>
</svg>
