<svg width="25" height="25" viewBox="0 0 25 25" fill="none" xmlns="http://www.w3.org/2000/svg">
<path d="M17.4049 21.4271C17.2949 21.2271 17.3549 20.9771 17.5549 20.8571C18.0049 20.5971 18.4449 20.2871 18.8449 19.9471L17.4049 21.4271ZM17.4049 21.4271C17.4849 21.5571 17.6249 21.6371 17.7649 21.6371C17.8349 21.6371 17.9049 21.6171 17.9749 21.5771L17.4049 21.4271ZM17.5249 8.98711H17.6749V8.97711H20.8349C21.597 8.97711 22.2249 8.36074 22.2249 7.58711V4.27711C22.2249 3.97427 21.9677 3.71711 21.6649 3.71711C21.3644 3.71711 21.1049 3.9619 21.1049 4.27711V7.0491C19.2129 4.46209 16.2046 2.88711 12.9649 2.88711C7.40206 2.88711 2.8749 7.41427 2.8749 12.9771C2.8749 18.54 7.40206 23.0671 12.9649 23.0671C14.2228 23.0671 15.0668 22.8639 15.6244 22.7118C15.9251 22.6298 16.1012 22.3168 16.0196 22.0176C15.9378 21.7176 15.6359 21.5414 15.327 21.622L15.327 21.6219L15.3245 21.6227C14.8322 21.7605 14.1866 21.9371 12.9649 21.9371C8.02774 21.9371 4.0049 17.9143 4.0049 12.9771C4.0049 8.03995 8.02774 4.01711 12.9649 4.01711C15.8995 4.01711 18.6321 5.47599 20.3025 7.86711H17.5249C17.2221 7.86711 16.9649 8.12427 16.9649 8.42711C16.9649 8.72756 17.2097 8.98711 17.5249 8.98711ZM22.2592 15.1849L22.272 15.1871H22.2849H22.285H22.2851H22.2853H22.2854H22.2855H22.2856H22.2857H22.2858H22.286H22.2861H22.2862H22.2863H22.2864H22.2866H22.2867H22.2868H22.2869H22.287H22.2872H22.2873H22.2874H22.2875H22.2877H22.2878H22.2879H22.288H22.2881H22.2883H22.2884H22.2885H22.2886H22.2888H22.2889H22.289H22.2891H22.2893H22.2894H22.2895H22.2896H22.2898H22.2899H22.29H22.2901H22.2903H22.2904H22.2905H22.2906H22.2908H22.2909H22.291H22.2912H22.2913H22.2914H22.2915H22.2917H22.2918H22.2919H22.2921H22.2922H22.2923H22.2924H22.2926H22.2927H22.2928H22.293H22.2931H22.2932H22.2934H22.2935H22.2936H22.2937H22.2939H22.294H22.2941H22.2943H22.2944H22.2945H22.2947H22.2948H22.2949H22.2951H22.2952H22.2953H22.2955H22.2956H22.2957H22.2959H22.296H22.2961H22.2963H22.2964H22.2965H22.2967H22.2968H22.2969H22.2971H22.2972H22.2973H22.2975H22.2976H22.2978H22.2979H22.298H22.2982H22.2983H22.2984H22.2986H22.2987H22.2988H22.299H22.2991H22.2993H22.2994H22.2995H22.2997H22.2998H22.2999H22.3001H22.3002H22.3004H22.3005H22.3006H22.3008H22.3009H22.301H22.3012H22.3013H22.3015H22.3016H22.3017H22.3019H22.302H22.3022H22.3023H22.3024H22.3026H22.3027H22.3029H22.303H22.3031H22.3033H22.3034H22.3036H22.3037H22.3038H22.304H22.3041H22.3043H22.3044H22.3046H22.3047H22.3048H22.305H22.3051H22.3053H22.3054H22.3055H22.3057H22.3058H22.306H22.3061H22.3063H22.3064H22.3065H22.3067H22.3068H22.307H22.3071H22.3073H22.3074H22.3075H22.3077H22.3078H22.308H22.3081H22.3083H22.3084H22.3085H22.3087H22.3088H22.309H22.3091H22.3093H22.3094H22.3096H22.3097H22.3098H22.31H22.3101H22.3103H22.3104H22.3106H22.3107H22.3109H22.311H22.3111H22.3113H22.3114H22.3116H22.3117H22.3119H22.312H22.3122H22.3123H22.3125H22.3126H22.3127H22.3129H22.313H22.3132H22.3133H22.3135H22.3136H22.3138H22.3139H22.3141H22.3142H22.3143H22.3145H22.3146H22.3148H22.3149H22.3151H22.3152H22.3154H22.3155H22.3157H22.3158H22.316H22.3161H22.3162H22.3164H22.3165H22.3167H22.3168H22.317H22.3171H22.3173H22.3174H22.3176H22.3177H22.3179H22.318H22.3181H22.3183H22.3184H22.3186H22.3187H22.3189H22.319H22.3192H22.3193H22.3195H22.3196H22.3198H22.3199H22.32H22.3202H22.3203H22.3205H22.3206H22.3208H22.3209H22.3211H22.3212H22.3214H22.3215H22.3217H22.3218H22.322H22.3221H22.3222H22.3224H22.3225H22.3227H22.3228H22.323H22.3231H22.3233H22.3234H22.3236H22.3237H22.3239H22.324H22.3241H22.3243H22.3244H22.3246H22.3247H22.3249H22.325H22.3252H22.3253H22.3255H22.3256H22.3258H22.3259H22.326H22.3262H22.3263H22.3265H22.3266H22.3268H22.3269H22.3271H22.3272H22.3274H22.3275H22.3276H22.3278H22.3279H22.3281H22.3282H22.3284H22.3285H22.3287H22.3288H22.3289H22.3291H22.3292H22.3294H22.3295H22.3297H22.3298H22.33H22.3301H22.3302H22.3304H22.3305H22.3307H22.3308H22.331H22.3311H22.3313H22.3314H22.3315H22.3317H22.3318H22.332H22.3321H22.3323H22.3324H22.3325H22.3327H22.3328H22.333H22.3331H22.3333H22.3334H22.3335H22.3337H22.3338H22.334H22.3341H22.3343H22.3344H22.3345H22.3347H22.3348H22.335H22.3351H22.3353H22.3354H22.3355H22.3357H22.3358H22.336H22.3361H22.3362H22.3364H22.3365H22.3367H22.3368H22.3369H22.3371H22.3372H22.3374H22.3375H22.3376H22.3378H22.3379H22.3381H22.3382H22.3383H22.3385H22.3386H22.3388H22.3389H22.339H22.3392H22.3393H22.3394H22.3396H22.3397H22.3399H22.34H22.3401H22.3403H22.3404H22.3406H22.3407H22.3408H22.341H22.3411H22.3412H22.3414H22.3415H22.3416H22.3418H22.3419H22.3421H22.3422H22.3423H22.3425H22.3426H22.3427H22.3429H22.343H22.3431H22.3433H22.3434H22.3435H22.3437H22.3438H22.3439H22.3441H22.3442H22.3443H22.3445H22.3446H22.3447H22.3449H22.345H22.3451H22.3453H22.3454H22.3455H22.3457H22.3458H22.3459H22.3461H22.3462H22.3463H22.3465H22.3466H22.3467H22.3468H22.347H22.3471H22.3472H22.3474H22.3475H22.3476H22.3477H22.3479H22.348H22.3481H22.3483H22.3484H22.3485H22.3486H22.3488H22.3489H22.349H22.3492H22.3493H22.3494H22.3495H22.3497H22.3498H22.3499H22.35H22.3502H22.3503H22.3504H22.3505H22.3507H22.3508H22.3509H22.351H22.3512H22.3513H22.3514H22.3515H22.3517H22.3518H22.3519H22.352H22.3521H22.3523H22.3524H22.3525H22.3526H22.3528H22.3529H22.353H22.3531H22.3532H22.3534H22.3535H22.3536H22.3537H22.3538H22.354H22.3541H22.3542H22.3543H22.3544H22.3545H22.3547H22.3548H22.3549C22.6276 15.1871 22.8582 14.9955 22.912 14.7265L22.912 14.7265L22.9126 14.7235C23.0142 14.1545 23.0649 13.5656 23.0649 12.9771C23.0649 12.6619 22.8054 12.4171 22.5049 12.4171H22.4949C22.1797 12.4171 21.9349 12.6767 21.9349 12.9771C21.9349 13.4977 21.8858 14.0191 21.7971 14.5315C21.7428 14.8443 21.9488 15.1309 22.2592 15.1849ZM21.6349 16.3644V16.428C21.4118 16.4189 21.2012 16.5492 21.1007 16.75L21.1007 16.75L21.0985 16.7546C20.8827 17.2255 20.6174 17.6777 20.3219 18.1013L20.3211 18.1024C20.1479 18.3556 20.197 18.7098 20.4589 18.89C20.5599 18.9617 20.6721 18.9871 20.7849 18.9871C20.96 18.9871 21.1383 18.9062 21.2486 18.742C21.5835 18.2648 21.8775 17.7477 22.1207 17.2207C22.2589 16.9293 22.1168 16.6053 21.852 16.4729L21.6349 16.3644ZM18.8058 19.7971H18.7898L18.7478 19.8328C18.3546 20.167 17.922 20.4717 17.4799 20.7272L17.4798 20.7272L17.4777 20.7285C17.2055 20.8918 17.1264 21.2319 17.2735 21.4994L17.2733 21.4995L17.2772 21.5057C17.3825 21.6769 17.5692 21.7871 17.7649 21.7871C17.8647 21.7871 17.9601 21.7583 18.0493 21.7073L18.0502 21.7069C18.5577 21.4125 19.0354 21.0772 19.483 20.6906L19.4841 20.6896C19.7093 20.491 19.7582 20.1368 19.5474 19.8979C19.3576 19.6827 19.0372 19.6438 18.8058 19.7971ZM16.4429 15.5487L16.4429 15.5488L16.4478 15.5513C16.5244 15.5896 16.6173 15.6171 16.7149 15.6171C16.9177 15.6171 17.1105 15.5087 17.2077 15.3168C17.3549 15.0461 17.2604 14.7059 16.9872 14.5557L16.9534 14.5371H16.9332L13.5349 12.6782V7.59711C13.5349 7.2819 13.2754 7.03711 12.9749 7.03711C12.6721 7.03711 12.4149 7.29427 12.4149 7.59711V13.0171C12.4149 13.2199 12.5233 13.4127 12.7152 13.5099L16.4429 15.5487Z" fill="#191919" stroke="#191919" stroke-width="0.3"/>
</svg>
