<svg width="25" height="25" viewBox="0 0 25 25" fill="none" xmlns="http://www.w3.org/2000/svg">
<path d="M15.1246 4.05078H6.98463C5.88463 4.05078 4.99463 4.94078 4.99463 6.04078V21.9008H20.9446V9.85078L15.1246 4.05078ZM15.3146 5.31078L19.6346 9.67078H15.3146V5.31078ZM5.74463 21.1508V6.04078C5.74463 5.38078 6.33463 4.80078 6.99463 4.80078H14.5746V10.4208H20.2046V21.1508H5.74463Z" fill="#191919"/>
<path d="M16.1246 12.8798L13.4146 15.5498L16.1146 18.1998L15.5846 18.7198L12.8746 16.0298L10.2046 18.6998L9.68457 18.2198L12.3446 15.5298L9.68457 12.8398L10.2646 12.3398L12.8946 15.0398L15.5846 12.3398L16.1246 12.8798Z" fill="#191919"/>
</svg>
