<svg width="25" height="25" viewBox="0 0 25 25" fill="none" xmlns="http://www.w3.org/2000/svg">
<path d="M10.2549 7.55932L10.1489 7.45325L9.61886 6.92325L9.51257 6.81697L9.61907 6.7109L12.0689 4.27112L12.0691 4.2709M10.2549 7.55932L13.7549 4.37719C13.3149 3.94719 12.6049 3.94719 12.1749 4.37719L12.0691 4.2709M10.2549 7.55932L10.361 7.45325L12.4449 5.36932M10.2549 7.55932L12.4449 5.36932M12.0691 4.2709C12.5583 3.78188 13.3622 3.78368 13.8598 4.26991L13.861 4.27111L13.861 4.27112L16.311 6.72112L16.4171 6.82719L16.311 6.93325L15.781 7.46325L15.6749 7.56932L15.5689 7.46325L13.4849 5.37932V12.2372V12.3872H13.3349H12.5949H12.4449V12.2372V5.36932M12.0691 4.2709L12.4449 5.36932M12.4449 5.36932L12.5949 5.21932V12.0872V12.2372H12.7449H13.1849H13.3349V12.0872V5.22932L12.4449 5.36932ZM16.6849 13.5672H16.5349V13.7172V14.8372C16.5349 15.7843 15.7721 16.5472 14.8249 16.5472H11.1049C10.1578 16.5472 9.39492 15.7843 9.39492 14.8372V13.7172V13.5672H9.24492H4.04492H3.89492V13.7172V20.0372C3.89492 21.15 4.79208 22.0472 5.90492 22.0472H20.0349C21.1478 22.0472 22.0449 21.15 22.0449 20.0372V13.7172V13.5672H21.8949H16.6849ZM20.9949 20.0372C20.9949 20.5743 20.5621 21.0072 20.0249 21.0072H5.90492C5.36776 21.0072 4.93492 20.5743 4.93492 20.0372V14.6072H8.35492V14.8272C8.35492 16.3504 9.59245 17.5772 11.1049 17.5772H14.8249C16.3481 17.5772 17.5749 16.3397 17.5749 14.8272V14.6072H20.9949V20.0372Z" fill="#191919" stroke="#191919" stroke-width="0.3"/>
</svg>
