<svg width="25" height="25" viewBox="0 0 25 25" fill="none" xmlns="http://www.w3.org/2000/svg">
<path d="M15.2305 3.94453L15.1866 3.90078H15.1246H6.98463C5.80179 3.90078 4.84463 4.85794 4.84463 6.04078V21.9008V22.0508H4.99463H20.9446H21.0946V21.9008V9.85078V9.7885L21.0505 9.74453L15.2305 3.94453ZM14.5746 10.5708H20.0546V21.0008H5.89463V6.04078C5.89463 5.46517 6.41592 4.95078 6.99463 4.95078H14.4246V10.4208V10.5708H14.5746ZM15.4646 9.52078V5.67529L19.2748 9.52078H15.4646Z" fill="#191919" stroke="#191919" stroke-width="0.3"/>
<path d="M16.2298 12.9867L16.3375 12.8806L16.2306 12.7738L15.6906 12.2338L15.5844 12.1275L15.4783 12.234L12.8958 14.8261L10.372 12.2352L10.2735 12.1341L10.1666 12.2262L9.58663 12.7262L9.46498 12.8311L9.57791 12.9453L12.1336 15.5298L9.57791 18.1144L9.46875 18.2248L9.58283 18.3301L10.1028 18.8101L10.2087 18.9078L10.3106 18.8059L12.875 16.2416L15.4789 18.8263L15.584 18.9306L15.6896 18.8269L16.2196 18.3069L16.3287 18.1999L16.2196 18.0928L13.6285 15.5496L16.2298 12.9867Z" fill="#191919" stroke="#191919" stroke-width="0.3"/>
</svg>
