<svg width="25" height="25" viewBox="0 0 25 25" fill="none" xmlns="http://www.w3.org/2000/svg">
<path d="M16.6849 13.7172V14.8372C16.6849 15.8672 15.8549 16.6972 14.8249 16.6972H11.1049C10.0749 16.6972 9.24492 15.8672 9.24492 14.8372V13.7172H4.04492V20.0372C4.04492 21.0672 4.87492 21.8972 5.90492 21.8972H20.0349C21.0649 21.8972 21.8949 21.0672 21.8949 20.0372V13.7172H16.6849ZM21.1449 20.0372C21.1449 20.6572 20.6449 21.1572 20.0249 21.1572H5.90492C5.28492 21.1572 4.78492 20.6572 4.78492 20.0372V14.4572H8.50492V14.8272C8.50492 16.2672 9.67492 17.4272 11.1049 17.4272H14.8249C16.2649 17.4272 17.4249 16.2572 17.4249 14.8272V14.4572H21.1449V20.0372ZM10.2549 7.34719L9.72492 6.81719L12.1749 4.37719C12.6049 3.94719 13.3149 3.94719 13.7549 4.37719L16.2049 6.82719L15.6749 7.35719L13.3349 5.01719V12.2372H12.5949V5.00719L10.2549 7.34719Z" fill="#191919"/>
</svg>
