<svg width="25" height="25" viewBox="0 0 25 25" fill="none" xmlns="http://www.w3.org/2000/svg">
<path d="M10.7598 13.0815C13.2598 13.0815 15.2998 11.0515 15.2998 8.55148C15.2998 6.05148 13.2598 4.02148 10.7598 4.02148C8.25977 4.02148 6.21977 6.05148 6.21977 8.55148C6.21977 11.0515 8.24977 13.0815 10.7598 13.0815ZM10.7598 4.77148C12.8498 4.77148 14.5398 6.46148 14.5398 8.55148C14.5398 10.6415 12.8398 12.3315 10.7598 12.3315C8.67977 12.3315 6.97977 10.6415 6.97977 8.55148C6.97977 6.46148 8.66977 4.77148 10.7598 4.77148ZM7.38977 14.4215H10.7798V15.1715H7.38977C5.93977 15.1715 4.75977 16.3515 4.75977 17.8015V21.9315H4.00977V17.8015C4.00977 15.9415 5.52977 14.4215 7.39977 14.4215H7.38977ZM20.9398 16.6715C20.9398 16.1215 20.8198 15.6015 20.6098 15.1315L21.9298 14.3715L21.5498 13.7215L20.2298 14.4815C19.6098 13.6315 18.6498 13.0415 17.5498 12.9315V11.4115H16.7998V12.9315C15.6998 13.0415 14.7398 13.6315 14.1198 14.4815L12.7998 13.7215L12.4198 14.3715L13.7398 15.1315C13.5298 15.6015 13.4098 16.1215 13.4098 16.6715C13.4098 17.2215 13.5298 17.7415 13.7398 18.2115L12.4198 18.9715L12.7998 19.6215L14.1198 18.8615C14.7398 19.7115 15.6998 20.3015 16.7998 20.4115V21.9315H17.5498V20.4115C18.6498 20.3015 19.6098 19.7115 20.2298 18.8615L21.5498 19.6215L21.9298 18.9715L20.6098 18.2115C20.8198 17.7415 20.9398 17.2215 20.9398 16.6715ZM17.1698 19.6815C15.5098 19.6815 14.1598 18.3315 14.1598 16.6715C14.1598 15.0115 15.5098 13.6615 17.1698 13.6615C18.8298 13.6615 20.1798 15.0115 20.1798 16.6715C20.1798 18.3315 18.8298 19.6815 17.1698 19.6815Z" fill="#191919"/>
</svg>
