<svg width="25" height="25" viewBox="0 0 25 25" fill="none" xmlns="http://www.w3.org/2000/svg">
<path d="M22.0946 16.6661V16.6418L22.0869 16.6187L20.8569 12.9287L20.8227 12.8261H20.7146H13.4446H13.3365L13.3023 12.9287L12.0723 16.6187L12.0646 16.6418V16.6661C12.0646 17.2504 12.3622 17.7648 12.8146 18.0685V21.9561V22.1061H12.9646H21.1946H21.3446V21.9561V18.0685C21.7971 17.7648 22.0946 17.2504 22.0946 16.6661ZM13.1164 16.7355L14.0824 13.8661H15.0646V15.2161V15.3661H15.2146H15.9646H16.1146V15.2161V13.8661H18.0546V15.2161V15.3661H18.2046H18.9546H19.1046V15.2161V13.8661H20.0769L21.0423 16.7338C21.0046 17.0544 20.7338 17.3061 20.4046 17.3061H19.7546C19.3771 17.3061 19.1046 17.0432 19.1046 16.7061V16.5561H18.9546H18.2046H18.0546V16.7061C18.0546 17.0444 17.7909 17.3061 17.4046 17.3061H16.7546C16.3771 17.3061 16.1046 17.0432 16.1046 16.7061V16.5561H15.9546H15.2046H15.0546V16.7061C15.0546 17.0444 14.7909 17.3061 14.4046 17.3061H13.7546C13.422 17.3061 13.1459 17.0514 13.1164 16.7355ZM10.3468 13.1261L10.3237 13.1031C12.7149 12.924 14.6146 10.9213 14.6146 8.47609C14.6146 5.91282 12.537 3.84609 9.97463 3.84609C7.41135 3.84609 5.34463 5.92369 5.34463 8.48609C5.34463 11.0489 7.42179 13.1261 9.98463 13.1261H10.3468ZM11.5069 14.5135L11.5727 14.3161H11.3646H7.73463C5.59179 14.3161 3.84463 16.0633 3.84463 18.2061V21.9461V22.0961H3.99463H4.74463H4.89463V21.9461V18.2061C4.89463 16.6389 6.16747 15.3661 7.73463 15.3661H11.1146H11.2227L11.2569 15.2635L11.5069 14.5135ZM20.2946 21.0461H13.8646V18.3461H14.4146C14.8775 18.3461 15.2837 18.175 15.5846 17.8919C15.8856 18.175 16.2917 18.3461 16.7546 18.3461H17.4046C17.8675 18.3461 18.2737 18.175 18.5746 17.8919C18.8756 18.175 19.2817 18.3461 19.7446 18.3461H20.2946V21.0461ZM9.97463 4.89609C11.9518 4.89609 13.5646 6.50894 13.5646 8.48609C13.5646 10.4633 11.9518 12.0761 9.97463 12.0761C7.99747 12.0761 6.38463 10.4633 6.38463 8.48609C6.38463 6.50894 7.99747 4.89609 9.97463 4.89609Z" fill="#191919" stroke="#191919" stroke-width="0.3"/>
</svg>
