<svg width="25" height="25" viewBox="0 0 25 25" fill="none" xmlns="http://www.w3.org/2000/svg">
<path d="M21.9446 16.6661L20.7146 12.9761H13.4446L12.2146 16.6661C12.2146 17.2261 12.5146 17.7161 12.9646 17.9861V21.9561H21.1946V17.9861C21.6446 17.7161 21.9446 17.2261 21.9446 16.6661ZM13.9846 13.7161H15.2146V15.2161H15.9646V13.7161H18.2046V15.2161H18.9546V13.7161H20.1846L21.1946 16.7161C21.1646 17.1261 20.8246 17.4561 20.4046 17.4561H19.7546C19.3046 17.4561 18.9546 17.1361 18.9546 16.7061H18.2046C18.2046 17.1361 17.8646 17.4561 17.4046 17.4561H16.7546C16.3046 17.4561 15.9546 17.1361 15.9546 16.7061H15.2046C15.2046 17.1361 14.8646 17.4561 14.4046 17.4561H13.7546C13.3346 17.4561 12.9846 17.1261 12.9646 16.7161L13.9746 13.7161H13.9846ZM20.4446 21.1961H13.7146V18.1961C13.7146 18.1961 13.7446 18.1961 13.7646 18.1961H14.4146C14.8946 18.1961 15.3046 17.9961 15.5846 17.6761C15.8646 17.9961 16.2746 18.1961 16.7546 18.1961H17.4046C17.8846 18.1961 18.2946 17.9961 18.5746 17.6761C18.8546 17.9961 19.2646 18.1961 19.7446 18.1961H20.3946C20.3946 18.1961 20.4246 18.1961 20.4446 18.1961V21.1961ZM9.97463 12.9661C12.4446 12.9661 14.4646 10.9561 14.4646 8.47609C14.4646 5.99609 12.4546 3.99609 9.97463 3.99609C7.49463 3.99609 5.49463 6.00609 5.49463 8.48609C5.49463 10.9661 7.50463 12.9761 9.98463 12.9761L9.97463 12.9661ZM9.97463 4.74609C12.0346 4.74609 13.7146 6.42609 13.7146 8.48609C13.7146 10.5461 12.0346 12.2261 9.97463 12.2261C7.91463 12.2261 6.23463 10.5461 6.23463 8.48609C6.23463 6.42609 7.91463 4.74609 9.97463 4.74609ZM11.3646 14.4661L11.1146 15.2161H7.73463C6.08463 15.2161 4.74463 16.5561 4.74463 18.2061V21.9461H3.99463V18.2061C3.99463 16.1461 5.67463 14.4661 7.73463 14.4661H11.3646Z" fill="#191919"/>
</svg>
