<svg width="25" height="25" viewBox="0 0 25 25" fill="none" xmlns="http://www.w3.org/2000/svg">
<path d="M21.9441 18.3623L21.9441 18.3622L21.9428 18.36L14.5141 5.80226C14.5139 5.80189 14.5137 5.80152 14.5135 5.80116C14.1958 5.2435 13.6155 4.91641 12.9737 4.91641C12.3301 4.91641 11.7612 5.24494 11.4345 5.80016C11.4345 5.80022 11.4344 5.80029 11.4344 5.80035L4.00459 18.36L4.00458 18.36L4.00376 18.3614C3.67745 18.9271 3.67653 19.5943 4.00384 20.1515C4.32144 20.7093 4.90179 21.0364 5.54369 21.0364H20.4037C21.0474 21.0364 21.6267 20.6977 21.9435 20.1517L21.9441 20.1506C22.2602 19.5946 22.2602 18.9182 21.9441 18.3623ZM12.3428 6.33281L12.3433 6.33184C12.472 6.11078 12.715 5.99391 12.9687 5.99391C13.2224 5.99391 13.4654 6.11078 13.594 6.33184L13.5946 6.33285L21.0335 18.8908C21.0336 18.8912 21.0338 18.8915 21.034 18.8918C21.1671 19.1255 21.1669 19.3984 21.0335 19.632L21.0137 19.6666V19.6734C20.8768 19.8805 20.6546 20.0064 20.4037 20.0064H5.53369C5.26992 20.0064 5.03791 19.8673 4.90334 19.641C4.77046 19.4076 4.77048 19.1351 4.90339 18.9018L12.3428 6.33281ZM13.3537 15.0164H13.5037V14.8664V10.3364V10.1864H13.3537H12.5937H12.4437V10.3364V14.8664V15.0164H12.5937H13.3537ZM12.9637 18.0364C13.4652 18.0364 13.8737 17.6305 13.8737 17.1364C13.8737 16.6423 13.4652 16.2364 12.9637 16.2364C12.4621 16.2364 12.0537 16.6423 12.0537 17.1364C12.0537 17.6305 12.4621 18.0364 12.9637 18.0364Z" fill="#191919" stroke="#191919" stroke-width="0.3"/>
</svg>
