<svg width="25" height="25" viewBox="0 0 25 25" fill="none" xmlns="http://www.w3.org/2000/svg">
<path d="M21.8137 18.4364L14.3837 5.87641C14.0937 5.36641 13.5637 5.06641 12.9737 5.06641C12.3837 5.06641 11.8637 5.36641 11.5637 5.87641L4.13369 18.4364C3.83369 18.9564 3.83369 19.5664 4.13369 20.0764C4.42369 20.5864 4.95369 20.8864 5.54369 20.8864H20.4037C20.9937 20.8864 21.5237 20.5764 21.8137 20.0764C22.1037 19.5664 22.1037 18.9464 21.8137 18.4364ZM21.1637 19.7164C21.0037 19.9864 20.7237 20.1564 20.4037 20.1564H5.53369C5.21369 20.1564 4.93369 19.9864 4.77369 19.7164C4.61369 19.4364 4.61369 19.1064 4.77369 18.8264L12.2137 6.25641C12.5337 5.70641 13.4037 5.70641 13.7237 6.25641L21.1637 18.8164C21.3237 19.0964 21.3237 19.4264 21.1637 19.7064V19.7164ZM13.3537 14.8664H12.5937V10.3364H13.3537V14.8664ZM13.7237 17.1364C13.7237 17.5464 13.3837 17.8864 12.9637 17.8864C12.5437 17.8864 12.2037 17.5464 12.2037 17.1364C12.2037 16.7264 12.5437 16.3864 12.9637 16.3864C13.3837 16.3864 13.7237 16.7264 13.7237 17.1364Z" fill="#191919"/>
</svg>
